<svg width="392" height="739" viewBox="0 0 392 739" fill="none" xmlns="http://www.w3.org/2000/svg">
<g filter="url(#filter0_f_464_4324)">
<path fill-rule="evenodd" clip-rule="evenodd" d="M386 489.195C385.911 489.086 385.822 488.977 385.733 488.868C381.372 483.513 378.814 479.021 376.448 474.865C372.829 468.511 369.657 462.94 361.173 456.27C357.182 453.132 354.549 450.988 352.513 449.331C347.389 445.159 346.047 444.066 336.362 437.965C327.149 432.161 324.208 426.241 320.581 418.938C318.88 415.514 317.029 411.786 314.309 407.624C309.168 399.758 305.487 396.911 299.468 392.256C295.511 389.196 290.542 385.353 283.484 378.788C272.194 368.288 269.077 359.907 265.937 351.469C264.129 346.607 262.313 341.727 258.924 336.411C254.587 329.609 249.593 326.866 244.889 324.282C239.535 321.342 234.558 318.608 231.357 310.333C228.106 301.929 225.806 300.266 223.628 298.69C221.776 297.351 220.012 296.074 217.824 290.774C217.008 288.799 216.237 286.831 215.472 284.879C211.77 275.434 208.216 266.367 200.532 258.678C194.804 252.947 193.762 249.895 191.616 243.611C190.289 239.723 188.538 234.597 184.994 226.832C179.833 215.529 176.225 212.768 172.485 209.907C169.505 207.626 166.44 205.281 162.439 198.498C158.699 192.157 156.553 184.697 154.5 177.563C151.601 167.486 148.889 158.06 142.139 153.362C135.583 148.799 131.459 142.695 127.415 136.71C124.348 132.171 121.328 127.701 117.329 124.024C113.408 120.419 106.44 103.318 98.5842 84.0394C87.8631 57.7281 75.4897 27.3619 66.9562 21.718C66.1603 21.1916 65.3746 20.6652 64.5926 20.1412C50.8458 10.9316 38.2353 2.4833 -8.47748 8.1774C-47.7717 12.9672 -96.9087 15.0567 -130.112 16.4686C-138.626 16.8306 -146.093 17.1482 -152.077 17.4552C-175.534 18.6588 -209.133 26.3151 -223 29.9928V1192.23H386V489.195Z" fill="#A8D5E2"/>
<path fill-rule="evenodd" clip-rule="evenodd" d="M386 489.195C385.911 489.086 385.822 488.977 385.733 488.868C381.372 483.513 378.814 479.021 376.448 474.865C372.829 468.511 369.657 462.94 361.173 456.27C357.182 453.132 354.549 450.988 352.513 449.331C347.389 445.159 346.047 444.066 336.362 437.965C327.149 432.161 324.208 426.241 320.581 418.938C318.88 415.514 317.029 411.786 314.309 407.624C309.168 399.758 305.487 396.911 299.468 392.256C295.511 389.196 290.542 385.353 283.484 378.788C272.194 368.288 269.077 359.907 265.937 351.469C264.129 346.607 262.313 341.727 258.924 336.411C254.587 329.609 249.593 326.866 244.889 324.282C239.535 321.342 234.558 318.608 231.357 310.333C228.106 301.929 225.806 300.266 223.628 298.69C221.776 297.351 220.012 296.074 217.824 290.774C217.008 288.799 216.237 286.831 215.472 284.879C211.77 275.434 208.216 266.367 200.532 258.678C194.804 252.947 193.762 249.895 191.616 243.611C190.289 239.723 188.538 234.597 184.994 226.832C179.833 215.529 176.225 212.768 172.485 209.907C169.505 207.626 166.44 205.281 162.439 198.498C158.699 192.157 156.553 184.697 154.5 177.563C151.601 167.486 148.889 158.06 142.139 153.362C135.583 148.799 131.459 142.695 127.415 136.71C124.348 132.171 121.328 127.701 117.329 124.024C113.408 120.419 106.44 103.318 98.5842 84.0394C87.8631 57.7281 75.4897 27.3619 66.9562 21.718C66.1603 21.1916 65.3746 20.6652 64.5926 20.1412C50.8458 10.9316 38.2353 2.4833 -8.47748 8.1774C-47.7717 12.9672 -96.9087 15.0567 -130.112 16.4686C-138.626 16.8306 -146.093 17.1482 -152.077 17.4552C-175.534 18.6588 -209.133 26.3151 -223 29.9928V1192.23H386V489.195Z" fill="url(#paint0_linear_464_4324)" fill-opacity="0.4"/>
</g>
<defs>
<filter id="filter0_f_464_4324" x="-228.669" y="0.66028" width="620.338" height="1197.23" filterUnits="userSpaceOnUse" color-interpolation-filters="sRGB">
<feFlood flood-opacity="0" result="BackgroundImageFix"/>
<feBlend mode="normal" in="SourceGraphic" in2="BackgroundImageFix" result="shape"/>
<feGaussianBlur stdDeviation="2.83453" result="effect1_foregroundBlur_464_4324"/>
</filter>
<linearGradient id="paint0_linear_464_4324" x1="771.535" y1="-60.3288" x2="771.535" y2="1182.9" gradientUnits="userSpaceOnUse">
<stop offset="0.201849" stop-color="#1B4965"/>
<stop offset="0.721322" stop-color="#345995" stop-opacity="0"/>
</linearGradient>
</defs>
</svg>
