<svg width="1477" height="839" viewBox="0 0 1477 839" fill="none" xmlns="http://www.w3.org/2000/svg">
<g filter="url(#filter0_f_464_4327)">
<path fill-rule="evenodd" clip-rule="evenodd" d="M6 1249.23H1527.07V6H1385.73C1358.98 6 1327.35 13.5219 1303.57 19.1759C1289.26 22.5804 1277.79 25.3076 1271.95 25.3076C1267.94 25.3076 1260.86 25.9436 1252.19 26.7226C1227.31 28.959 1189.31 32.3746 1172.96 25.3076C1150.9 15.7791 1101.03 8.00578 1067.95 25.3076C1050.88 34.2369 1036.68 61.132 1024.04 85.0707C1012.18 107.517 1001.7 127.364 991.516 127.364C977.724 127.364 968.019 136.621 960.218 144.062C956.112 147.979 952.533 151.392 949.163 152.689C943.5 154.869 939.015 160.078 934.44 165.392C931.119 169.25 927.751 173.162 923.851 176.009C920.328 178.582 919.663 180.973 918.983 183.417C917.874 187.406 916.725 191.535 903.051 196.822C891.033 201.467 888.839 210.431 886.937 218.196C885.35 224.681 883.967 230.329 877.238 231.927C869.696 233.717 861.633 241.379 854.079 248.556C846.823 255.451 840.037 261.899 834.634 262.268C829.538 262.615 825.513 266.819 820.876 271.661C815.479 277.296 809.254 283.796 799.548 286.089C791.086 288.088 783.946 295.548 776.656 303.165C768.402 311.789 759.955 320.615 749.176 321.947C735.627 323.62 730.521 330.432 725.195 337.536C722.542 341.076 719.834 344.689 716 347.774C709.648 352.886 701.421 351.896 694.182 351.026C688.282 350.316 683.038 349.685 680 352.5C676.506 355.737 671.365 358.222 665.174 361.216C659.374 364.02 652.652 367.27 645.5 372C636.856 377.717 630.72 390.246 625.762 400.369C622.239 407.563 619.311 413.542 616.5 415C613.244 416.689 611.273 425.667 609.267 434.806C607.104 444.659 604.9 454.699 601 456C597.202 457.267 591.827 456.806 585.531 456.265C579.365 455.736 572.316 455.132 565 456C558.527 456.768 553.418 459.739 548.163 462.794C541.415 466.718 534.427 470.782 524 470.5C512.737 470.195 491.018 474.661 469.636 479.057C455.812 481.899 442.128 484.712 431.5 486.189C419.387 487.872 407.763 492.969 396.348 497.975C382.257 504.153 368.484 510.193 354.5 509.5C339.165 508.74 318.656 515.691 302.141 521.289C291.395 524.931 282.34 528 277.5 528C271.646 528 266.382 524.823 260.738 521.417C254.544 517.678 247.893 513.664 239.5 513.27C237.897 513.195 236.151 513.125 234.295 513.05C217.573 512.38 191.925 511.351 182 503C172.117 494.685 161.875 494.821 153.017 494.938C151.992 494.952 150.985 494.965 150 494.965C143.096 494.965 140.169 496.79 138.028 498.125C136.795 498.894 135.822 499.5 134.5 499.5C115.506 499.5 114.879 500.454 114.166 501.539C113.847 502.024 113.51 502.536 111.5 503C94.1054 507.014 68.0167 511.526 54.4837 503C48.1579 499.015 36.2828 501.604 24.5583 504.161C17.9911 505.593 11.4711 507.015 6 507.265V1249.23Z" fill="#A8D5E2"/>
<path fill-rule="evenodd" clip-rule="evenodd" d="M6 1249.23H1527.07V6H1385.73C1358.98 6 1327.35 13.5219 1303.57 19.1759C1289.26 22.5804 1277.79 25.3076 1271.95 25.3076C1267.94 25.3076 1260.86 25.9436 1252.19 26.7226C1227.31 28.959 1189.31 32.3746 1172.96 25.3076C1150.9 15.7791 1101.03 8.00578 1067.95 25.3076C1050.88 34.2369 1036.68 61.132 1024.04 85.0707C1012.18 107.517 1001.7 127.364 991.516 127.364C977.724 127.364 968.019 136.621 960.218 144.062C956.112 147.979 952.533 151.392 949.163 152.689C943.5 154.869 939.015 160.078 934.44 165.392C931.119 169.25 927.751 173.162 923.851 176.009C920.328 178.582 919.663 180.973 918.983 183.417C917.874 187.406 916.725 191.535 903.051 196.822C891.033 201.467 888.839 210.431 886.937 218.196C885.35 224.681 883.967 230.329 877.238 231.927C869.696 233.717 861.633 241.379 854.079 248.556C846.823 255.451 840.037 261.899 834.634 262.268C829.538 262.615 825.513 266.819 820.876 271.661C815.479 277.296 809.254 283.796 799.548 286.089C791.086 288.088 783.946 295.548 776.656 303.165C768.402 311.789 759.955 320.615 749.176 321.947C735.627 323.62 730.521 330.432 725.195 337.536C722.542 341.076 719.834 344.689 716 347.774C709.648 352.886 701.421 351.896 694.182 351.026C688.282 350.316 683.038 349.685 680 352.5C676.506 355.737 671.365 358.222 665.174 361.216C659.374 364.02 652.652 367.27 645.5 372C636.856 377.717 630.72 390.246 625.762 400.369C622.239 407.563 619.311 413.542 616.5 415C613.244 416.689 611.273 425.667 609.267 434.806C607.104 444.659 604.9 454.699 601 456C597.202 457.267 591.827 456.806 585.531 456.265C579.365 455.736 572.316 455.132 565 456C558.527 456.768 553.418 459.739 548.163 462.794C541.415 466.718 534.427 470.782 524 470.5C512.737 470.195 491.018 474.661 469.636 479.057C455.812 481.899 442.128 484.712 431.5 486.189C419.387 487.872 407.763 492.969 396.348 497.975C382.257 504.153 368.484 510.193 354.5 509.5C339.165 508.74 318.656 515.691 302.141 521.289C291.395 524.931 282.34 528 277.5 528C271.646 528 266.382 524.823 260.738 521.417C254.544 517.678 247.893 513.664 239.5 513.27C237.897 513.195 236.151 513.125 234.295 513.05C217.573 512.38 191.925 511.351 182 503C172.117 494.685 161.875 494.821 153.017 494.938C151.992 494.952 150.985 494.965 150 494.965C143.096 494.965 140.169 496.79 138.028 498.125C136.795 498.894 135.822 499.5 134.5 499.5C115.506 499.5 114.879 500.454 114.166 501.539C113.847 502.024 113.51 502.536 111.5 503C94.1054 507.014 68.0167 511.526 54.4837 503C48.1579 499.015 36.2828 501.604 24.5583 504.161C17.9911 505.593 11.4711 507.015 6 507.265V1249.23Z" fill="url(#paint0_linear_464_4327)" fill-opacity="0.4"/>
</g>
<defs>
<filter id="filter0_f_464_4327" x="0.330935" y="0.330935" width="1532.41" height="1254.56" filterUnits="userSpaceOnUse" color-interpolation-filters="sRGB">
<feFlood flood-opacity="0" result="BackgroundImageFix"/>
<feBlend mode="normal" in="SourceGraphic" in2="BackgroundImageFix" result="shape"/>
<feGaussianBlur stdDeviation="2.83453" result="effect1_foregroundBlur_464_4327"/>
</filter>
<linearGradient id="paint0_linear_464_4327" x1="537.535" y1="25" x2="537.535" y2="1268.23" gradientUnits="userSpaceOnUse">
<stop offset="0.201849" stop-color="#1B4965"/>
<stop offset="0.721322" stop-color="#345995" stop-opacity="0"/>
</linearGradient>
</defs>
</svg>
