<?xml version="1.0" encoding="UTF-8"?>
<svg id="Layer_1" data-name="Layer 1" xmlns="http://www.w3.org/2000/svg" xmlns:xlink="http://www.w3.org/1999/xlink" version="1.1" viewBox="0 0 1920 894">
  <defs>
    <style>
      .cls-1 {
        fill: url(#linear-gradient-2);
      }

      .cls-1, .cls-2, .cls-3, .cls-4, .cls-5, .cls-6 {
        stroke-width: 0px;
      }

      .cls-1, .cls-4, .cls-5 {
        fill-opacity: .4;
      }

      .cls-1, .cls-5, .cls-6 {
        fill-rule: evenodd;
      }

      .cls-7 {
        clip-path: url(#clippath);
      }

      .cls-2 {
        fill: none;
      }

      .cls-3 {
        fill: #345995;
      }

      .cls-4 {
        fill: url(#linear-gradient-3);
      }

      .cls-5 {
        fill: url(#linear-gradient);
      }

      .cls-6 {
        fill: #a8d5e2;
      }
    </style>
    <clipPath id="clippath">
      <rect class="cls-2" width="1920" height="894"/>
    </clipPath>
    <linearGradient id="linear-gradient" x1="81.6" y1="1198.7" x2="81.6" y2="2441.9" gradientTransform="translate(0 -1104)" gradientUnits="userSpaceOnUse">
      <stop offset=".2" stop-color="#1b4965"/>
      <stop offset=".7" stop-color="#345995" stop-opacity="0"/>
    </linearGradient>
    <linearGradient id="linear-gradient-2" x1="1209.5" y1="1184" x2="1209.5" y2="2427.4" gradientTransform="translate(0 -1104)" gradientUnits="userSpaceOnUse">
      <stop offset=".2" stop-color="#1b4965"/>
      <stop offset=".7" stop-color="#345995" stop-opacity="0"/>
    </linearGradient>
    <linearGradient id="linear-gradient-3" x1="908" y1="1223" x2="908" y2="2311" gradientTransform="translate(0 -1104)" gradientUnits="userSpaceOnUse">
      <stop offset=".6" stop-color="#a8d5e2"/>
      <stop offset="1" stop-color="#a8d5e2" stop-opacity="0"/>
    </linearGradient>
  </defs>
  <g class="cls-7">
    <g>
      <g>
        <path class="cls-6" d="M386,644.2c0,0-.2-.2-.3-.3-4.4-5.4-6.9-9.8-9.3-14-3.6-6.4-6.8-11.9-15.3-18.6-4-3.1-6.6-5.3-8.7-6.9-5.1-4.2-6.5-5.3-16.2-11.4-9.2-5.8-12.2-11.7-15.8-19-1.7-3.4-3.6-7.2-6.3-11.3-5.1-7.9-8.8-10.7-14.8-15.4-4-3.1-8.9-6.9-16-13.5-11.3-10.5-14.4-18.9-17.5-27.3-1.8-4.9-3.6-9.7-7-15.1-4.3-6.8-9.3-9.5-14-12.1-5.4-2.9-10.3-5.7-13.5-13.9-3.3-8.4-5.6-10.1-7.7-11.6-1.9-1.3-3.6-2.6-5.8-7.9-.8-2-1.6-3.9-2.4-5.9-3.7-9.4-7.3-18.5-14.9-26.2-5.7-5.7-6.8-8.8-8.9-15.1-1.3-3.9-3.1-9-6.6-16.8-5.2-11.3-8.8-14.1-12.5-16.9-3-2.3-6-4.6-10-11.4-3.7-6.3-5.9-13.8-7.9-20.9-2.9-10.1-5.6-19.5-12.4-24.2-6.6-4.6-10.7-10.7-14.7-16.7-3.1-4.5-6.1-9-10.1-12.7-3.9-3.6-10.9-20.7-18.7-40-10.7-26.3-23.1-56.7-31.6-62.3-.8-.5-1.6-1.1-2.4-1.6-13.7-9.2-26.4-17.7-73.1-12-39.3,4.8-88.4,6.9-121.6,8.3-8.5.4-16,.7-22,1-23.5,1.2-57.1,8.9-70.9,12.5v1162.2H386v-703h0Z"/>
        <path class="cls-5" d="M386,644.2c0,0-.2-.2-.3-.3-4.4-5.4-6.9-9.8-9.3-14-3.6-6.4-6.8-11.9-15.3-18.6-4-3.1-6.6-5.3-8.7-6.9-5.1-4.2-6.5-5.3-16.2-11.4-9.2-5.8-12.2-11.7-15.8-19-1.7-3.4-3.6-7.2-6.3-11.3-5.1-7.9-8.8-10.7-14.8-15.4-4-3.1-8.9-6.9-16-13.5-11.3-10.5-14.4-18.9-17.5-27.3-1.8-4.9-3.6-9.7-7-15.1-4.3-6.8-9.3-9.5-14-12.1-5.4-2.9-10.3-5.7-13.5-13.9-3.3-8.4-5.6-10.1-7.7-11.6-1.9-1.3-3.6-2.6-5.8-7.9-.8-2-1.6-3.9-2.4-5.9-3.7-9.4-7.3-18.5-14.9-26.2-5.7-5.7-6.8-8.8-8.9-15.1-1.3-3.9-3.1-9-6.6-16.8-5.2-11.3-8.8-14.1-12.5-16.9-3-2.3-6-4.6-10-11.4-3.7-6.3-5.9-13.8-7.9-20.9-2.9-10.1-5.6-19.5-12.4-24.2-6.6-4.6-10.7-10.7-14.7-16.7-3.1-4.5-6.1-9-10.1-12.7-3.9-3.6-10.9-20.7-18.7-40-10.7-26.3-23.1-56.7-31.6-62.3-.8-.5-1.6-1.1-2.4-1.6-13.7-9.2-26.4-17.7-73.1-12-39.3,4.8-88.4,6.9-121.6,8.3-8.5.4-16,.7-22,1-23.5,1.2-57.1,8.9-70.9,12.5v1162.2H386v-703h0Z"/>
      </g>
      <g>
        <path class="cls-6" d="M449,1304.2h1521.1V61h-141.3c-26.8,0-58.4,7.5-82.2,13.2-14.3,3.4-25.8,6.1-31.6,6.1s-11.1.6-19.8,1.4c-24.9,2.2-62.9,5.7-79.2-1.4-22.1-9.5-71.9-17.3-105,0-17.1,8.9-31.3,35.8-43.9,59.8-11.9,22.4-22.3,42.3-32.5,42.3s-23.5,9.3-31.3,16.7c-4.1,3.9-7.7,7.3-11.1,8.6-5.7,2.2-10.2,7.4-14.7,12.7-3.3,3.9-6.7,7.8-10.6,10.6-3.5,2.6-4.2,5-4.9,7.4-1.1,4-2.2,8.1-15.9,13.4-12,4.6-14.2,13.6-16.1,21.4-1.6,6.5-3,12.1-9.7,13.7-7.5,1.8-15.6,9.5-23.2,16.6-7.3,6.9-14,13.3-19.4,13.7-5.1.3-9.1,4.6-13.8,9.4-5.4,5.6-11.6,12.1-21.3,14.4-8.5,2-15.6,9.5-22.9,17.1-8.3,8.6-16.7,17.4-27.5,18.8-13.6,1.7-18.7,8.5-24,15.6-2.7,3.5-5.4,7.2-9.2,10.2-6.3,5.1-14.6,4.1-21.8,3.3-5.9-.7-11.1-1.3-14.2,1.5-3.5,3.2-8.6,5.7-14.8,8.7-5.8,2.8-12.5,6.1-19.7,10.8-8.6,5.7-14.8,18.2-19.7,28.4-3.5,7.2-6.4,13.2-9.3,14.6-3.3,1.7-5.2,10.7-7.2,19.8-2.2,9.9-4.4,19.9-8.3,21.2-3.8,1.3-9.2.8-15.5.3-6.2-.5-13.2-1.1-20.5-.3-6.5.8-11.6,3.7-16.8,6.8-6.7,3.9-13.7,8-24.2,7.7-11.3-.3-33,4.2-54.4,8.6-13.8,2.8-27.5,5.7-38.1,7.1-12.1,1.7-23.7,6.8-35.2,11.8-14.1,6.2-27.9,12.2-41.8,11.5-15.3-.8-35.8,6.2-52.4,11.8-10.7,3.6-19.8,6.7-24.6,6.7s-11.1-3.2-16.8-6.6c-6.2-3.7-12.8-7.8-21.2-8.1-1.6,0-3.3,0-5.2-.2-16.7-.7-42.4-1.7-52.3-10-9.9-8.3-20.1-8.2-29-8.1h-3c-6.9,0-9.8,1.8-12,3.2-1.2.8-2.2,1.4-3.5,1.4-19,0-19.6,1-20.3,2-.3.5-.7,1-2.7,1.5-17.4,4-43.5,8.5-57,0-6.3-4-18.2-1.4-29.9,1.2-6.6,1.4-13.1,2.9-18.6,3.1v742-.2Z"/>
        <path class="cls-1" d="M449,1304.2h1521.1V61h-141.3c-26.8,0-58.4,7.5-82.2,13.2-14.3,3.4-25.8,6.1-31.6,6.1s-11.1.6-19.8,1.4c-24.9,2.2-62.9,5.7-79.2-1.4-22.1-9.5-71.9-17.3-105,0-17.1,8.9-31.3,35.8-43.9,59.8-11.9,22.4-22.3,42.3-32.5,42.3s-23.5,9.3-31.3,16.7c-4.1,3.9-7.7,7.3-11.1,8.6-5.7,2.2-10.2,7.4-14.7,12.7-3.3,3.9-6.7,7.8-10.6,10.6-3.5,2.6-4.2,5-4.9,7.4-1.1,4-2.2,8.1-15.9,13.4-12,4.6-14.2,13.6-16.1,21.4-1.6,6.5-3,12.1-9.7,13.7-7.5,1.8-15.6,9.5-23.2,16.6-7.3,6.9-14,13.3-19.4,13.7-5.1.3-9.1,4.6-13.8,9.4-5.4,5.6-11.6,12.1-21.3,14.4-8.5,2-15.6,9.5-22.9,17.1-8.3,8.6-16.7,17.4-27.5,18.8-13.6,1.7-18.7,8.5-24,15.6-2.7,3.5-5.4,7.2-9.2,10.2-6.3,5.1-14.6,4.1-21.8,3.3-5.9-.7-11.1-1.3-14.2,1.5-3.5,3.2-8.6,5.7-14.8,8.7-5.8,2.8-12.5,6.1-19.7,10.8-8.6,5.7-14.8,18.2-19.7,28.4-3.5,7.2-6.4,13.2-9.3,14.6-3.3,1.7-5.2,10.7-7.2,19.8-2.2,9.9-4.4,19.9-8.3,21.2-3.8,1.3-9.2.8-15.5.3-6.2-.5-13.2-1.1-20.5-.3-6.5.8-11.6,3.7-16.8,6.8-6.7,3.9-13.7,8-24.2,7.7-11.3-.3-33,4.2-54.4,8.6-13.8,2.8-27.5,5.7-38.1,7.1-12.1,1.7-23.7,6.8-35.2,11.8-14.1,6.2-27.9,12.2-41.8,11.5-15.3-.8-35.8,6.2-52.4,11.8-10.7,3.6-19.8,6.7-24.6,6.7s-11.1-3.2-16.8-6.6c-6.2-3.7-12.8-7.8-21.2-8.1-1.6,0-3.3,0-5.2-.2-16.7-.7-42.4-1.7-52.3-10-9.9-8.3-20.1-8.2-29-8.1h-3c-6.9,0-9.8,1.8-12,3.2-1.2.8-2.2,1.4-3.5,1.4-19,0-19.6,1-20.3,2-.3.5-.7,1-2.7,1.5-17.4,4-43.5,8.5-57,0-6.3-4-18.2-1.4-29.9,1.2-6.6,1.4-13.1,2.9-18.6,3.1v742-.2Z"/>
      </g>
      <path class="cls-3" d="M-43,294.2c-15.7-4.7-47.2,9.5-61,17.1v7.7l31.1,888h1993V119h-58.2c-8.5,1.4-29.4,4.6-45.2,6.5-19.6,2.4-27.3,2.4-46.9,14.5-19.6,12.1-24,19.8-47.2,38.4-23.2,18.6-35.2,32.8-58.4,60.6-23.2,27.8-31.1,55.8-45.7,78-14.5,22.2-22.1-26.3-23.2,0-.8,21,5.1,55,8.2,69.4-.2,11.6-3.9,37.3-17.6,47-17.1,12.1-40.3,0-61,0s-31.6,9.2-46.4,23.3c-14.8,14.2-10,21.3-20.2,41.1-10.2,19.8-19.1,13.9-31.9,28.4-12.8,14.5-34.2,14.5-57.1,30.1-23,15.7-64.1-41.3-84-35.1s-39.3,24.6-62,21.4c-22.7-3.2-50.9-5.4-69,0-21,6.2-84.2,47.7-100,62-16.6,15.1-18.8,17.8-49.3,17.8s-42.2,3.8-55,15-16.2,15.7-28.7,11.2-24.6,14.5-46.3,6.2-39.3-1.2-65-6.2c-25.8-5-11.2-16.3-34.2-17.5s-28.3,13.1-51,6.3-19.7-16.3-35-25.8-74.2-19.7-89.5-26.5-18.5,0-66.5,0-50.9-20.6-67.5-33-66.5,8.9-80,0-18.1-22.7-37-23.3-9.2,7.7-25,0-19.8-18.3-29-31-37.2-10.2-42-17.9c-4.8-7.7-20.7-41.7-25.3-48.4-4.6-6.8-17.3-16.5-28.8-17.1s-22.4-27.8-29.6-36.6c-7.1-8.9-24.5-17.1-35.5-22.2-11-5-16.8-15.7-22.2-29-5.4-13.3-43.5-18.1-56.2-25.8-12.8-7.7-18.9-.6-33.2,0-14.3.6-16.6-6.5-26.5-6.5s-19.6,5.9-39.3,0h.3Z"/>
      <path class="cls-4" d="M-43,294.2c-15.7-4.7-47.2,9.5-61,17.1v7.7l31.1,888h1993V119h-58.2c-8.5,1.4-29.4,4.6-45.2,6.5-19.6,2.4-27.3,2.4-46.9,14.5-19.6,12.1-24,19.8-47.2,38.4-23.2,18.6-35.2,32.8-58.4,60.6-23.2,27.8-31.1,55.8-45.7,78-14.5,22.2-22.1-26.3-23.2,0-.8,21,5.1,55,8.2,69.4-.2,11.6-3.9,37.3-17.6,47-17.1,12.1-40.3,0-61,0s-31.6,9.2-46.4,23.3c-14.8,14.2-10,21.3-20.2,41.1-10.2,19.8-19.1,13.9-31.9,28.4-12.8,14.5-34.2,14.5-57.1,30.1-23,15.7-64.1-41.3-84-35.1s-39.3,24.6-62,21.4c-22.7-3.2-50.9-5.4-69,0-21,6.2-84.2,47.7-100,62-16.6,15.1-18.8,17.8-49.3,17.8s-42.2,3.8-55,15-16.2,15.7-28.7,11.2-24.6,14.5-46.3,6.2-39.3-1.2-65-6.2c-25.8-5-11.2-16.3-34.2-17.5s-28.3,13.1-51,6.3-19.7-16.3-35-25.8-74.2-19.7-89.5-26.5-18.5,0-66.5,0-50.9-20.6-67.5-33-66.5,8.9-80,0-18.1-22.7-37-23.3-9.2,7.7-25,0-19.8-18.3-29-31-37.2-10.2-42-17.9c-4.8-7.7-20.7-41.7-25.3-48.4-4.6-6.8-17.3-16.5-28.8-17.1s-22.4-27.8-29.6-36.6c-7.1-8.9-24.5-17.1-35.5-22.2-11-5-16.8-15.7-22.2-29-5.4-13.3-43.5-18.1-56.2-25.8-12.8-7.7-18.9-.6-33.2,0-14.3.6-16.6-6.5-26.5-6.5s-19.6,5.9-39.3,0h.3Z"/>
    </g>
  </g>
</svg>