<?xml version="1.0" encoding="UTF-8"?>
<svg id="Layer_1" data-name="Layer 1" xmlns="http://www.w3.org/2000/svg" xmlns:xlink="http://www.w3.org/1999/xlink" version="1.1" viewBox="0 0 1920 894">
  <defs>
    <style>
      .cls-1 {
        fill: #49a8a4;
      }

      .cls-1, .cls-2, .cls-3, .cls-4, .cls-5, .cls-6, .cls-7, .cls-8, .cls-9, .cls-10, .cls-11, .cls-12, .cls-13, .cls-14, .cls-15, .cls-16, .cls-17, .cls-18, .cls-19, .cls-20, .cls-21, .cls-22, .cls-23, .cls-24, .cls-25, .cls-26, .cls-27, .cls-28, .cls-29, .cls-30 {
        stroke-width: 0px;
      }

      .cls-31 {
        clip-path: url(#clippath);
      }

      .cls-2 {
        fill: none;
      }

      .cls-3 {
        fill: #90d7d4;
      }

      .cls-4 {
        fill: url(#linear-gradient);
        fill-opacity: .2;
      }

      .cls-5 {
        fill: url(#linear-gradient-11);
      }

      .cls-6 {
        fill: url(#linear-gradient-12);
      }

      .cls-7 {
        fill: url(#linear-gradient-13);
      }

      .cls-8 {
        fill: url(#linear-gradient-10);
      }

      .cls-9 {
        fill: url(#radial-gradient);
      }

      .cls-9, .cls-19, .cls-20, .cls-21, .cls-23, .cls-24, .cls-25, .cls-26, .cls-27, .cls-28, .cls-29, .cls-30 {
        fill-opacity: .5;
      }

      .cls-10 {
        fill: #7fc6c3;
      }

      .cls-11 {
        fill: url(#linear-gradient-4);
      }

      .cls-12 {
        fill: url(#linear-gradient-2);
      }

      .cls-13 {
        fill: url(#linear-gradient-3);
      }

      .cls-14 {
        fill: url(#linear-gradient-8);
      }

      .cls-15 {
        fill: url(#linear-gradient-9);
      }

      .cls-16 {
        fill: url(#linear-gradient-7);
      }

      .cls-17 {
        fill: url(#linear-gradient-5);
      }

      .cls-18 {
        fill: url(#linear-gradient-6);
      }

      .cls-19 {
        fill: url(#radial-gradient-12);
      }

      .cls-20 {
        fill: url(#radial-gradient-10);
      }

      .cls-21 {
        fill: url(#radial-gradient-11);
      }

      .cls-22 {
        fill: #1b4965;
      }

      .cls-23 {
        fill: url(#radial-gradient-7);
      }

      .cls-24 {
        fill: url(#radial-gradient-2);
      }

      .cls-25 {
        fill: url(#radial-gradient-5);
      }

      .cls-26 {
        fill: url(#radial-gradient-6);
      }

      .cls-27 {
        fill: url(#radial-gradient-4);
      }

      .cls-28 {
        fill: url(#radial-gradient-3);
      }

      .cls-29 {
        fill: url(#radial-gradient-8);
      }

      .cls-30 {
        fill: url(#radial-gradient-9);
      }
    </style>
    <clipPath id="clippath">
      <rect class="cls-2" width="1920" height="894"/>
    </clipPath>
    <linearGradient id="linear-gradient" x1="949.5" y1="-853.7" x2="949.5" y2="-1134" gradientTransform="translate(0 -208) scale(1 -1)" gradientUnits="userSpaceOnUse">
      <stop offset="0" stop-color="#a8d5e2"/>
      <stop offset=".7" stop-color="#a8d5e2" stop-opacity="0"/>
    </linearGradient>
    <linearGradient id="linear-gradient-2" x1="1279.3" y1="-785.9" x2="1279.3" y2="-766" gradientTransform="translate(0 -208) scale(1 -1)" gradientUnits="userSpaceOnUse">
      <stop offset="0" stop-color="#36938f"/>
      <stop offset="1" stop-color="#36938f" stop-opacity="0"/>
    </linearGradient>
    <linearGradient id="linear-gradient-3" x1="1248.9" y1="-789.9" x2="1241" y2="-775.2" gradientTransform="translate(0 -208) scale(1 -1)" gradientUnits="userSpaceOnUse">
      <stop offset="0" stop-color="#36938f"/>
      <stop offset="1" stop-color="#36938f" stop-opacity="0"/>
    </linearGradient>
    <linearGradient id="linear-gradient-4" x1="1265.3" y1="-790.3" x2="1265.3" y2="-759.1" gradientTransform="translate(0 -208) scale(1 -1)" gradientUnits="userSpaceOnUse">
      <stop offset="0" stop-color="#36938f"/>
      <stop offset="1" stop-color="#36938f" stop-opacity="0"/>
    </linearGradient>
    <linearGradient id="linear-gradient-5" x1="1256.7" y1="-784.1" x2="1250.7" y2="-761.5" gradientTransform="translate(0 -208) scale(1 -1)" gradientUnits="userSpaceOnUse">
      <stop offset="0" stop-color="#36938f"/>
      <stop offset="1" stop-color="#36938f" stop-opacity="0"/>
    </linearGradient>
    <linearGradient id="linear-gradient-6" x1="1259.9" y1="-792.8" x2="1251.7" y2="-782.5" gradientTransform="translate(0 -208) scale(1 -1)" gradientUnits="userSpaceOnUse">
      <stop offset="0" stop-color="#81c1be"/>
      <stop offset="1" stop-color="#83c4c1" stop-opacity="0"/>
    </linearGradient>
    <linearGradient id="linear-gradient-7" x1="1268.8" y1="-790.7" x2="1268.8" y2="-781" gradientTransform="translate(0 -208) scale(1 -1)" gradientUnits="userSpaceOnUse">
      <stop offset="0" stop-color="#83c4c1"/>
      <stop offset="1" stop-color="#83c4c1" stop-opacity="0"/>
    </linearGradient>
    <radialGradient id="radial-gradient" cx="-1240" cy="1121.1" fx="-1240" fy="1121.1" r=".7" gradientTransform="translate(-2468.1 7342.9) rotate(-179) scale(3 6.1) skewX(1.7)" gradientUnits="userSpaceOnUse">
      <stop offset="0" stop-color="#217975"/>
      <stop offset="1" stop-color="#217975" stop-opacity="0"/>
    </radialGradient>
    <radialGradient id="radial-gradient-2" cx="-657.9" cy="1312" fx="-657.9" fy="1312" r=".8" gradientTransform="translate(7509 1823.3) rotate(86.4) scale(2.3 4.7) skewX(-2.4)" gradientUnits="userSpaceOnUse">
      <stop offset="0" stop-color="#217975"/>
      <stop offset="1" stop-color="#217975" stop-opacity="0"/>
    </radialGradient>
    <radialGradient id="radial-gradient-3" cx="-620.7" cy="1448.6" fx="-620.7" fy="1448.6" r=".8" gradientTransform="translate(8198.4 1234.5) rotate(82.3) scale(2.3 4.7) skewX(-2.9)" gradientUnits="userSpaceOnUse">
      <stop offset="0" stop-color="#217975"/>
      <stop offset="1" stop-color="#217975" stop-opacity="0"/>
    </radialGradient>
    <radialGradient id="radial-gradient-4" cx="-2320.1" cy="1796.9" fx="-2320.1" fy="1796.9" r=".8" gradientTransform="translate(5868.4 -8899.6) rotate(-1.3) scale(2.1 5.2) skewX(1.1)" gradientUnits="userSpaceOnUse">
      <stop offset="0" stop-color="#217975"/>
      <stop offset="1" stop-color="#217975" stop-opacity="0"/>
    </radialGradient>
    <radialGradient id="radial-gradient-5" cx="-894.1" cy="1181.1" fx="-894.1" fy="1181.1" r=".7" gradientTransform="translate(8194.7 2838.3) rotate(91) scale(2.4 5.9) skewX(-.5)" gradientUnits="userSpaceOnUse">
      <stop offset="0" stop-color="#217975"/>
      <stop offset="1" stop-color="#217975" stop-opacity="0"/>
    </radialGradient>
    <radialGradient id="radial-gradient-6" cx="-527.7" cy="1248.8" fx="-527.7" fy="1248.8" r=".8" gradientTransform="translate(7444.2 1019.5) rotate(84.4) scale(1.9 4.9) skewX(-1.7)" gradientUnits="userSpaceOnUse">
      <stop offset="0" stop-color="#217975"/>
      <stop offset="1" stop-color="#217975" stop-opacity="0"/>
    </radialGradient>
    <linearGradient id="linear-gradient-8" x1="1770.3" y1="-467.9" x2="1770.3" y2="-448" gradientTransform="translate(0 -208) scale(1 -1)" gradientUnits="userSpaceOnUse">
      <stop offset="0" stop-color="#36938f"/>
      <stop offset="1" stop-color="#36938f" stop-opacity="0"/>
    </linearGradient>
    <linearGradient id="linear-gradient-9" x1="1739.9" y1="-471.9" x2="1732" y2="-457.2" gradientTransform="translate(0 -208) scale(1 -1)" gradientUnits="userSpaceOnUse">
      <stop offset="0" stop-color="#36938f"/>
      <stop offset="1" stop-color="#36938f" stop-opacity="0"/>
    </linearGradient>
    <linearGradient id="linear-gradient-10" x1="1756.3" y1="-472.3" x2="1756.3" y2="-441.1" gradientTransform="translate(0 -208) scale(1 -1)" gradientUnits="userSpaceOnUse">
      <stop offset="0" stop-color="#36938f"/>
      <stop offset="1" stop-color="#36938f" stop-opacity="0"/>
    </linearGradient>
    <linearGradient id="linear-gradient-11" x1="1747.7" y1="-466.1" x2="1741.7" y2="-443.5" gradientTransform="translate(0 -208) scale(1 -1)" gradientUnits="userSpaceOnUse">
      <stop offset="0" stop-color="#36938f"/>
      <stop offset="1" stop-color="#36938f" stop-opacity="0"/>
    </linearGradient>
    <linearGradient id="linear-gradient-12" x1="1750.9" y1="-474.8" x2="1742.7" y2="-464.5" gradientTransform="translate(0 -208) scale(1 -1)" gradientUnits="userSpaceOnUse">
      <stop offset="0" stop-color="#81c1be"/>
      <stop offset="1" stop-color="#83c4c1" stop-opacity="0"/>
    </linearGradient>
    <linearGradient id="linear-gradient-13" x1="1759.8" y1="-472.7" x2="1759.8" y2="-463" gradientTransform="translate(0 -208) scale(1 -1)" gradientUnits="userSpaceOnUse">
      <stop offset="0" stop-color="#83c4c1"/>
      <stop offset="1" stop-color="#83c4c1" stop-opacity="0"/>
    </linearGradient>
    <radialGradient id="radial-gradient-7" cx="-1240" cy="1121.1" fx="-1240" fy="1121.1" r=".7" gradientTransform="translate(-1976.9 7024.8) rotate(-179) scale(3 6.1) skewX(1.7)" gradientUnits="userSpaceOnUse">
      <stop offset="0" stop-color="#217975"/>
      <stop offset="1" stop-color="#217975" stop-opacity="0"/>
    </radialGradient>
    <radialGradient id="radial-gradient-8" cx="-657.9" cy="1312" fx="-657.9" fy="1312" r=".8" gradientTransform="translate(8000.3 1505.7) rotate(86.4) scale(2.3 4.7) skewX(-2.4)" gradientUnits="userSpaceOnUse">
      <stop offset="0" stop-color="#217975"/>
      <stop offset="1" stop-color="#217975" stop-opacity="0"/>
    </radialGradient>
    <radialGradient id="radial-gradient-9" cx="-620.7" cy="1448.6" fx="-620.7" fy="1448.6" r=".8" gradientTransform="translate(8689.7 916.6) rotate(82.3) scale(2.3 4.7) skewX(-2.9)" gradientUnits="userSpaceOnUse">
      <stop offset="0" stop-color="#217975"/>
      <stop offset="1" stop-color="#217975" stop-opacity="0"/>
    </radialGradient>
    <radialGradient id="radial-gradient-10" cx="-2320.1" cy="1796.9" fx="-2320.1" fy="1796.9" r=".8" gradientTransform="translate(6359.4 -9217.6) rotate(-1.3) scale(2.1 5.2) skewX(1.1)" gradientUnits="userSpaceOnUse">
      <stop offset="0" stop-color="#217975"/>
      <stop offset="1" stop-color="#217975" stop-opacity="0"/>
    </radialGradient>
    <radialGradient id="radial-gradient-11" cx="-894.1" cy="1181.1" fx="-894.1" fy="1181.1" r=".7" gradientTransform="translate(8685.5 2520) rotate(91) scale(2.4 5.9) skewX(-.5)" gradientUnits="userSpaceOnUse">
      <stop offset="0" stop-color="#217975"/>
      <stop offset="1" stop-color="#217975" stop-opacity="0"/>
    </radialGradient>
    <radialGradient id="radial-gradient-12" cx="-527.7" cy="1248.8" fx="-527.7" fy="1248.8" r=".8" gradientTransform="translate(7935.2 701.5) rotate(84.4) scale(1.9 4.9) skewX(-1.7)" gradientUnits="userSpaceOnUse">
      <stop offset="0" stop-color="#217975"/>
      <stop offset="1" stop-color="#217975" stop-opacity="0"/>
    </radialGradient>
  </defs>
  <g class="cls-31">
    <g>
      <path class="cls-22" d="M1893,221.8c13.6-1.6,72.3,18.5,100,28.8v675.4H-94V235.9c21.3-.7,69.3-1.6,91.3,0,27.5,2,23.3,24.3,53.2,24.3s25.4,24.3,44.4,38.7c19,14.4,19,16.2,40.5,30.4,21.4,14.2,4.2,26.3,12.7,38.4s19,14.2,36,34.7c13.5,16.4,31.2,44.6,38.4,56.7,5.6,10.2,20.3,32.6,33.9,40.7,13.5,8.1,23.8,52.2,28.7,63,29,38.6,106.2,92.9,170.8,83.2,80.7-12.1,125.4-4,163.5,0s70.1,12.1,133.9,26.3c63.8,14.2,99.7,10.1,137.8,10.1s116.7-10.1,150.8-24.3c21.8-9,35.9-32.9,62.7-49.6,19.5-7,64.2-17.7,85-25,57.4-20.2,51.8-10.6,126.2-20.7,36.5-5,77.8-7.3,112.3-13.3,39,0,70.2-3.4,86.5-6.5,32-6.1,101.4-54.7,116.5-81,25.5-20,19-49.1,27.5-69.5,21.5-22,18.3-27.3,31-41.5,10.2-11.3,6.8-23.8,10.3-25.8,11.2-14.7,20.7-23.1,36-50.8,19.1-34.7,49-36.4,80.7-52.6,31.8-16.2,59.5,2,76.5,0h0Z"/>
      <path class="cls-4" d="M1893,221.8c13.6-1.6,72.3,18.5,100,28.8v675.4H-94V235.9c21.3-.7,69.3-1.6,91.3,0,27.5,2,23.3,24.3,53.2,24.3s25.4,24.3,44.4,38.7c19,14.4,19,16.2,40.5,30.4,21.4,14.2,4.2,26.3,12.7,38.4s19,14.2,36,34.7c13.5,16.4,31.2,44.6,38.4,56.7,5.6,10.2,20.3,32.6,33.9,40.7,13.5,8.1,23.8,52.2,28.7,63,29,38.6,106.2,92.9,170.8,83.2,80.7-12.1,125.4-4,163.5,0s70.1,12.1,133.9,26.3c63.8,14.2,99.7,10.1,137.8,10.1s116.7-10.1,150.8-24.3c21.8-9,35.9-32.9,62.7-49.6,19.5-7,64.2-17.7,85-25,57.4-20.2,51.8-10.6,126.2-20.7,36.5-5,77.8-7.3,112.3-13.3,39,0,70.2-3.4,86.5-6.5,32-6.1,101.4-54.7,116.5-81,25.5-20,19-49.1,27.5-69.5,21.5-22,18.3-27.3,31-41.5,10.2-11.3,6.8-23.8,10.3-25.8,11.2-14.7,20.7-23.1,36-50.8,19.1-34.7,49-36.4,80.7-52.6,31.8-16.2,59.5,2,76.5,0h0Z"/>
      <path class="cls-10" d="M1273.4,564.7c1.3,9.1-3.1,18.4,0,18.4s10.1-9,10.1-18,7.1-15.1-1.5-16.6-8.7,7.2-8.7,16.1h0Z"/>
      <path class="cls-12" d="M1273.4,564.7c1.3,9.1-3.1,18.4,0,18.4s10.1-9,10.1-18,7.1-15.1-1.5-16.6-8.7,7.2-8.7,16.1h0Z"/>
      <path class="cls-10" d="M1250.9,573.1c2.9,8.8,11.1,15.2,8.2,16.5-2.8,1.3-13.1-3.8-17.2-11.8-4-8.1-13.2-10.5-6.1-15.5s11,2.8,15,10.8h0Z"/>
      <path class="cls-13" d="M1250.9,573.1c2.9,8.8,11.1,15.2,8.2,16.5-2.8,1.3-13.1-3.8-17.2-11.8-4-8.1-13.2-10.5-6.1-15.5s11,2.8,15,10.8h0Z"/>
      <path class="cls-10" d="M1259.5,564.9c0,11,2.6,19.9,5.9,19.9s5.9-8.9,5.9-19.9,2.5-19.9-6.1-19.9-5.7,8.9-5.7,19.9h0Z"/>
      <path class="cls-11" d="M1259.5,564.9c0,11,2.6,19.9,5.9,19.9s5.9-8.9,5.9-19.9,2.5-19.9-6.1-19.9-5.7,8.9-5.7,19.9h0Z"/>
      <path class="cls-10" d="M1248.6,566.9c3,10.4,7.9,18.2,11,17.3,3.1-.8,3.2-10,.2-20.4s-3.5-18.9-11.4-16.8c-7.9,2.1-2.9,9.4,0,19.8h.2Z"/>
      <path class="cls-17" d="M1248.6,566.9c3,10.4,7.9,18.2,11,17.3,3.1-.8,3.2-10,.2-20.4s-3.5-18.9-11.4-16.8c-7.9,2.1-2.9,9.4,0,19.8h.2Z"/>
      <path class="cls-3" d="M1251.4,583.3c2.9,5.2,7.5,8.5,10.3,7s2.8-7-.2-12.2-5.8-9.1-10.5-6.8c-4.7,2.4-2.6,6.8.4,12h0Z"/>
      <path class="cls-18" d="M1251.4,583.3c2.9,5.2,7.5,8.5,10.3,7s2.8-7-.2-12.2-5.8-9.1-10.5-6.8c-4.7,2.4-2.6,6.8.4,12h0Z"/>
      <path class="cls-3" d="M1262.5,576.8c0,6.8-1.7,12.9,5.9,12.9s6.8-5.2,6.8-11.9.6-10.2-3.8-11.9c-6.4-2.5-8.8,4.2-8.8,11h0Z"/>
      <path class="cls-16" d="M1262.5,576.8c0,6.8-1.7,12.9,5.9,12.9s6.8-5.2,6.8-11.9.6-10.2-3.8-11.9c-6.4-2.5-8.8,4.2-8.8,11h0Z"/>
      <ellipse class="cls-1" cx="1270.7" cy="568.2" rx="2.1" ry="4.3" transform="translate(372.4 1631.5) rotate(-73.9)"/>
      <ellipse class="cls-9" cx="1270.7" cy="568.2" rx="2.1" ry="4.3" transform="translate(372.4 1631.5) rotate(-73.9)"/>
      <ellipse class="cls-1" cx="1251.9" cy="574.1" rx="3.6" ry="1.8" transform="translate(-125.3 587.7) rotate(-25.2)"/>
      <ellipse class="cls-24" cx="1251.9" cy="574.1" rx="3.6" ry="1.8" transform="translate(-125.3 587.7) rotate(-25.2)"/>
      <ellipse class="cls-1" cx="1237.2" cy="564.5" rx="3.7" ry="1.8" transform="translate(-92.1 851.3) rotate(-36.7)"/>
      <ellipse class="cls-28" cx="1237.2" cy="564.5" rx="3.7" ry="1.8" transform="translate(-92.1 851.3) rotate(-36.7)"/>
      <ellipse class="cls-1" cx="1281.8" cy="550.7" rx="1.8" ry="4.3" transform="translate(558.1 1743.4) rotate(-82)"/>
      <ellipse class="cls-27" cx="1281.8" cy="550.7" rx="1.8" ry="4.3" transform="translate(558.1 1743.4) rotate(-82)"/>
      <ellipse class="cls-1" cx="1265.2" cy="546.5" rx="4.3" ry="1.8" transform="translate(-31 78.3) rotate(-3.5)"/>
      <ellipse class="cls-25" cx="1265.2" cy="546.5" rx="4.3" ry="1.8" transform="translate(-31 78.3) rotate(-3.5)"/>
      <ellipse class="cls-1" cx="1249.2" cy="548.8" rx="4.1" ry="1.6" transform="translate(-89.2 283.4) rotate(-12.5)"/>
      <ellipse class="cls-26" cx="1249.2" cy="548.8" rx="4.1" ry="1.6" transform="translate(-89.2 283.4) rotate(-12.5)"/>
      <path class="cls-10" d="M1764.4,246.7c1.3,9.1-3.1,18.4,0,18.4s10.1-9,10.1-18,7.1-15.1-1.5-16.6-8.7,7.2-8.7,16.1h0Z"/>
      <path class="cls-14" d="M1764.4,246.7c1.3,9.1-3.1,18.4,0,18.4s10.1-9,10.1-18,7.1-15.1-1.5-16.6-8.7,7.2-8.7,16.1h0Z"/>
      <path class="cls-10" d="M1741.9,255.1c2.9,8.8,11.1,15.2,8.2,16.5-2.8,1.3-13.1-3.8-17.2-11.8-4-8.1-13.2-10.5-6.1-15.5s11,2.8,15,10.8h0Z"/>
      <path class="cls-15" d="M1741.9,255.1c2.9,8.8,11.1,15.2,8.2,16.5-2.8,1.3-13.1-3.8-17.2-11.8-4-8.1-13.2-10.5-6.1-15.5s11,2.8,15,10.8h0Z"/>
      <path class="cls-10" d="M1750.5,246.9c0,11,2.6,19.9,5.9,19.9s5.9-8.9,5.9-19.9,2.5-19.9-6.1-19.9-5.7,8.9-5.7,19.9h0Z"/>
      <path class="cls-8" d="M1750.5,246.9c0,11,2.6,19.9,5.9,19.9s5.9-8.9,5.9-19.9,2.5-19.9-6.1-19.9-5.7,8.9-5.7,19.9h0Z"/>
      <path class="cls-10" d="M1739.6,248.9c3,10.4,7.9,18.2,11,17.3,3.1-.8,3.2-10,.2-20.4s-3.5-18.9-11.4-16.8c-7.9,2.1-2.9,9.4,0,19.8h.2Z"/>
      <path class="cls-5" d="M1739.6,248.9c3,10.4,7.9,18.2,11,17.3,3.1-.8,3.2-10,.2-20.4s-3.5-18.9-11.4-16.8c-7.9,2.1-2.9,9.4,0,19.8h.2Z"/>
      <path class="cls-3" d="M1742.4,265.3c2.9,5.2,7.5,8.5,10.3,7s2.8-7-.2-12.2c-3-5.2-5.8-9.1-10.5-6.8-4.7,2.4-2.6,6.8.4,12h0Z"/>
      <path class="cls-6" d="M1742.4,265.3c2.9,5.2,7.5,8.5,10.3,7s2.8-7-.2-12.2c-3-5.2-5.8-9.1-10.5-6.8-4.7,2.4-2.6,6.8.4,12h0Z"/>
      <path class="cls-3" d="M1753.5,258.8c0,6.8-1.7,12.9,5.9,12.9s6.8-5.2,6.8-11.9.6-10.2-3.8-11.9c-6.4-2.5-8.8,4.2-8.8,11h0Z"/>
      <path class="cls-7" d="M1753.5,258.8c0,6.8-1.7,12.9,5.9,12.9s6.8-5.2,6.8-11.9.6-10.2-3.8-11.9c-6.4-2.5-8.8,4.2-8.8,11h0Z"/>
      <ellipse class="cls-1" cx="1761.9" cy="250.2" rx="2.1" ry="4.3" transform="translate(1032.9 1873.6) rotate(-73.9)"/>
      <ellipse class="cls-23" cx="1761.9" cy="250.2" rx="2.1" ry="4.3" transform="translate(1032.9 1873.6) rotate(-73.9)"/>
      <ellipse class="cls-1" cx="1743.3" cy="256.4" rx="3.6" ry="1.8" transform="translate(56.7 766.6) rotate(-25.2)"/>
      <ellipse class="cls-29" cx="1743.3" cy="256.4" rx="3.6" ry="1.8" transform="translate(56.7 766.6) rotate(-25.2)"/>
      <ellipse class="cls-1" cx="1728.5" cy="246.6" rx="3.7" ry="1.8" transform="translate(195.3 1081.9) rotate(-36.7)"/>
      <ellipse class="cls-30" cx="1728.5" cy="246.6" rx="3.7" ry="1.8" transform="translate(195.3 1081.9) rotate(-36.7)"/>
      <ellipse class="cls-1" cx="1772.9" cy="232.7" rx="1.8" ry="4.3" transform="translate(1295.7 1956) rotate(-82)"/>
      <ellipse class="cls-20" cx="1772.9" cy="232.7" rx="1.8" ry="4.3" transform="translate(1295.7 1956) rotate(-82)"/>
      <ellipse class="cls-1" cx="1756" cy="228.3" rx="4.3" ry="1.8" transform="translate(-10.7 107.6) rotate(-3.5)"/>
      <ellipse class="cls-21" cx="1756" cy="228.3" rx="4.3" ry="1.8" transform="translate(-10.7 107.6) rotate(-3.5)"/>
      <ellipse class="cls-1" cx="1740.2" cy="230.9" rx="4.1" ry="1.6" transform="translate(-8.7 382.1) rotate(-12.5)"/>
      <ellipse class="cls-19" cx="1740.2" cy="230.9" rx="4.1" ry="1.6" transform="translate(-8.7 382.1) rotate(-12.5)"/>
    </g>
  </g>
</svg>