<?xml version="1.0" encoding="UTF-8"?>
<svg id="Layer_1" data-name="Layer 1" xmlns="http://www.w3.org/2000/svg" xmlns:xlink="http://www.w3.org/1999/xlink" version="1.1" viewBox="0 0 761 548">
  <defs>
    <style>
      .cls-1 {
        stroke: #5a5252;
      }

      .cls-1, .cls-2, .cls-3, .cls-4 {
        stroke-width: 1.6px;
      }

      .cls-1, .cls-5, .cls-4 {
        fill: none;
      }

      .cls-6 {
        fill: #1ea6a3;
      }

      .cls-6, .cls-5, .cls-7, .cls-8, .cls-9, .cls-10, .cls-11, .cls-12, .cls-13, .cls-14, .cls-15, .cls-16, .cls-17, .cls-18, .cls-19, .cls-20, .cls-21, .cls-22, .cls-23, .cls-24, .cls-25, .cls-26, .cls-27, .cls-28, .cls-29, .cls-30, .cls-31, .cls-32, .cls-33, .cls-34, .cls-35, .cls-36, .cls-37, .cls-38, .cls-39, .cls-40, .cls-41, .cls-42, .cls-43, .cls-44, .cls-45, .cls-46, .cls-47, .cls-48 {
        stroke-width: 0px;
      }

      .cls-2 {
        fill: #554040;
      }

      .cls-2, .cls-3 {
        stroke: #ca9d9d;
      }

      .cls-49 {
        mask: url(#mask);
      }

      .cls-7 {
        fill: url(#linear-gradient);
      }

      .cls-8 {
        fill: #159895;
      }

      .cls-9 {
        fill: #61390a;
      }

      .cls-10 {
        fill: url(#linear-gradient-11);
      }

      .cls-11 {
        fill: url(#linear-gradient-10);
      }

      .cls-12 {
        fill: url(#linear-gradient-19);
      }

      .cls-13 {
        fill: #2a561f;
      }

      .cls-14 {
        fill: #60491c;
      }

      .cls-15 {
        fill: #694b11;
      }

      .cls-16 {
        fill: #826467;
      }

      .cls-17, .cls-19, .cls-20, .cls-21, .cls-22, .cls-23, .cls-24 {
        fill-rule: evenodd;
      }

      .cls-17, .cls-29 {
        fill: #1b4965;
      }

      .cls-3, .cls-18 {
        fill: #634040;
      }

      .cls-4 {
        stroke: url(#linear-gradient-18);
      }

      .cls-19 {
        fill: url(#linear-gradient-14);
      }

      .cls-20 {
        fill: url(#linear-gradient-13);
      }

      .cls-21 {
        fill: url(#linear-gradient-12);
      }

      .cls-22 {
        fill: url(#linear-gradient-15);
      }

      .cls-23 {
        fill: url(#linear-gradient-16);
      }

      .cls-24 {
        fill: url(#linear-gradient-17);
      }

      .cls-50 {
        opacity: .2;
      }

      .cls-51 {
        opacity: .5;
      }

      .cls-52 {
        opacity: .8;
      }

      .cls-25 {
        fill: url(#linear-gradient-2);
      }

      .cls-26 {
        fill: url(#linear-gradient-9);
      }

      .cls-27 {
        fill: #885d1e;
      }

      .cls-28 {
        fill: #ca9d9d;
      }

      .cls-53 {
        mask: url(#mask-3);
      }

      .cls-54 {
        mask: url(#mask-2);
      }

      .cls-55 {
        mask: url(#mask-5);
      }

      .cls-56 {
        mask: url(#mask-4);
      }

      .cls-57 {
        mask: url(#mask-1);
      }

      .cls-30 {
        fill: #3f344e;
      }

      .cls-31 {
        fill: url(#linear-gradient-7);
      }

      .cls-31, .cls-32, .cls-33, .cls-34, .cls-35, .cls-36, .cls-37, .cls-38, .cls-39, .cls-40, .cls-41, .cls-42, .cls-43, .cls-44, .cls-45, .cls-46, .cls-47, .cls-48 {
        fill-opacity: .5;
      }

      .cls-32 {
        fill: url(#linear-gradient-5);
      }

      .cls-33 {
        fill: url(#linear-gradient-4);
      }

      .cls-34 {
        fill: url(#linear-gradient-6);
      }

      .cls-35 {
        fill: url(#linear-gradient-3);
      }

      .cls-36 {
        fill: url(#linear-gradient-8);
      }

      .cls-37 {
        fill: url(#linear-gradient-25);
      }

      .cls-38 {
        fill: url(#linear-gradient-30);
      }

      .cls-39 {
        fill: url(#linear-gradient-29);
      }

      .cls-40 {
        fill: url(#linear-gradient-28);
      }

      .cls-41 {
        fill: url(#linear-gradient-31);
      }

      .cls-42 {
        fill: url(#linear-gradient-24);
      }

      .cls-43 {
        fill: url(#linear-gradient-27);
      }

      .cls-44 {
        fill: url(#linear-gradient-26);
      }

      .cls-45 {
        fill: url(#linear-gradient-21);
      }

      .cls-46 {
        fill: url(#linear-gradient-22);
      }

      .cls-47 {
        fill: url(#linear-gradient-23);
      }

      .cls-48 {
        fill: url(#linear-gradient-20);
      }
    </style>
    <linearGradient id="linear-gradient" x1="248.3" y1="708.7" x2="350.5" y2="378.4" gradientTransform="translate(0 756) scale(1 -1)" gradientUnits="userSpaceOnUse">
      <stop offset="0" stop-color="#ffa077"/>
      <stop offset="1" stop-color="#23375a"/>
    </linearGradient>
    <linearGradient id="linear-gradient-2" x1="475.4" y1="752.1" x2="504.6" y2="340.1" gradientTransform="translate(0 756) scale(1 -1)" gradientUnits="userSpaceOnUse">
      <stop offset="0" stop-color="#be966d"/>
      <stop offset="1" stop-color="#23375a"/>
    </linearGradient>
    <linearGradient id="linear-gradient-3" x1="329.1" y1="339.1" x2="323.9" y2="361.8" gradientTransform="translate(0 756) scale(1 -1)" gradientUnits="userSpaceOnUse">
      <stop offset="0" stop-color="#056b69"/>
      <stop offset="1" stop-color="#056b69" stop-opacity="0"/>
    </linearGradient>
    <linearGradient id="linear-gradient-4" x1="322" y1="336.4" x2="316.6" y2="360.4" gradientTransform="translate(0 756) scale(1 -1)" gradientUnits="userSpaceOnUse">
      <stop offset="0" stop-color="#056b69"/>
      <stop offset="1" stop-color="#056b69" stop-opacity="0"/>
    </linearGradient>
    <linearGradient id="linear-gradient-5" x1="309.5" y1="342.6" x2="306.8" y2="354.3" gradientTransform="translate(0 756) scale(1 -1)" gradientUnits="userSpaceOnUse">
      <stop offset="0" stop-color="#056b69"/>
      <stop offset="1" stop-color="#056b69" stop-opacity="0"/>
    </linearGradient>
    <linearGradient id="linear-gradient-6" x1="315.7" y1="335" x2="309.1" y2="365.4" gradientTransform="translate(0 756) scale(1 -1)" gradientUnits="userSpaceOnUse">
      <stop offset="0" stop-color="#056b69"/>
      <stop offset="1" stop-color="#056b69" stop-opacity="0"/>
    </linearGradient>
    <linearGradient id="linear-gradient-7" x1="307" y1="333.1" x2="302.8" y2="351.8" gradientTransform="translate(0 756) scale(1 -1)" gradientUnits="userSpaceOnUse">
      <stop offset="0" stop-color="#056b69"/>
      <stop offset="1" stop-color="#056b69" stop-opacity="0"/>
    </linearGradient>
    <linearGradient id="linear-gradient-8" x1="327.3" y1="339.1" x2="324.4" y2="352" gradientTransform="translate(0 756) scale(1 -1)" gradientUnits="userSpaceOnUse">
      <stop offset="0" stop-color="#056b69"/>
      <stop offset="1" stop-color="#056b69" stop-opacity="0"/>
    </linearGradient>
    <linearGradient id="linear-gradient-9" x1="279.8" y1="378.9" x2="281" y2="362.9" gradientTransform="translate(0 756) scale(1 -1)" gradientUnits="userSpaceOnUse">
      <stop offset="0" stop-color="#82596a"/>
      <stop offset="1" stop-color="#98606a"/>
    </linearGradient>
    <linearGradient id="linear-gradient-10" x1="232.6" y1="360.4" x2="335.2" y2="305.7" gradientTransform="translate(0 756) scale(1 -1)" gradientUnits="userSpaceOnUse">
      <stop offset="0" stop-color="#603c3c"/>
      <stop offset="1" stop-color="#3f4f6b"/>
    </linearGradient>
    <linearGradient id="linear-gradient-11" x1="358.8" y1="368.6" x2="409.4" y2="314.6" gradientTransform="translate(0 756) scale(1 -1)" gradientUnits="userSpaceOnUse">
      <stop offset="0" stop-color="#5e3d3f"/>
      <stop offset="1" stop-color="#33425c"/>
    </linearGradient>
    <linearGradient id="linear-gradient-12" x1="400.9" y1="452.9" x2="644.7" y2="469.6" gradientTransform="translate(0 756) scale(1 -1)" gradientUnits="userSpaceOnUse">
      <stop offset="0" stop-color="#d8ddb9"/>
      <stop offset="1" stop-color="#dcd3f1"/>
    </linearGradient>
    <linearGradient id="linear-gradient-13" x1="120.7" y1="434" x2="781.7" y2="221" gradientTransform="translate(0 756) scale(1 -1)" gradientUnits="userSpaceOnUse">
      <stop offset="0" stop-color="#b56a6a"/>
      <stop offset="1" stop-color="#143268"/>
    </linearGradient>
    <linearGradient id="linear-gradient-14" x1="21" y1="403.2" x2="164.4" y2="281.1" gradientTransform="translate(0 756) scale(1 -1)" gradientUnits="userSpaceOnUse">
      <stop offset="0" stop-color="#d8ddb9"/>
      <stop offset="1" stop-color="#cbc6e7"/>
    </linearGradient>
    <linearGradient id="linear-gradient-15" x1="196.2" y1="628.7" x2="390.6" y2="530.9" gradientTransform="translate(0 756) scale(1 -1)" gradientUnits="userSpaceOnUse">
      <stop offset="0" stop-color="#d8ddb9"/>
      <stop offset="1" stop-color="#c2c0f1"/>
    </linearGradient>
    <linearGradient id="linear-gradient-16" x1="217.6" y1="504.5" x2="415.6" y2="401.7" gradientTransform="translate(0 756) scale(1 -1)" gradientUnits="userSpaceOnUse">
      <stop offset="0" stop-color="#d8ddb9"/>
      <stop offset="1" stop-color="#c5bfe2"/>
    </linearGradient>
    <linearGradient id="linear-gradient-17" x1="366.4" y1="563.8" x2="611.9" y2="629.6" gradientTransform="translate(0 756) scale(1 -1)" gradientUnits="userSpaceOnUse">
      <stop offset="0" stop-color="#d8ddb9"/>
      <stop offset="1" stop-color="#bfbae6"/>
    </linearGradient>
    <linearGradient id="linear-gradient-18" x1="456.2" y1="336.8" x2="467.1" y2="274.1" gradientTransform="translate(0 756) scale(1 -1)" gradientUnits="userSpaceOnUse">
      <stop offset="0" stop-color="#d5b6c3"/>
      <stop offset="1" stop-color="#805869"/>
    </linearGradient>
    <linearGradient id="linear-gradient-19" x1="202.6" y1="289.2" x2="689.9" y2="240.5" gradientTransform="translate(0 756) scale(1 -1)" gradientUnits="userSpaceOnUse">
      <stop offset="0" stop-color="#6b5050"/>
      <stop offset="0" stop-color="#6f4040"/>
      <stop offset="1" stop-color="#433960"/>
    </linearGradient>
    <linearGradient id="linear-gradient-20" x1="572.4" y1="349.4" x2="569.8" y2="361.7" gradientTransform="translate(0 756) scale(1 -1)" gradientUnits="userSpaceOnUse">
      <stop offset="0" stop-color="#056b69"/>
      <stop offset="1" stop-color="#056b69" stop-opacity="0"/>
    </linearGradient>
    <linearGradient id="linear-gradient-21" x1="567.1" y1="347.6" x2="564.2" y2="360.7" gradientTransform="translate(0 756) scale(1 -1)" gradientUnits="userSpaceOnUse">
      <stop offset="0" stop-color="#056b69"/>
      <stop offset="1" stop-color="#056b69" stop-opacity="0"/>
    </linearGradient>
    <linearGradient id="linear-gradient-22" x1="558" y1="350.5" x2="556.7" y2="356.9" gradientTransform="translate(0 756) scale(1 -1)" gradientUnits="userSpaceOnUse">
      <stop offset="0" stop-color="#056b69"/>
      <stop offset="1" stop-color="#056b69" stop-opacity="0"/>
    </linearGradient>
    <linearGradient id="linear-gradient-23" x1="562.4" y1="346.6" x2="558.9" y2="363.1" gradientTransform="translate(0 756) scale(1 -1)" gradientUnits="userSpaceOnUse">
      <stop offset="0" stop-color="#056b69"/>
      <stop offset="1" stop-color="#056b69" stop-opacity="0"/>
    </linearGradient>
    <linearGradient id="linear-gradient-24" x1="555.7" y1="345.2" x2="553.5" y2="355.4" gradientTransform="translate(0 756) scale(1 -1)" gradientUnits="userSpaceOnUse">
      <stop offset="0" stop-color="#056b69"/>
      <stop offset="1" stop-color="#056b69" stop-opacity="0"/>
    </linearGradient>
    <linearGradient id="linear-gradient-25" x1="571.1" y1="349.3" x2="569.6" y2="356.3" gradientTransform="translate(0 756) scale(1 -1)" gradientUnits="userSpaceOnUse">
      <stop offset="0" stop-color="#056b69"/>
      <stop offset="1" stop-color="#056b69" stop-opacity="0"/>
    </linearGradient>
    <linearGradient id="linear-gradient-26" x1="672.9" y1="410.4" x2="665.7" y2="426.5" gradientTransform="translate(0 756) scale(1 -1)" gradientUnits="userSpaceOnUse">
      <stop offset="0" stop-color="#056b69"/>
      <stop offset="1" stop-color="#056b69" stop-opacity="0"/>
    </linearGradient>
    <linearGradient id="linear-gradient-27" x1="668.4" y1="407.5" x2="660.7" y2="424.4" gradientTransform="translate(0 756) scale(1 -1)" gradientUnits="userSpaceOnUse">
      <stop offset="0" stop-color="#056b69"/>
      <stop offset="1" stop-color="#056b69" stop-opacity="0"/>
    </linearGradient>
    <linearGradient id="linear-gradient-28" x1="658.2" y1="410.1" x2="654.4" y2="418.4" gradientTransform="translate(0 756) scale(1 -1)" gradientUnits="userSpaceOnUse">
      <stop offset="0" stop-color="#056b69"/>
      <stop offset="1" stop-color="#056b69" stop-opacity="0"/>
    </linearGradient>
    <linearGradient id="linear-gradient-29" x1="663.6" y1="405.3" x2="654.1" y2="426.8" gradientTransform="translate(0 756) scale(1 -1)" gradientUnits="userSpaceOnUse">
      <stop offset="0" stop-color="#056b69"/>
      <stop offset="1" stop-color="#056b69" stop-opacity="0"/>
    </linearGradient>
    <linearGradient id="linear-gradient-30" x1="657.8" y1="402.7" x2="651.8" y2="416" gradientTransform="translate(0 756) scale(1 -1)" gradientUnits="userSpaceOnUse">
      <stop offset="0" stop-color="#056b69"/>
      <stop offset="1" stop-color="#056b69" stop-opacity="0"/>
    </linearGradient>
    <linearGradient id="linear-gradient-31" x1="671.9" y1="410.3" x2="667.8" y2="419.4" gradientTransform="translate(0 756) scale(1 -1)" gradientUnits="userSpaceOnUse">
      <stop offset="0" stop-color="#056b69"/>
      <stop offset="1" stop-color="#056b69" stop-opacity="0"/>
    </linearGradient>
    <mask id="mask" x="306.3" y="139.7" width="488.6" height="374.6" maskUnits="userSpaceOnUse">
      <g id="mask0_464_4331" data-name="mask0 464 4331">
        <path class="cls-17" d="M612.3,198.6s-24.6,43-18.1,78.3c6.5,35.4,23,79.5,23,79.5l-209.4,36.3s-23.9-27.9-24.8-57.4c-.9-29.5,10.7-50.5,10.7-50.5l218.7-86.3ZM520.8,301.8c.8,6.3,1.2,18.4-3.7,16.7-4.9-1.8-10.7-15.8-13-22.6,1,10.6,1.7,31.2-3.2,28.7-4.5-2.4-6.9-8-7.7-11.1,0-.3-.1-.5-.2-.8,0,.2.1.5.2.8,1.5,7.1.1,23.9-3.2,19.3.4,1.9,2.8,4.7,5.6,8.1,4.9,5.8,11,13.2,10.4,19.5,1-.8,1.8-3.9,2.8-7.4,1.3-4.7,2.8-10.1,4.9-11.1,4.7-2.3,5.7,3.3,6.2,12.5.3-.7.8-1.6,1.3-2.8,3.4-7,10.6-21.6,9-26.9-2.7,4.5-6.3-9.7-8.4-18.3-.5-1.8-.9-3.4-1.2-4.5Z"/>
      </g>
    </mask>
    <mask id="mask-1" x="26.2" y="219.6" width="869.2" height="638.6" maskUnits="userSpaceOnUse">
      <g id="mask1_464_4331" data-name="mask1 464 4331">
        <path class="cls-17" d="M550.5,396.9l-92.9,21.9c-.9,0-1.9,0-2.7,0l-32.8-36.6-90.2-9.3-7.9,45.8-36.2-.6-59.6-.3,2.7-24.8-5.3,1.7-5.9,24.6-193.3-4.7,3.5,3.8s154.2,42.4,165.3,51.5c3.9,3.2,8.2,12.1,13.4,22.7h0c9.3,19.2,21.4,44.1,39.2,52.4,27.8,12.8,441.8-30.8,462-55.5,20.3-24.7,23.8-35.7,22.6-45.1-1.1-8.3-13.1-37.8-15.6-43.9l11-10-15-60.3-40.8,9.2-121.7,45.4.4,12.1ZM338.4,381.5l-1.6,12.7,88,1.4-5.7-10.3-80.7-3.7ZM168.4,445.9l-21.1-2.5,1.7-7.3s3.3-3.8,11.1-3.5c7.8.3,9.5,6,9.5,6l-1.2,7.3ZM173.8,446.6l21.1,2.5,1.2-7.3s-1.6-5.7-9.5-6.1c-7.8-.3-11.1,3.5-11.1,3.5l-1.7,7.3Z"/>
      </g>
    </mask>
    <mask id="mask-2" x="-25.3" y="306.1" width="233.2" height="216.8" maskUnits="userSpaceOnUse">
      <g id="mask2_464_4331" data-name="mask2 464 4331">
        <path class="cls-17" d="M102.2,389.2c-1.3-27.2,26.6-56.1,26.6-56.1l-91.1,41.8s-21.8,24.4-22,48.1c-.2,23.8,12.2,47.1,12.2,47.1l31.3-7.7c-4.1-4-8.5-9.9-9.5-16.1,4.1,5.2,7.4,5.4,10.4,5.6,2.3.1,4.3.3,6.3,2.8-.6-1.5-1.5-3.5-2.5-5.9-3.6-8-8.7-19.4-6.7-24.1,4.5,6.9,10.1,9.5,15.6,12,4.3,2,8.6,3.9,12.2,7.9-.4-2.3-1.5-4.9-2.7-7.9-2.9-7.4-6.8-17.2-5.2-29.6,3.2,3.7,5.5,6.6,7.5,9,4.9,6.1,7.4,9.1,13.9,12.9-2.4-8.7,0-15.2,2-21.3,1.3-3.7,2.6-7.3,2.6-11.1-.5-2.5-.8-5-.9-7.4ZM87,398.8c-3.6-2.6-9.9-17.3-6.7-19.2,0,0,2.9,3.6,4.2,3.3,1.2-.3,2.5-3.9,2.5-3.9,1.8,3.3,5.4,10.1,6.8,13-.8-.7-1.5-1.4-2.2-2.2-1.4-1.5-2.8-2.9-4-3.1-1.1-.2.5,3.7,1.2,5.6.1.4.3.7.3.8-1.1-1-3.1.6-2,5.7Z"/>
      </g>
    </mask>
    <mask id="mask-3" x="129.2" y="45.2" width="278.1" height="255.2" maskUnits="userSpaceOnUse">
      <g id="mask3_464_4331" data-name="mask3 464 4331">
        <path class="cls-17" d="M332.7,51.7s-8.1,39.5,2.3,76.4c10.4,36.9,44.5,63.2,44.5,63.2l-170.3,86.9s-26.4-31.3-18.3-69.9c8.1-38.7,59.1-96,59.1-96l82.7-60.5ZM304,95.4c-1.8,20.5-6.2,58.8-9.9,47.5-3.7-11.3-6.7-29.2-7.7-36.8-.1,17.7-2,52.1-8.5,47.7-6.1-4.2-10.3-15.1-11.8-20.8,0-.3-.2-.6-.2-.9,0,.3.1.6.2.9,3.4,13.3,8.1,36.9,1.4,31.7-3.4-2.7-3,.2-2.5,3.3.5,3,1,6.2-2.3,4.1,5.6,7.8,17,21.6,20.6,11.3,3.6-10.3,2.1-19.3.6-22.3,3.9,6,12.7,17.5,17.3,15.3,5.8-2.8,4.3-24.1,3.4-28.4,2.1,3.3,14.6,14.1,14.8,8.3.1-4.7-10.1-42.5-15.3-60.8Z"/>
      </g>
    </mask>
    <mask id="mask-4" x="149.9" y="171.9" width="374.9" height="307.4" maskUnits="userSpaceOnUse">
      <g id="mask4_464_4331" data-name="mask4 464 4331">
        <path class="cls-17" d="M387.5,197.9s-18.9,52.9-12.4,88.2c6.5,35.4,41.1,67,41.1,67l-192.2,43.6s-28.3-32.9-28.1-56.7c.2-23.8,20.4-52.1,20.4-52.1l171.1-90.1ZM235.6,301.8l-5.4,14c-1.9-2-2.5-1.5-3-1.1-.5.4-1,.8-2.8-1.2-1.2,10.1,12,35.9,9.1,22.2-1.8-8.7-1-9.6-.6-9.9,0,0,.1-.1.1-.3,3.5,7.2,8.1,16.8,10.6,20.3,3.1,4.3.9-7.5-.6-14.7-.8-4,1.6-1.4,4.5,1.5,2.3,2.4,5,5.1,6.2,4.7,2.9-.9.2-29.2-.2-32.7-.1-1.1-.4,0-.8,2.3-.8,4.3-2.3,12.3-5.3,12.4-2.3.1-5.9-6.6-8.6-11.8-1.4-2.7-2.6-5-3.4-5.7Z"/>
      </g>
    </mask>
    <mask id="mask-5" x="313.5" y="27" width="307.8" height="270.4" maskUnits="userSpaceOnUse">
      <g id="mask5_464_4331" data-name="mask5 464 4331">
        <path class="cls-17" d="M531.2,54.2s-8.3,31.9,12.5,72.6c20.8,40.6,63.1,65.9,63.1,65.9l-218.7,87.6s-17.7-36.8-9.6-75.5c8.1-38.7,48.1-89.4,48.1-89.4l104.6-61.2ZM518.5,133.7c-1.2,14.5-4.2,42.6-6.5,38.7-2.4-3.9-18-31.4-25.5-44.7,2.2,15.2,5.2,44.1,0,37.8-5.3-6.3-9.1-18.6-10.3-23.9.9,11.2,2,33.4-.7,32.4s-7.4-11-9.4-15.8c-1.5,10.6-5.5,30.9-10.2,26.7-4.6-4.2-10.3-8.3-12.6-9.8,5,13.2,13.4,38.5,7.1,33.7-6.3-4.8-9.2-7.6-9.8-8.4,3.7,11.7,11.2,33.9,12,29.3,1-5.8,9.8-20.3,13.4-20.6,1.5-.1,5,2.8,8.6,5.9,4.8,4,9.8,8.2,10.7,5.7,1.6-4.4,8.1-20.7,13.5-22.6,2.2-.8,7,.9,12.1,2.7,7.2,2.6,15.3,5.5,18.5,2.1,4.3-4.6-5.5-48-10.9-69.1Z"/>
      </g>
    </mask>
  </defs>
  <path class="cls-7" d="M313.7,371.6l-20,1.4L289.1.1l24.6,371.5Z"/>
  <path class="cls-25" d="M499.5,416.2L467.1,4.5l45.8,410.7-13.5,1Z"/>
  <path class="cls-14" d="M206.7,420.4L.2,299.2l231.9,122-25.4-.9Z"/>
  <path class="cls-6" d="M318.7,397.6c-4.6,5.5-1.1,17.1,1.2,22.1l5.5-1.2c.6-3.8,1.6-12.6,1.4-14.6-.2-2.5-1.7-3.1-2.2-5.4-.5-2.4,3-6,4.3-8.3,1.3-2.3,2.5-7.6,2.8-8.8-.6,1.4-5.1,3.8-6.9,6.2-1.7,2.4-.4,3.1-6.1,10Z"/>
  <path class="cls-35" d="M318.7,397.6c-4.6,5.5-1.1,17.1,1.2,22.1l5.5-1.2c.6-3.8,1.6-12.6,1.4-14.6-.2-2.5-1.7-3.1-2.2-5.4-.5-2.4,3-6,4.3-8.3,1.3-2.3,2.5-7.6,2.8-8.8-.6,1.4-5.1,3.8-6.9,6.2-1.7,2.4-.4,3.1-6.1,10Z"/>
  <path class="cls-8" d="M330.1,385.4c.3-.3.3-.8,0-1.1-.3-.3-.8-.3-1.1,0l1.1,1.1ZM325.9,389.7l-.7-.3.7.3ZM322,403h.8c0-.1-.8,0-.8,0ZM329,384.2c-.5.5-1.2,1.2-2,2.2-.7.9-1.5,2-1.9,3l1.5.6c.3-.8.9-1.8,1.6-2.6.7-.9,1.4-1.6,1.8-2l-1.1-1.1ZM325.2,389.4c-.5,1.2-1,2.5-1.5,3.8-.5,1.3-1.1,2.4-1.7,3.1l1.3,1c.7-.9,1.3-2.2,1.9-3.5.6-1.3,1.1-2.7,1.5-3.9l-1.5-.6ZM322,396.3c-.7.9-1.1,1.8-1.2,2.9,0,1,.1,2.3.4,3.9l1.6-.3c-.3-1.7-.4-2.7-.4-3.6,0-.8.3-1.3.8-2l-1.3-1ZM321.2,403.2c.2,1.3.3,4.1.4,7.3,0,3.1,0,6.4,0,8.5h1.6c0-2.1,0-5.5,0-8.6,0-3.1-.2-6.1-.4-7.5l-1.6.3Z"/>
  <path class="cls-6" d="M315.2,398.5c-.4,4.1-.6,16.3,1,22.3l4.8-1.1c-.3-2.3-2.3-4.8-3.2-9.3-1-4.5,4.9-7,4.4-15.6-.4-6.9-3.8-14.3-5.5-17.1,0,1.6,0,5.9,0,9.9-.1,5.1-1,5.7-1.5,10.9Z"/>
  <path class="cls-33" d="M315.2,398.5c-.4,4.1-.6,16.3,1,22.3l4.8-1.1c-.3-2.3-2.3-4.8-3.2-9.3-1-4.5,4.9-7,4.4-15.6-.4-6.9-3.8-14.3-5.5-17.1,0,1.6,0,5.9,0,9.9-.1,5.1-1,5.7-1.5,10.9Z"/>
  <path class="cls-8" d="M315.8,410.7h.8s-.8,0-.8,0ZM318.4,398.2l.7.3-.7-.3ZM318.4,381.6c0-.4-.5-.7-1-.6-.4,0-.7.5-.6,1l1.6-.4ZM319,420.1c-.4-1.1-1-2.9-1.5-4.7-.5-1.9-.9-3.6-.9-4.7h-1.6c0,1.4.4,3.3,1,5.2.5,1.9,1.2,3.7,1.6,4.9l1.5-.6ZM316.6,410.7c0-3,.8-8.2,2.6-12.2l-1.5-.6c-1.9,4.2-2.7,9.7-2.7,12.8h1.6ZM319.2,398.5c.4-1,.6-2.3.7-3.7,0-1.4,0-3-.2-4.6-.3-3.2-.9-6.5-1.3-8.6l-1.6.4c.4,2,1,5.3,1.3,8.4.1,1.6.2,3.1.1,4.4,0,1.3-.2,2.4-.5,3.1l1.5.6Z"/>
  <path class="cls-6" d="M305.7,404.5c.3-2.7-2.1-9.3-3.4-12.2,1.4,1.6,4.5,5.1,5.1,6.1.8,1.2,3.1,3.4,3.3,6.8.2,3.4,1.1,7.5,1.5,9.6l-3.5.8s-2.3-3.3-2.9-5.2c-.7-1.8-.3-3.1,0-5.9Z"/>
  <path class="cls-32" d="M305.7,404.5c.3-2.7-2.1-9.3-3.4-12.2,1.4,1.6,4.5,5.1,5.1,6.1.8,1.2,3.1,3.4,3.3,6.8.2,3.4,1.1,7.5,1.5,9.6l-3.5.8s-2.3-3.3-2.9-5.2c-.7-1.8-.3-3.1,0-5.9Z"/>
  <path class="cls-8" d="M307.7,409.1h-.8s.8,0,.8,0ZM306.4,397.7c-.2-.4-.6-.6-1-.4-.4.2-.6.6-.5,1l1.5-.6ZM311.1,414.6c-.4-.6-1-1.6-1.6-2.6-.6-1.1-1-2.1-1-2.9h-1.6c0,1.2.6,2.5,1.2,3.6.6,1.1,1.3,2.2,1.7,2.7l1.4-.9ZM308.5,409.1c0-1,.2-1.5.5-2.1.1-.3.3-.7.3-1.2,0-.5,0-1-.1-1.7l-1.6.4c.1.6.1.9.1,1.2,0,.3,0,.5-.2.7-.2.6-.6,1.3-.6,2.7h1.6ZM309.1,404.2c-.3-1.3-.8-2.5-1.3-3.6-.5-1.1-1-2-1.4-2.9l-1.5.6c.4,1,1,2,1.4,3,.5,1,1,2.1,1.2,3.2l1.6-.4Z"/>
  <path class="cls-6" d="M309.8,410.1c-1,3,1.3,9,2.5,11.7l4.8-1.1c-.7-1.9-2-6.1-1.7-8.1.2-2,1.1-4.9,1.5-6.2.4-1.2.3-4.8-1.2-7.2-1.8-3-1.9-5.5-2.7-8.2-.8-2.7-4.5-6.1-6.3-7.8-1.4-1.4-2.2-3.7-2.5-4.7-.3.8-1,3-1.4,5.6-.6,3.3,2,7,3.3,9.5,1.3,2.4,3.6,5.5,4.7,8.7,1.1,3.2.1,4-1.1,7.8Z"/>
  <path class="cls-34" d="M309.8,410.1c-1,3,1.3,9,2.5,11.7l4.8-1.1c-.7-1.9-2-6.1-1.7-8.1.2-2,1.1-4.9,1.5-6.2.4-1.2.3-4.8-1.2-7.2-1.8-3-1.9-5.5-2.7-8.2-.8-2.7-4.5-6.1-6.3-7.8-1.4-1.4-2.2-3.7-2.5-4.7-.3.8-1,3-1.4,5.6-.6,3.3,2,7,3.3,9.5,1.3,2.4,3.6,5.5,4.7,8.7,1.1,3.2.1,4-1.1,7.8Z"/>
  <path class="cls-8" d="M312.3,411.7l.8.2-.8-.2ZM305.3,380.7c0-.4-.4-.8-.8-.8-.4,0-.8.4-.8.8h1.6ZM315.4,420.9c-.5-1.2-1.1-3.2-1.6-5-.3-.9-.5-1.8-.6-2.5-.1-.8-.2-1.3-.1-1.5l-1.6-.3c-.1.6,0,1.3,0,2.1.1.8.4,1.7.6,2.7.5,1.9,1.2,3.9,1.7,5.1l1.5-.6ZM313.1,411.9c.2-.9.6-1.9,1-2.9.2-.5.4-.9.6-1.3.2-.4.3-.8.4-1.2l-1.6-.2c0,.2-.1.4-.3.8-.1.4-.3.8-.6,1.3-.4.9-.9,2.1-1.1,3.2l1.6.3ZM315,406.5c0-.6,0-1.8,0-3.1-.1-1.2-.4-2.6-1-3.6l-1.4.8c.4.7.7,1.9.8,3.1.1,1.2.1,2.2,0,2.7l1.6.2ZM314,399.8c-.5-.8-1.2-2.5-2-4.1-.8-1.6-1.5-3.2-1.9-3.8l-1.4.8c.4.6,1.1,2.1,1.8,3.7.8,1.6,1.6,3.3,2,4.2l1.4-.8ZM310.1,391.9c-.4-.7-1.3-1.9-2.1-3.1-.8-1.3-1.6-2.5-1.8-3.4l-1.5.5c.3,1.1,1.2,2.6,2,3.8.9,1.3,1.7,2.4,2,3l1.4-.8ZM306.2,385.4c-.6-2-.8-2.5-.8-4.6h-1.6c0,2.4.3,3.1.9,5.1l1.5-.5Z"/>
  <path class="cls-6" d="M309.4,412.1c1.7,1.8,3,7,3.5,9.5l-5.7,1.3-1.4-6.3c-.8-3.9-3-5.3-4.6-7.7s-2.2-4.1-2.4-8.1c-.1-3.2-3.6-7.8-5.3-10.3,1.4,1.2,4.8,2.7,6.6,4.1,2.3,1.7,2.9,3.7,3.8,6,.9,2.3.6,2.8,1.3,5.8.7,3,2.5,3.9,4.3,5.7Z"/>
  <path class="cls-31" d="M309.4,412.1c1.7,1.8,3,7,3.5,9.5l-5.7,1.3-1.4-6.3c-.8-3.9-3-5.3-4.6-7.7s-2.2-4.1-2.4-8.1c-.1-3.2-3.6-7.8-5.3-10.3,1.4,1.2,4.8,2.7,6.6,4.1,2.3,1.7,2.9,3.7,3.8,6,.9,2.3.6,2.8,1.3,5.8.7,3,2.5,3.9,4.3,5.7Z"/>
  <path class="cls-8" d="M308.1,414.1l.6-.5-.6.5ZM303.6,408.1l.7-.4-.7.4ZM301.5,399.9l-.7.3.7-.3ZM297.8,393.3c-.4-.3-.9-.2-1.1.2-.3.4-.2.9.2,1.1l1-1.3ZM311,422.1c0-1-.2-2.7-.5-4.3-.3-1.6-.8-3.3-1.7-4.3l-1.2,1c.6.7,1,2,1.3,3.6.3,1.5.5,3.1.5,4h1.6ZM308.8,413.6c-1.8-2.2-3.3-3.7-4.4-5.9l-1.4.7c1.2,2.4,2.9,4.1,4.6,6.2l1.2-1ZM304.4,407.7c-.5-.9-.7-2.2-1-3.7-.2-1.4-.5-3.1-1.1-4.4l-1.5.7c.5,1.2.8,2.6,1,4.1.2,1.4.5,3,1.1,4.2l1.4-.7ZM302.3,399.6c-1.2-2.6-2.6-4.9-4.5-6.3l-1,1.3c1.5,1.1,2.8,3.1,4,5.6l1.5-.7Z"/>
  <path class="cls-6" d="M320.9,409.3c-.9,2.4-.6,8.1-.4,10.6l6.4-1.4c-.3-.4-1.1-1.6-1.8-3.4-.8-2.2,1.1-4.7,1.8-7.2s-.2-3.9-.6-6.7c-.3-2.2,1.9-6.6,3-8.5-.9.6-2.8,2-3.9,3-1.3,1.4-1.7,3.7-1.7,6.1,0,2.4-1.7,4.5-2.9,7.5Z"/>
  <path class="cls-36" d="M320.9,409.3c-.9,2.4-.6,8.1-.4,10.6l6.4-1.4c-.3-.4-1.1-1.6-1.8-3.4-.8-2.2,1.1-4.7,1.8-7.2s-.2-3.9-.6-6.7c-.3-2.2,1.9-6.6,3-8.5-.9.6-2.8,2-3.9,3-1.3,1.4-1.7,3.7-1.7,6.1,0,2.4-1.7,4.5-2.9,7.5Z"/>
  <path class="cls-8" d="M322.5,414.5h.8c0,.1-.8,0-.8,0ZM327.1,396.9c.3-.3.3-.8,0-1.1-.3-.3-.8-.3-1.1,0l1.2,1.1ZM324.1,418.6c-.1-.2-.4-.8-.7-1.6-.2-.8-.3-1.7-.2-2.4l-1.6-.3c-.2,1,0,2.2.2,3.1.3.9.6,1.7.9,2.1l1.3-.9ZM323.2,414.6c.4-2.1.8-3.6,1.8-5.8l-1.5-.7c-1.1,2.3-1.5,4-1.9,6.1l1.6.3ZM325,408.8c1.1-2.4,1-4.3.7-6.1l-1.6.3c.3,1.7.3,3.2-.6,5.2l1.5.7ZM325.8,402.7c-.1-.8,0-2,.1-3.1.2-1.2.6-2.2,1.1-2.7l-1.2-1.1c-.8.9-1.3,2.2-1.5,3.5-.3,1.3-.3,2.7-.2,3.7l1.6-.3Z"/>
  <path class="cls-26" d="M331.1,381.3l-103.6,15.6,2.3-6.6,103.5-17-2.2,8Z"/>
  <path class="cls-11" d="M324.4,418.7l-87.3-25.2-9.7,1.6-.3,23.3,97.2.3Z"/>
  <path class="cls-10" d="M331.8,420.1l3.8-20.9,92.4.6,15.2,18.6-111.4,1.7Z"/>
  <polygon class="cls-27" points="240.1 393.4 242 393.2 242.9 420 240.9 420.2 240.1 393.4"/>
  <polygon class="cls-27" points="255.3 392.3 257.2 392.2 256.9 419.1 255 419.1 255.3 392.3"/>
  <path class="cls-27" d="M266,389.5h2.3c0,0-.4,29.9-.4,29.9h-2.3c0,0,.4-29.9.4-29.9Z"/>
  <path class="cls-27" d="M275.4,388.8h2.3c0,0-.4,29.9-.4,29.9h-2.3c0,0,.4-29.9.4-29.9Z"/>
  <path class="cls-27" d="M309.3,381.9h4.2s-3.1,38.5-3.1,38.5l-4.4.3,3.2-38.8Z"/>
  <path class="cls-27" d="M321.8,381.2l4.4-.3-4.3,40.1-4.7.3,4.6-40.1Z"/>
  <polygon class="cls-15" points="370.4 381.9 373.9 381.2 373.2 398.7 369.8 399.4 370.4 381.9"/>
  <polygon class="cls-15" points="381.8 380.3 386 379.4 385.3 397 381.2 397.8 381.8 380.3"/>
  <path class="cls-21" d="M612.3,198.6s-24.6,43-18.1,78.3,23,79.5,23,79.5l-209.4,36.3s-23.9-27.9-24.8-57.4c-.9-29.5,10.7-50.5,10.7-50.5l218.7-86.3ZM520.8,301.8c.8,6.3,1.2,18.4-3.7,16.7-4.9-1.8-10.7-15.8-13-22.6,1,10.6,1.7,31.2-3.2,28.7-4.5-2.4-6.9-8-7.7-11.1,0-.3-.1-.5-.2-.8,0,.2.1.5.2.8,1.5,7.1.1,23.9-3.2,19.3.4,1.9,2.8,4.7,5.6,8.1,4.9,5.8,11,13.2,10.4,19.5,1-.8,1.8-3.9,2.8-7.4,1.3-4.7,2.8-10.1,4.9-11.1,4.7-2.3,5.7,3.3,6.2,12.5.3-.7.8-1.6,1.3-2.8,3.4-7,10.6-21.6,9-26.9-2.7,4.5-6.3-9.7-8.4-18.3-.5-1.8-.9-3.4-1.2-4.5Z"/>
  <path class="cls-20" d="M550.5,396.9l-92.9,21.9c-.9,0-1.9,0-2.7,0l-32.8-36.6-90.2-9.3-7.9,45.8-36.2-.6-59.6-.3,2.7-24.8-5.3,1.7-5.9,24.6-193.3-4.7,3.5,3.8s154.2,42.4,165.3,51.5c3.9,3.2,8.2,12.1,13.4,22.7h0c9.3,19.2,21.4,44.1,39.2,52.4,27.8,12.8,441.8-30.8,462-55.5,20.3-24.7,23.8-35.7,22.6-45.1-1.1-8.3-13.1-37.8-15.6-43.9l11-10-15-60.3-40.8,9.2-121.7,45.4.4,12.1ZM338.4,381.5l-1.6,12.7,88,1.4-5.7-10.3-80.7-3.7ZM168.4,445.9l-21.1-2.5,1.7-7.3s3.3-3.8,11.1-3.5c7.8.3,9.5,6.1,9.5,6.1l-1.2,7.3ZM173.8,446.6l21.1,2.5,1.2-7.3s-1.6-5.7-9.5-6c-7.8-.3-11.1,3.5-11.1,3.5l-1.7,7.3Z"/>
  <path class="cls-18" d="M228,450.1l-23.7-.8,1.1-8.1s3.2-4.5,12-4.9c8.7-.4,11.2,5.7,11.2,5.7l-.6,8.1Z"/>
  <path class="cls-18" d="M261.1,450.3l-26,.7.8-8.6s3.3-4.9,12.9-5.8c9.6-.9,12.6,5.3,12.6,5.3l-.2,8.5Z"/>
  <path class="cls-19" d="M102.1,389.2c-1.3-27.2,26.6-56.1,26.6-56.1l-91.1,41.8s-21.8,24.4-22,48.1c-.2,23.8,12.2,47.1,12.2,47.1l31.3-7.7c-4.1-4-8.5-9.9-9.5-16.1,4.1,5.2,7.4,5.4,10.4,5.6,2.3.1,4.3.3,6.3,2.8-.6-1.5-1.5-3.5-2.5-5.9-3.6-8-8.7-19.4-6.7-24.1,4.5,6.9,10.1,9.5,15.6,12,4.3,2,8.6,3.9,12.2,7.9-.4-2.3-1.5-4.9-2.7-7.9-2.9-7.4-6.8-17.2-5.2-29.6,3.2,3.7,5.5,6.6,7.5,9,4.9,6.1,7.4,9.1,13.9,12.9-2.4-8.7,0-15.2,2-21.3,1.3-3.7,2.6-7.3,2.6-11.1-.5-2.5-.8-5-.9-7.4ZM87,398.8c-3.6-2.6-9.9-17.3-6.7-19.2,0,0,2.9,3.6,4.2,3.3,1.2-.3,2.5-3.9,2.5-3.9,1.8,3.3,5.4,10.1,6.8,13-.8-.7-1.5-1.4-2.2-2.2-1.4-1.5-2.8-2.9-4-3.1-1.1-.2.5,3.7,1.2,5.6.1.4.3.7.3.8-1.1-1-3.1.6-2,5.7Z"/>
  <path class="cls-22" d="M332.7,51.7s-8.1,39.5,2.3,76.4c10.4,36.9,44.5,63.2,44.5,63.2l-170.3,86.9s-26.4-31.3-18.3-69.9c8.1-38.7,59.1-96,59.1-96l82.7-60.5ZM304,95.4c-1.8,20.5-6.2,58.8-9.9,47.5-3.7-11.3-6.7-29.2-7.7-36.8-.1,17.7-2,52.1-8.5,47.7-6.1-4.2-10.3-15.1-11.8-20.8,0-.3-.2-.6-.2-.9,0,.3.1.6.2.9,3.4,13.3,8.1,36.9,1.4,31.7-3.4-2.7-3,.2-2.5,3.3.5,3,1,6.2-2.3,4.1,5.6,7.8,17,21.6,20.6,11.3,3.6-10.3,2.1-19.3.6-22.3,3.9,6,12.7,17.5,17.3,15.3,5.8-2.8,4.3-24.1,3.4-28.4,2.1,3.3,14.6,14.1,14.8,8.3.1-4.7-10.1-42.5-15.3-60.8Z"/>
  <path class="cls-16" d="M212.6,294l3.2-5.6,170.2-91.3-3.2,6.5-170.2,90.4Z"/>
  <path class="cls-16" d="M33.4,379.7l1.4-3.6,94-43.5-3.4,4.7-92,42.4Z"/>
  <path class="cls-16" d="M391.7,288.1l4.9-6.3,217.1-84.2-5,7.4-217,83.1Z"/>
  <path class="cls-23" d="M387.5,197.9s-18.9,52.9-12.4,88.2c6.5,35.4,41.1,67,41.1,67l-192.2,43.6s-28.3-32.9-28.1-56.7c.2-23.8,20.4-52.1,20.4-52.1l171.1-90.1ZM235.6,301.8l-5.4,14c-1.9-2-2.5-1.5-3-1.1-.5.4-1,.8-2.8-1.2-1.2,10.1,12,35.9,9.1,22.2-1.8-8.7-1-9.6-.6-9.9,0,0,.1-.1.1-.3,3.5,7.2,8.1,16.8,10.6,20.3,3.1,4.3.9-7.5-.6-14.7-.8-4,1.6-1.4,4.5,1.5,2.3,2.4,5,5.1,6.2,4.7,2.9-.9.2-29.2-.2-32.7-.1-1.1-.4,0-.8,2.3-.8,4.3-2.3,12.3-5.3,12.4-2.3.1-5.9-6.6-8.6-11.8-1.4-2.7-2.6-5-3.3-5.7Z"/>
  <path class="cls-16" d="M423.7,119.6l2.5-4.5,106.8-62.3-2.6,5.3-106.7,61.6Z"/>
  <path class="cls-24" d="M531.2,54.2s-8.3,31.9,12.5,72.6c20.8,40.6,63.1,65.9,63.1,65.9l-218.7,87.6s-17.7-36.8-9.6-75.5c8.1-38.7,48.1-89.4,48.1-89.4l104.6-61.2ZM518.5,133.7c-1.2,14.5-4.2,42.6-6.5,38.7-2.4-3.9-18-31.4-25.5-44.7,2.2,15.2,5.2,44.1,0,37.8-5.3-6.3-9.1-18.6-10.3-23.9.9,11.2,2,33.4-.7,32.4-2.7-1-7.4-11-9.4-15.8-1.5,10.6-5.5,30.9-10.2,26.7-4.6-4.2-10.3-8.3-12.6-9.8,5,13.2,13.4,38.5,7.1,33.7-6.3-4.8-9.2-7.6-9.8-8.4,3.7,11.7,11.2,33.9,12,29.3,1-5.8,9.8-20.3,13.4-20.6,1.5-.1,5,2.8,8.6,5.9,4.8,4,9.8,8.2,10.7,5.7,1.6-4.4,8.1-20.7,13.5-22.6,2.2-.8,7,.9,12.1,2.7,7.2,2.6,15.3,5.5,18.5,2.1,4.3-4.6-5.5-48-10.9-69.1Z"/>
  <path class="cls-4" d="M195.5,470s194.8,10.7,306.8-2.4c112-13.1,225.6-36.6,225.6-36.6"/>
  <path class="cls-12" d="M248.5,525.4l-4.8-13.1s236-17.1,276.4-20.5c40.5-3.3,208.3-26.4,208.3-26.4l-12.8,12.6s-130.2,24-195.1,28.6c-64.8,4.6-272.1,18.8-272.1,18.8Z"/>
  <polygon class="cls-3" points="461 436.1 480.1 434.7 480.7 455.1 461.6 456.4 461 436.1"/>
  <polygon class="cls-3" points="498 433.5 517.1 431.2 518.9 451.4 499.9 453.7 498 433.5"/>
  <polygon class="cls-3" points="535.9 429.5 555 426.7 557.5 446.8 538.4 449.6 535.9 429.5"/>
  <polygon class="cls-2" points="701.4 428 756.3 416.8 759.9 436.1 705 447.2 701.4 428"/>
  <polygon class="cls-18" points="282.5 62.6 300 62.8 299.7 68.2 282.1 68 282.5 62.6"/>
  <polygon class="cls-18" points="284.5 52.5 297.4 52.6 297.2 56.1 284.2 56 284.5 52.5"/>
  <polygon class="cls-18" points="463.5 63 481.1 63.2 480.7 68.6 463.2 68.4 463.5 63"/>
  <polygon class="cls-18" points="466 53 478.9 53.1 478.7 56.6 465.7 56.5 466 53"/>
  <path class="cls-30" d="M545.6,412.5l-90.2,6.4,94.6-21.5-.4-11.6,120.3-46.1,42.7-8.8s-124,50.9-127.4,52.5c-3.4,1.6,2,18.2-3.7,21.3s-35.9,7.9-35.9,7.9Z"/>
  <polygon class="cls-28" points="710.4 426.7 713.6 426.1 716.6 444.6 713.5 445.1 710.4 426.7"/>
  <polygon class="cls-28" points="721.4 424.2 724.5 423.6 727.6 442.1 724.4 442.6 721.4 424.2"/>
  <polygon class="cls-28" points="734 421.5 737.1 420.9 740.2 439.4 737 439.9 734 421.5"/>
  <polygon class="cls-28" points="745.6 418.9 748.8 418.3 751.8 436.8 748.7 437.3 745.6 418.9"/>
  <path class="cls-1" d="M123,335.6l93.5-46"/>
  <path class="cls-1" d="M472,68.9l-123.6,85.8"/>
  <path class="cls-1" d="M346.3,329.8s11.5-94.8-5.1-112.5c-16.6-17.7-9.1-99.3-9.1-99.3"/>
  <path class="cls-1" d="M362.9,298.3s-30.8-51.5-22-81.8c8.8-30.3-.9-74.9-.9-74.9"/>
  <path class="cls-1" d="M383.2,290.9s-42.6-52.1-31.9-79.5c10.7-27.4-15.3-79.7-15.3-79.7"/>
  <path class="cls-1" d="M358,170.6s71,1,108.1-12c37.1-13,68.5-51.9,68.5-51.9"/>
  <path class="cls-1" d="M358,170.6s65.9,1.5,108.1-12c42.2-13.5,76.9-34.1,76.9-34.1"/>
  <path class="cls-1" d="M358.5,170.5s65.4,1.7,107.5-11.9c42.2-13.5,72.6-42.4,72.6-42.4"/>
  <g class="cls-52">
    <g class="cls-51">
      <path class="cls-9" d="M236.2,519.8c2-1,5.3.5,7.2,3.3s1.8,6-.2,7-5.3-.5-7.2-3.3-1.8-6,.2-7Z"/>
    </g>
    <g class="cls-51">
      <path class="cls-9" d="M248.8,522.1c1.5-.8,3.4-.4,4.3.9s.3,2.9-1.2,3.6-3.4.4-4.3-.9-.3-2.9,1.2-3.6Z"/>
    </g>
    <g class="cls-51">
      <ellipse class="cls-9" cx="249.9" cy="533.2" rx="5.5" ry="4.2" transform="translate(-135.5 88) rotate(-15.8)"/>
    </g>
    <g class="cls-51">
      <path class="cls-9" d="M273.9,487.9c1.4,1.3-.3,4.3-3.8,6.7-3.5,2.4-7.4,3.3-8.7,2s.3-4.3,3.8-6.7c3.5-2.4,7.4-3.3,8.7-2Z"/>
    </g>
    <g class="cls-51">
      <path class="cls-9" d="M271.5,498.6c1,1,.6,2.6-.9,3.7s-3.6,1.1-4.6.2-.6-2.6.9-3.7,3.6-1.1,4.6-.2Z"/>
    </g>
    <g class="cls-51">
      <path class="cls-9" d="M262.4,500.9c1.1,2,0,4.6-2.6,5.7s-5.5.3-6.6-1.7,0-4.6,2.6-5.7,5.5-.3,6.6,1.7Z"/>
    </g>
    <g class="cls-51">
      <ellipse class="cls-9" cx="237.5" cy="507.7" rx="1.8" ry="4.2" transform="translate(-320.1 450.7) rotate(-59.1)"/>
    </g>
    <g class="cls-51">
      <ellipse class="cls-9" cx="242" cy="505.8" rx="1.4" ry="1.8" transform="translate(-316.2 453.4) rotate(-59.1)"/>
    </g>
    <g class="cls-51">
      <path class="cls-9" d="M243.4,508.6c1-.9,2.7-.8,3.7.2s1.1,2.5.1,3.4-2.7.8-3.7-.2-1.1-2.5-.1-3.4Z"/>
    </g>
    <g class="cls-51">
      <ellipse class="cls-9" cx="252.8" cy="541.7" rx="2.3" ry="2.2" transform="translate(-154.4 104) rotate(-17.9)"/>
    </g>
    <g class="cls-51">
      <ellipse class="cls-9" cx="269.3" cy="513" rx="3.4" ry="2.8" transform="translate(-132.3 95.4) rotate(-16.2)"/>
    </g>
    <g class="cls-51">
      <ellipse class="cls-9" cx="256.9" cy="527" rx="2.9" ry="2.6" transform="translate(-145.2 100.3) rotate(-17.3)"/>
    </g>
    <g class="cls-51">
      <ellipse class="cls-9" cx="247.7" cy="519.8" rx="2.1" ry="1.1" transform="translate(-129 84.3) rotate(-15.4)"/>
    </g>
    <g class="cls-51">
      <ellipse class="cls-9" cx="261.1" cy="519.5" rx="1.6" ry="1.3" transform="translate(-134.4 93.3) rotate(-16.2)"/>
    </g>
    <g class="cls-51">
      <path class="cls-9" d="M258.9,521.7c.6-.3,1.4,0,1.8.6s.2,1.3-.4,1.6-1.4,0-1.8-.6-.2-1.3.4-1.6Z"/>
    </g>
    <g class="cls-51">
      <path class="cls-9" d="M264.6,507.5c.7,0,1.2.5,1.2,1.2s-.6,1.3-1.3,1.4-1.2-.5-1.2-1.2.6-1.3,1.3-1.4Z"/>
    </g>
    <g class="cls-51">
      <path class="cls-9" d="M256.1,519.1c.6,0,1.1.4,1.1.9s-.6,1-1.2,1.1-1.1-.4-1.1-.9.6-1,1.2-1.1Z"/>
    </g>
    <g class="cls-51">
      <path class="cls-9" d="M259,494.1c0,1.4-1.5,2.8-3.6,3.1s-3.8-.6-3.8-2.1,1.5-2.8,3.6-3.1,3.8.6,3.8,2.1Z"/>
    </g>
    <g class="cls-51">
      <ellipse class="cls-9" cx="253.2" cy="477.3" rx="1.7" ry="1.3" transform="translate(-115.2 82.1) rotate(-15)"/>
    </g>
    <g class="cls-51">
      <ellipse class="cls-9" cx="249.6" cy="487.9" rx="1.7" ry="1" transform="translate(-83.4 52.7) rotate(-10.3)"/>
    </g>
    <g class="cls-51">
      <path class="cls-9" d="M251.6,484.1c-.1.5-.8.9-1.5.8s-1.1-.5-1-1,.8-.9,1.5-.8,1.1.5,1,1Z"/>
    </g>
    <g class="cls-51">
      <path class="cls-9" d="M233.5,512.8c-.4,1.4-2.4,2.5-4.4,2.3-2-.2-3.3-1.5-2.9-2.9s2.4-2.5,4.4-2.3,3.3,1.5,2.9,2.9Z"/>
    </g>
    <g class="cls-51">
      <path class="cls-9" d="M235.4,494.9c-.2.7-1.1,1.2-2,1.2s-1.4-.7-1.2-1.4,1.1-1.2,2-1.2,1.4.7,1.2,1.4Z"/>
    </g>
    <g class="cls-51">
      <path class="cls-9" d="M228.4,504.7c-.2.5-1,.9-1.9.9s-1.5-.6-1.3-1.1,1-.9,1.9-.9,1.5.6,1.3,1.1Z"/>
    </g>
    <g class="cls-51">
      <path class="cls-9" d="M230,501.2c-.3.5-1,.7-1.6.5s-.9-.7-.6-1.2,1-.7,1.6-.5.9.7.6,1.2Z"/>
    </g>
    <g class="cls-51">
      <path class="cls-9" d="M253.8,510.4c.6,0,1.1.4,1.1.9s-.6,1-1.2,1.1-1.1-.4-1.1-.9.6-1,1.2-1.1Z"/>
    </g>
    <g class="cls-51">
      <path class="cls-9" d="M234,478.5c.6,0,1.1.4,1.1.9s-.6,1-1.2,1.1-1.1-.4-1.1-.9.6-1,1.2-1.1Z"/>
    </g>
    <g class="cls-51">
      <path class="cls-9" d="M216.5,498.1c.7-.5,1.8-.5,2.3,0s.3,1.4-.4,1.9-1.8.5-2.3,0-.3-1.4.4-1.9Z"/>
    </g>
    <g class="cls-51">
      <ellipse class="cls-9" cx="225.8" cy="496.6" rx="1.1" ry="1" transform="translate(-78.3 43.7) rotate(-9.4)"/>
    </g>
    <g class="cls-51">
      <ellipse class="cls-9" cx="240.8" cy="476.4" rx="5.2" ry="2.7" transform="translate(-262.9 653.1) rotate(-82.5)"/>
    </g>
    <g class="cls-51">
      <ellipse class="cls-9" cx="246.2" cy="480.8" rx="2.3" ry="2" transform="translate(-259.4 670.9) rotate(-83.5)"/>
    </g>
    <g class="cls-51">
      <ellipse class="cls-9" cx="241.9" cy="486.7" rx="3.3" ry="3.5" transform="translate(-301.6 485.5) rotate(-63.4)"/>
    </g>
    <g class="cls-51">
      <path class="cls-9" d="M256.8,468.1c-1.1,0-2.4-.7-2.8-1.8s0-2,1.2-2.1,2.4.7,2.8,1.8,0,2-1.2,2.1Z"/>
    </g>
    <g class="cls-51">
      <path class="cls-9" d="M239.2,464.5c-.8,0-1.9-.7-2.3-1.8s-.1-2,.7-2,1.9.7,2.3,1.8.1,2-.7,2Z"/>
    </g>
    <g class="cls-51">
      <path class="cls-9" d="M245,464.7c-.8-.1-1.6-.9-1.7-1.7s.4-1.3,1.2-1.2,1.6.9,1.7,1.7-.4,1.3-1.2,1.2Z"/>
    </g>
    <g class="cls-51">
      <path class="cls-9" d="M249.5,456.9c.7.6.8,1.4.3,1.9s-1.5.5-2.1-.1-.8-1.4-.3-1.9,1.5-.5,2.1.1Z"/>
    </g>
    <g class="cls-51">
      <ellipse class="cls-9" cx="305.3" cy="452" rx="1.7" ry="1.3" transform="translate(-106.9 94.7) rotate(-15)"/>
    </g>
    <g class="cls-51">
      <path class="cls-9" d="M303.7,458.8c-.1.5-.8.9-1.5.8s-1.1-.5-1-1,.8-.9,1.5-.8,1.1.5,1,1Z"/>
    </g>
    <g class="cls-51">
      <path class="cls-9" d="M308.9,442.8c-1.1,0-2.4-.7-2.8-1.8s0-2,1.2-2.1,2.4.7,2.8,1.8,0,2-1.2,2.1Z"/>
    </g>
    <g class="cls-51">
      <path class="cls-9" d="M291.3,439.2c-.8,0-1.9-.7-2.3-1.8s-.1-2,.7-2,1.9.7,2.3,1.8.1,2-.7,2Z"/>
    </g>
    <g class="cls-51">
      <path class="cls-9" d="M297,439.4c-.8-.1-1.6-.9-1.7-1.7s.4-1.3,1.2-1.2,1.6.9,1.7,1.7-.4,1.3-1.2,1.2Z"/>
    </g>
    <g class="cls-51">
      <path class="cls-9" d="M301.5,431.6c.7.6.8,1.4.3,1.9s-1.5.5-2.1-.1-.8-1.4-.3-1.9,1.5-.5,2.1.1Z"/>
    </g>
    <g class="cls-51">
      <path class="cls-9" d="M300.5,474.8c-.8-.2-1.1-1-.7-1.7s1.4-1.1,2.2-.8,1.1,1,.7,1.7-1.4,1.1-2.2.8Z"/>
    </g>
    <g class="cls-51">
      <path class="cls-9" d="M294.7,469.9c-.5-.3-.5-.9,0-1.3s1.2-.6,1.7-.4.5.9,0,1.3-1.2.6-1.7.4Z"/>
    </g>
    <g class="cls-51">
      <path class="cls-9" d="M309.4,479.4c.6-.8,2.2-1.4,3.6-1.4s2.2.8,1.6,1.6-2.2,1.4-3.6,1.4-2.2-.8-1.6-1.6Z"/>
    </g>
    <g class="cls-51">
      <path class="cls-9" d="M323.9,468.3c.4-.6,1.9-1.1,3.4-1s2.3.6,1.9,1.2-1.9,1.1-3.4,1-2.3-.6-1.9-1.2Z"/>
    </g>
    <g class="cls-51">
      <path class="cls-9" d="M320.2,472.2c.6-.5,1.9-.8,2.9-.6s1.2.8.6,1.3-1.9.8-2.9.6-1.2-.8-.6-1.3Z"/>
    </g>
    <g class="cls-51">
      <path class="cls-9" d="M326.2,478.2c-1,.3-2.1,0-2.3-.5s.4-1.2,1.4-1.5,2.1,0,2.3.5-.4,1.2-1.4,1.5Z"/>
    </g>
    <g class="cls-51">
      <path class="cls-9" d="M281.5,516.3c1.6,1.3.1,4.8-3.4,7.9s-7.7,4.6-9.3,3.3-.1-4.8,3.4-7.9c3.5-3.1,7.7-4.6,9.3-3.3Z"/>
    </g>
    <g class="cls-51">
      <path class="cls-9" d="M280.1,528.4c1.2,1,1,2.8-.6,4.2s-3.8,1.7-5,.7-1-2.8.6-4.2,3.8-1.7,5-.7Z"/>
    </g>
    <g class="cls-51">
      <path class="cls-9" d="M270.4,532.2c1.4,2.1.4,5.1-2.2,6.6s-5.9,1-7.4-1.2-.4-5.1,2.2-6.6,5.9-1,7.4,1.2Z"/>
    </g>
    <g class="cls-51">
      <path class="cls-9" d="M304,523.2c-1.5-.7-2.2-2.5-1.6-4s2.2-2.3,3.7-1.6,2.2,2.5,1.6,4-2.2,2.3-3.7,1.6Z"/>
    </g>
    <g class="cls-51">
      <path class="cls-9" d="M285.9,506.8c-1.1-.5-1.5-2.2-1-3.7s1.9-2.4,3-1.9,1.5,2.2,1,3.7-1.9,2.4-3,1.9Z"/>
    </g>
    <g class="cls-51">
      <path class="cls-9" d="M292.8,511c-.9-.7-1-2.1-.4-3.1s2-1.3,2.8-.6,1,2.1.4,3.1-2,1.3-2.8.6Z"/>
    </g>
    <g class="cls-51">
      <ellipse class="cls-9" cx="304.6" cy="505.4" rx="2.2" ry="2.1" transform="translate(-58.7 40.4) rotate(-6.9)"/>
    </g>
    <g class="cls-51">
      <ellipse class="cls-9" cx="279.2" cy="475.5" rx="8.9" ry="3.8" transform="translate(-214.8 720.6) rotate(-86)"/>
    </g>
    <g class="cls-51">
      <path class="cls-9" d="M293.9,479.6c2.4.3,4.2,2.3,4,4.4s-2.2,3.6-4.6,3.3-4.2-2.3-4-4.4,2.2-3.6,4.6-3.3Z"/>
    </g>
    <g class="cls-51">
      <path class="cls-9" d="M288.1,488.6c2.2.8,3,3.7,1.8,6.6s-4,4.6-6.2,3.8-3-3.7-1.8-6.6,4-4.6,6.2-3.8Z"/>
    </g>
    <g class="cls-51">
      <path class="cls-9" d="M314.3,462c-2.3.1-5.2-1.3-6.3-3.1s-.1-3.4,2.2-3.5,5.2,1.3,6.3,3.1.1,3.4-2.2,3.5Z"/>
    </g>
    <g class="cls-51">
      <path class="cls-9" d="M276.2,455.4c-1.8,0-4.1-1.3-5.2-3.2s-.6-3.4,1.2-3.5,4.1,1.3,5.2,3.2.6,3.4-1.2,3.5Z"/>
    </g>
    <g class="cls-51">
      <path class="cls-9" d="M288.5,455.9c-1.7-.2-3.5-1.5-3.9-2.9s.7-2.3,2.4-2.1,3.5,1.5,3.9,2.9-.7,2.3-2.4,2.1Z"/>
    </g>
    <g class="cls-51">
      <path class="cls-9" d="M296.9,442.7c1.5,1,2,2.5,1,3.3s-3.1.7-4.6-.3-2-2.5-1-3.3,3.1-.7,4.6.3Z"/>
    </g>
    <g class="cls-51">
      <path class="cls-9" d="M350.1,501c-.7.4-1.7.1-2.1-.5s-.2-1.5.6-1.9,1.7-.1,2.1.5.2,1.5-.6,1.9Z"/>
    </g>
    <g class="cls-51">
      <path class="cls-9" d="M341.6,501.8c-.6.1-1.2-.2-1.3-.8s.1-1.1.7-1.3,1.2.2,1.3.8-.1,1.1-.7,1.3Z"/>
    </g>
    <g class="cls-51">
      <path class="cls-9" d="M358.4,482.5c-.3-.6.2-1.8,1.2-2.7s2.1-1.1,2.4-.4-.2,1.8-1.2,2.7-2.1,1.1-2.4.4Z"/>
    </g>
    <g class="cls-51">
      <path class="cls-9" d="M369.8,487c-.4.8-1.3,1.3-2,1.2s-1-.9-.6-1.8,1.3-1.3,2-1.2,1,.9.6,1.8Z"/>
    </g>
    <g class="cls-51">
      <ellipse class="cls-9" cx="325.1" cy="507" rx="1.4" ry="1.6" transform="translate(-187.8 822.6) rotate(-88.9)"/>
    </g>
    <g class="cls-51">
      <ellipse class="cls-9" cx="328" cy="500.3" rx=".9" ry="1.2" transform="translate(-206 769.9) rotate(-83.5)"/>
    </g>
    <g class="cls-51">
      <path class="cls-9" d="M321.5,516.3c1,0,2.2,1.1,2.6,2.2s-.1,2.1-1.2,2-2.2-1.1-2.6-2.2.1-2.1,1.2-2Z"/>
    </g>
    <g class="cls-51">
      <path class="cls-9" d="M338,522.4c.8,0,1.8,1,2.2,2.2s0,2.1-.7,2.1-1.8-1-2.2-2.2,0-2.1.7-2.1Z"/>
    </g>
    <g class="cls-51">
      <path class="cls-9" d="M332.6,521.4c.8.2,1.5,1.1,1.6,2s-.4,1.4-1.2,1.1-1.5-1.1-1.6-2,.4-1.4,1.2-1.1Z"/>
    </g>
    <g class="cls-51">
      <ellipse class="cls-9" cx="329.1" cy="528.2" rx="1.2" ry="1.7" transform="translate(-266.6 348) rotate(-41.2)"/>
    </g>
    <g class="cls-51">
      <path class="cls-9" d="M326.2,489.9c.4,2-2,4.6-5.6,6-3.5,1.3-6.7.9-7.2-1.1s2-4.6,5.6-6,6.7-.9,7.2,1.1Z"/>
    </g>
    <g class="cls-51">
      <path class="cls-9" d="M341.6,511.7c-.9-1.8-.3-4.7,1.3-6.5s3.6-1.7,4.5,0,.3,4.7-1.3,6.5-3.6,1.7-4.5,0Z"/>
    </g>
    <g class="cls-51">
      <path class="cls-9" d="M336.4,478.4c-.7-1.4,0-3.9,1.7-5.7s3.4-2.1,4.1-.8,0,3.9-1.7,5.7-3.4,2.1-4.1.8Z"/>
    </g>
    <g class="cls-51">
      <path class="cls-9" d="M339.8,488.3c-.3-1.5.5-3.5,1.8-4.5s2.7-.5,3,.9-.5,3.5-1.8,4.5-2.7.5-3-.9Z"/>
    </g>
    <g class="cls-51">
      <ellipse class="cls-9" cx="354.3" cy="488" rx="3.2" ry="2.3" transform="translate(-223.6 660.3) rotate(-70.6)"/>
    </g>
    <g class="cls-51">
      <path class="cls-9" d="M217.6,475.3c-.4-.3-.4-.9,0-1.3s1.2-.6,1.7-.3.4.9,0,1.3-1.2.6-1.7.3Z"/>
    </g>
    <g class="cls-51">
      <path class="cls-9" d="M242.9,518c.6,0,1.1.4,1.1.9s-.6,1-1.2,1.1-1.1-.4-1.1-.9.6-1,1.2-1.1Z"/>
    </g>
    <g class="cls-51">
      <path class="cls-9" d="M230.7,520.7c.6-.3,1.3,0,1.7.6s.2,1.3-.4,1.6-1.3,0-1.7-.6-.2-1.3.4-1.6Z"/>
    </g>
  </g>
  <path class="cls-13" d="M89.5,359.1c-.7-2.4-.4-6.6-.1-8.2l3.2-1.5c0,2.7-1.3,7.7-.4,9.2.9,1.5,2.4,12.8,1.8,10.4-.7-2.4-3.7-6.8-4.5-9.9Z"/>
  <path class="cls-13" d="M95.2,348.3l-2.9,1.4c1,1,3.1,3.5,3.6,4.8.7,1.7-.2,2.2,0,4.5.1,2.3,3.3,5.5,4.6,7.6,1.3,2,.5,5.6,2,7.3-.3-3,.6-4.7,0-7.8-.6-3.2-2.3-3.7-3.6-5.7-1.3-2,.3-2.7-.3-6.1-.5-2.7-2.5-5.1-3.2-6Z"/>
  <path class="cls-13" d="M308.9,239.3l-5.2,2.4c1.5,1.4,4.7,4.7,5.6,6.7,1.1,2.4-.4,3.2-.3,6.6,0,3.4,5,7.9,7.1,10.7,2,2.9.5,8,2.8,10.5-.3-4.3,1.1-6.8.3-11.3-.8-4.6-3.5-5.2-5.5-8.1-2-2.9.6-3.9-.3-8.8-.7-3.9-3.2-7.4-4.4-8.7Z"/>
  <path class="cls-13" d="M46.8,322.6l14,8.4c-.6.6-1.8,2.3-1.5,3.6.4,1.7.2,4.6,0,6.4-.2,1.5,2,6.2,1.8,9.2-.8-1.6-2.7-4.6-3.7-7.2-1.2-3.2.8-3.4-.3-6.3-.9-2.3-3.2-4.7-4.3-5.6-.6-.4-1.8-1-1.9.5-.2,1.8,1.7,3.8,2.5,5.4.7,1.4,1.3,8.6,1.7,11.3-1.1-1.5-3-6.7-3.2-9.5-.1-1.8-1.5-3.2-2.4-5.1-.6-1.3.2-4.3-.5-5.6-.7-1.2-2,.2-1.8,1.2.3,1-1.5,3.6-.4,6.2.9,2.3,1.5,6.8,1.3,8.6-.1-1.8-1.7-4.9-3.1-7.7-1.5-2.8-.5-3.1-1.1-6.8-.5-3-3.4-6.1-4.7-7.3l7.7.4Z"/>
  <path class="cls-13" d="M316.8,246.8c-1.4-3.4-1-9.3-.6-11.8l12.2-6.6c1.2.7,3.6,2.6,4,4.5.5,2.3-.3,3.5-.4,5.2,0,1.7,2.2,4.4,2.5,5.8.3,1.4.9,4.2.6,6.7-.3,2,.9,5.3,1.4,6.8-.8-.6-2.6-2.5-3.5-5.1-1.1-3.2,0-4.9-.4-6.8-.4-1.9-1.8-2.5-2.7-3.8s-.5-6.5-1.8-6.2c-1.2.3-.6,2.1-.8,3.3-.2,1.3-.6,4.3.4,6.8,1.2,3.2,2,8.6,1.7,10.9-.7-3.3-3.7-6-4.1-8.3-.5-2.3.6-2.1,0-6.8-.3-2.3-1.8-4.2-3.3-3.2-1.5,1.1-.7,7.7,1.6,10.4,2.3,2.7,3.7,12.3,3.5,16.5-.2,4.2,3.4,9,3.6,13.8-2.2-4.2-4.5-4.9-6.3-8.1-1.8-3.3-.5-6.2-1-12.9-.6-6.7-4.9-6.7-6.6-11Z"/>
  <path class="cls-13" d="M578.6,234.3c-.4-3.7-6.2-12.7-7.9-14.7l-13.9,5.3c-.8,1.3-2.3,4.2-1.7,6,.7,2.3,2.2,2.8,3.2,4.2s0,5,.5,6.3c.4,1.4,1.3,4.1,3,6,1.3,1.6,2,5,2.1,6.6.5-1,1.3-3.6.8-6.3-.6-3.3-2.7-4.2-3.2-6-.6-1.8.5-3.2.8-4.7.3-1.6-2.9-5.8-1.5-6.3,1.4-.4,1.8,1.4,2.6,2.4s2.9,3.3,3.2,6c.4,3.4,2.5,8.5,4.1,10.2-1-3.2.5-7.2-.2-9.4-.7-2.3-1.8-1.4-3.7-5.8-.9-2.1-.5-4.6,1.7-4.5,2.1,0,4.9,6.2,4,9.7-.9,3.5,2.8,12.6,5.2,16.1s1.3,9.6,3.7,13.8c0-4.8,2-6.6,2.1-10.4,0-3.8-2.9-5.6-5.9-11.6-3-6,1.4-8.4,1-13Z"/>
  <path class="cls-13" d="M432.8,117c-1.1-2.1-.4-4.5.5-5.5l12-7c1,1.7,2.9,3.6,3.5,5.5.5,1.9-.2,3.3.3,5.3.5,2,4,4.3,3.7,6.2-.4,1.9,1.5,4.8,2.2,6.4.7,1.6-2.6,8.3-3.7,9.2.5-.7,1.5-5.2.9-7.4-.6-2.2-1.8-2.5-2.3-3.8-.6-1.2.4-2.5-.2-4.7-.6-2.2-2-2.5-3-4-1.1-1.5-.8-3-1.6-3.4-.8-.4-2.9.8-2.8,2.6,0,1.8,2,2.5,2.7,4.3.7,1.8-.3,4.7-.8,6.2-.4,1.2,1.1,5.1,1.9,6.9-.8-.8-2.7-2.7-3.8-4.2-1.4-1.8.3-5.3-.2-7.1-.5-1.9-2.4-3.2-2.9-4.4-.6-1.2,0-2.6-.2-4.1-.2-1.5-3-.6-3.5.9-.5,1.5,2.5,3.5,2.8,5.4.3,1.9-.8,5.9-1.8,8.1,0-.5,0-2.4,0-5.4,0-3.8-2.2-3.2-3.6-5.8Z"/>
  <path class="cls-13" d="M120.7,425.7c-1.3-3-.4-7.3.4-8.7l17,.3c1.2,2.4,1.5,2.1,2.2,4.7.7,2.6-.8,3.9,0,6.7.8,2.9,1.6,5.7,1.4,8.3s1.9,3.4,2.7,5.7c.8,2.3.7,7.1,2.5,11.1-1.4-1.3-4.4-5-5.3-8.1-.8-3.1-2.3-4.7-3-6.5-.7-1.8.4-3.2-.5-6.3-.8-3.1-2.3-3.6-3.5-5.8-1.2-2.2-1.1-4.2-1.9-4.8-.8-.6-2.9.8-2.7,3.2.2,2.5,2.3,3.6,3.2,6.1.9,2.6.2,6.4-.2,8.4-.3,1.6,2.2,10.3,2,12.9-.4-2.4-2.4-7.2-3.7-9.3-1.6-2.6-.2-7.2-.9-9.8-.7-2.6-2.8-4.6-3.5-6.3-.7-1.8-.3-3.6-.6-5.7-.4-2.1-3.2-1.1-3.5.9-.3,2,2.9,5.1,3.4,7.7.5,2.7-.3,8-1,10.9,0-.7-.2-3.2-.5-7.4-.3-5.2-2.6-4.6-4.2-8.4Z"/>
  <path class="cls-13" d="M295.1,90.9c-.3-2.9-2.5-8.3-3.6-9l-10.9,7.9c.2,2.4-.1,5.5.5,7.9.6,2.3,1.8,3.5,2.5,6.1.7,2.6-.5,6.9.7,8.8,1.2,1.9,1.5,6.1,1.9,8.2.4,2.1,6.1,7.9,7.3,8.3-.7-.6-3.7-5-4.5-7.8-.8-2.8,0-3.7-.4-5.4-.3-1.7-1.6-2.6-2.3-5.4-.8-2.8,0-3.8,0-6,0-2.2-2-6.7-1.2-7.1,1-.5,2.5.7,3.4,2.7.9,2,.3,5,.8,7.4.5,2.4,2.6,5,3.7,6.5.9,1.2,1.9,6.2,2.3,8.6.1-1.3.4-4.4.4-6.6,0-2.7-3-5.7-3.6-8-.6-2.3,0-4.7-.3-6.4-.3-1.7-2-5.2-2.6-7-.7-1.8,1.4-1.1,2.5.3,1.1,1.4,1.7,5.3,2.5,7.6.8,2.3,2,3.1,3.7,5-.3-.6-.4-4.2-2-7.5-2-4.2-.4-5.3-.8-9Z"/>
  <path class="cls-6" d="M565.7,396.4c-3.7,3.2-1.7,9.5-.2,12.2l4.1-.9c.7-2.1,1.8-7,1.8-8.1,0-1.3-1.1-1.6-1.4-2.9-.3-1.3,2.5-3.4,3.6-4.7,1.1-1.3,2.3-4.3,2.5-5-.5.8-4,2.3-5.4,3.7-1.4,1.4-.4,1.7-5,5.8Z"/>
  <path class="cls-48" d="M565.7,396.4c-3.7,3.2-1.7,9.5-.2,12.2l4.1-.9c.7-2.1,1.8-7,1.8-8.1,0-1.3-1.1-1.6-1.4-2.9-.3-1.3,2.5-3.4,3.6-4.7,1.1-1.3,2.3-4.3,2.5-5-.5.8-4,2.3-5.4,3.7-1.4,1.4-.4,1.7-5,5.8Z"/>
  <path class="cls-8" d="M574.9,389.5c.4-.3.5-.8.2-1.1s-.8-.4-1.1-.2l.9,1.3ZM571.5,391.7l-.7-.4.7.4ZM567.9,399.2h.8c0-.1-.8,0-.8,0ZM573.9,388.2c-.4.3-1,.7-1.6,1.3-.6.5-1.2,1.2-1.6,1.8l1.4.8c.3-.4.7-.9,1.3-1.4.5-.5,1.1-.9,1.4-1.1l-.9-1.3ZM570.8,391.3c-.4.7-.8,1.4-1.3,2.1-.5.7-.9,1.3-1.4,1.7l1.1,1.2c.6-.5,1.1-1.3,1.6-2,.5-.7.9-1.6,1.3-2.2l-1.4-.8ZM568.1,395.2c-.6.6-1,1.1-1.1,1.9-.1.7,0,1.4,0,2.3l1.6-.2c-.1-.9-.2-1.4,0-1.8,0-.3.2-.6.6-1l-1.1-1.2ZM567.1,399.4c0,.6,0,2.2,0,3.9,0,1.7-.2,3.5-.4,4.7h1.6c.1-1,.3-2.9.4-4.6,0-1.7.2-3.4,0-4.2l-1.6.2Z"/>
  <path class="cls-6" d="M563,397c-.5,2.3-1.2,9-.4,12.3l3.6-.8c-.1-1.3-1.4-2.6-1.9-5-.5-2.5,4-4.1,4-8.8,0-3.8-2.1-7.7-3.2-9.2,0,.9-.2,3.2-.5,5.5-.4,2.8-1,3.2-1.6,6Z"/>
  <path class="cls-45" d="M563,397c-.5,2.3-1.2,9-.4,12.3l3.6-.8c-.1-1.3-1.4-2.6-1.9-5-.5-2.5,4-4.1,4-8.8,0-3.8-2.1-7.7-3.2-9.2,0,.9-.2,3.2-.5,5.5-.4,2.8-1,3.2-1.6,6Z"/>
  <path class="cls-8" d="M562.9,403.7h.8c0,0-.8,0-.8,0ZM565.5,396.7l.7.4-.7-.4ZM566.5,387.5c0-.4-.5-.7-.9-.6-.4,0-.7.5-.6.9l1.6-.3ZM565,408.7c-.2-.6-.6-1.5-.9-2.5-.3-1-.5-1.9-.4-2.4h-1.6c0,.7.2,1.9.5,2.9.3,1,.7,2,1,2.7l1.5-.6ZM563.7,403.8c.2-1.6,1-4.4,2.5-6.6l-1.3-.9c-1.6,2.4-2.5,5.6-2.7,7.4h1.6ZM566.1,397.1c.4-.6.6-1.4.7-2.2.1-.8.1-1.7.1-2.6,0-1.8-.3-3.6-.6-4.8l-1.6.3c.2,1.1.5,2.8.5,4.5,0,.8,0,1.7-.1,2.3-.1.7-.3,1.2-.5,1.5l1.3.9Z"/>
  <path class="cls-6" d="M555.7,400.7c.4-1.5-1.1-5-1.9-6.6,1,.8,3.1,2.7,3.5,3.2.5.6,2.2,1.7,2.1,3.6,0,1.9.5,4.1.6,5.2l-2.7.6s-1.5-1.8-1.9-2.8c-.4-1,0-1.7.3-3.2Z"/>
  <path class="cls-46" d="M555.7,400.7c.4-1.5-1.1-5-1.9-6.6,1,.8,3.1,2.7,3.5,3.2.5.6,2.2,1.7,2.1,3.6,0,1.9.5,4.1.6,5.2l-2.7.6s-1.5-1.8-1.9-2.8c-.4-1,0-1.7.3-3.2Z"/>
  <path class="cls-8" d="M556.9,403.1h-.8c0,0,.8,0,.8,0ZM556.7,396.7c-.2-.4-.7-.6-1.1-.4-.4.2-.6.7-.4,1.1l1.5-.7ZM559.3,405.8c-.3-.3-.7-.8-1-1.3-.4-.6-.5-1-.5-1.3h-1.6c0,.7.4,1.6.8,2.1.4.6.9,1.2,1.1,1.5l1.2-1ZM557.7,403.2c0-.5.2-.6.4-1,.1-.2.3-.4.3-.8,0-.3,0-.7,0-1.1l-1.6.3c0,.3,0,.4,0,.5,0,0,0,.2-.1.3-.2.3-.6.8-.6,1.7h1.6ZM558.5,400.3c-.2-.8-.5-1.5-.9-2.1-.4-.6-.7-1.1-.9-1.5l-1.5.7c.2.5.7,1.2.9,1.7.3.5.6,1.1.7,1.6l1.6-.3Z"/>
  <path class="cls-6" d="M558.5,403.6c-.9,1.7.5,4.9,1.3,6.4l3.6-.8c-.4-1-1.2-3.3-.9-4.4.3-1.1,1.1-2.8,1.5-3.5.4-.7.5-2.7-.5-3.9-1.2-1.6-1.1-2.9-1.6-4.4-.4-1.5-3.1-3.2-4.3-4.1-1-.7-1.5-2-1.6-2.5-.2.4-.9,1.7-1.3,3.1-.6,1.8,1.2,3.8,2,5.1s2.4,2.9,3.1,4.6c.6,1.7,0,2.2-1.2,4.3Z"/>
  <path class="cls-47" d="M558.5,403.6c-.9,1.7.5,4.9,1.3,6.4l3.6-.8c-.4-1-1.2-3.3-.9-4.4.3-1.1,1.1-2.8,1.5-3.5.4-.7.5-2.7-.5-3.9-1.2-1.6-1.1-2.9-1.6-4.4-.4-1.5-3.1-3.2-4.3-4.1-1-.7-1.5-2-1.6-2.5-.2.4-.9,1.7-1.3,3.1-.6,1.8,1.2,3.8,2,5.1s2.4,2.9,3.1,4.6c.6,1.7,0,2.2-1.2,4.3Z"/>
  <path class="cls-8" d="M560.2,404.4l.8.3-.8-.3ZM556.8,387.6c0-.4-.3-.8-.7-.8-.4,0-.8.3-.9.8h1.6ZM562.2,409.2c-.3-.7-.7-1.7-.9-2.7-.1-.5-.2-.9-.3-1.3,0-.2,0-.3,0-.4,0-.1,0-.2,0-.2l-1.5-.5c-.2.4-.1.9,0,1.4,0,.5.2,1,.3,1.5.3,1,.7,2.1,1,2.8l1.5-.6ZM561,404.7c.2-.5.5-1,.9-1.5.2-.3.4-.5.5-.8.1-.2.3-.5.4-.8l-1.5-.4s0,.1-.2.4c-.1.2-.3.4-.5.7-.3.5-.8,1.2-1,1.9l1.5.5ZM562.7,401.6c.1-.4.2-1.1.1-1.8,0-.7-.2-1.6-.6-2.2l-1.3.9c.2.3.3.8.4,1.4,0,.6,0,1.1,0,1.3l1.5.4ZM562.2,397.5c-.3-.4-.8-1.3-1.3-2.2-.5-.8-1-1.7-1.3-2.1l-1.3.9c.2.3.7,1.1,1.2,1.9.5.8,1,1.8,1.3,2.2l1.3-.9ZM559.7,393.3c-.1-.2-.4-.5-.6-.7-.2-.3-.5-.6-.8-.9-.3-.3-.5-.6-.7-.9-.2-.3-.3-.5-.4-.7l-1.5.5c.1.4.3.8.6,1.1.2.4.5.7.8,1.1.3.3.6.7.8.9.3.3.4.5.5.6l1.3-.9ZM557.2,390c-.2-.6-.3-.9-.3-1.2,0-.3,0-.6,0-1.2h-1.6c0,.6,0,1,0,1.5,0,.4.2.8.4,1.3l1.5-.5Z"/>
  <path class="cls-6" d="M558.1,404.7c1.2.9,1.9,3.8,2.1,5.1l-4.3.9-.7-3.4c-.4-2.1-2-2.8-3.1-4.1-1.1-1.3-1.5-2.2-1.4-4.4,0-1.8-2.3-4.2-3.4-5.5,1,.6,3.4,1.3,4.7,2,1.7.8,2,2,2.5,3.2s.3,1.5.6,3.2c.3,1.6,1.7,2.1,2.9,3Z"/>
  <path class="cls-42" d="M558.1,404.7c1.2.9,1.9,3.8,2.1,5.1l-4.3.9-.7-3.4c-.4-2.1-2-2.8-3.1-4.1-1.1-1.3-1.5-2.2-1.4-4.4,0-1.8-2.3-4.2-3.4-5.5,1,.6,3.4,1.3,4.7,2,1.7.8,2,2,2.5,3.2s.3,1.5.6,3.2c.3,1.6,1.7,2.1,2.9,3Z"/>
  <path class="cls-8" d="M557,405.9l.5-.6-.5.6ZM554,402.7l.7-.4-.7.4ZM552.8,398.3l-.7.4.7-.4ZM550.4,394.4c-.4-.2-.9,0-1.1.3-.2.4,0,.9.3,1.1l.8-1.4ZM558.9,410.3c0-.6,0-1.5-.2-2.4-.2-.9-.5-1.9-1.2-2.5l-1.1,1.2c.3.3.5.8.7,1.7.1.8.2,1.6.2,2.1h1.6ZM557.6,405.3c-1.3-1.2-2.2-1.9-2.9-3l-1.4.8c.8,1.4,2.1,2.3,3.2,3.3l1.1-1.2ZM554.7,402.3c-.2-.4-.3-1-.5-1.8-.1-.8-.2-1.7-.7-2.6l-1.4.7c.3.5.4,1.2.5,2.1.1.8.2,1.7.7,2.4l1.4-.8ZM553.5,397.9c-.8-1.5-1.8-2.8-3.2-3.5l-.8,1.4c1,.5,1.8,1.5,2.5,2.8l1.4-.7Z"/>
  <path class="cls-6" d="M566.7,402.7c-.8,1.3-.9,4.5-.8,5.9l4.8-1c-.2-.2-.8-.8-1.2-1.8-.5-1.2,1-2.6,1.7-4,.7-1.4,0-2.2,0-3.7-.1-1.2,1.7-3.7,2.6-4.8-.7.3-2.2,1.2-3,1.8-1.1.8-1.5,2.1-1.6,3.4-.1,1.3-1.5,2.6-2.5,4.2Z"/>
  <path class="cls-37" d="M566.7,402.7c-.8,1.3-.9,4.5-.8,5.9l4.8-1c-.2-.2-.8-.8-1.2-1.8-.5-1.2,1-2.6,1.7-4,.7-1.4,0-2.2,0-3.7-.1-1.2,1.7-3.7,2.6-4.8-.7.3-2.2,1.2-3,1.8-1.1.8-1.5,2.1-1.6,3.4-.1,1.3-1.5,2.6-2.5,4.2Z"/>
  <path class="cls-8" d="M567.7,405.5l.8.3-.8-.3ZM572,396c.3-.3.4-.8.1-1.1-.3-.3-.8-.4-1.1-.1l1,1.2ZM568.8,407.5s0,0,0,0c0,0,0,0,0-.2,0-.1-.1-.3-.2-.5-.1-.4-.1-.8,0-1l-1.5-.5c-.3.7-.2,1.4,0,2,.2.5.4,1.1.7,1.3l1.2-1.1ZM568.4,405.8c.4-1.2.8-2,1.6-3.2l-1.3-.9c-.9,1.4-1.3,2.3-1.8,3.5l1.5.5ZM570,402.6c.5-.7.8-1.4.9-2,.1-.6,0-1.2,0-1.7l-1.6.2c0,.5,0,.8,0,1.2,0,.4-.3.8-.6,1.4l1.3.9ZM570.9,398.9c0-.3,0-.9.2-1.5.2-.6.5-1.1.9-1.4l-1-1.2c-.7.5-1.1,1.4-1.4,2.1-.3.8-.4,1.6-.3,2.2l1.6-.2Z"/>
  <path class="cls-6" d="M662.4,332.9c-2.4,4.7,2.3,12.5,5,15.9l3.8-1.7c-.2-2.9-1.1-9.4-1.6-10.8-.6-1.8-1.8-2-2.6-3.6-.8-1.6,1.1-4.8,1.7-6.7.6-1.9.5-5.9.4-6.8-.2,1.1-3.1,3.5-4,5.5-.9,2,.3,2.3-2.7,8.2Z"/>
  <path class="cls-44" d="M662.4,332.9c-2.4,4.7,2.3,12.5,5,15.9l3.8-1.7c-.2-2.9-1.1-9.4-1.6-10.8-.6-1.8-1.8-2-2.6-3.6-.8-1.6,1.1-4.8,1.7-6.7.6-1.9.5-5.9.4-6.8-.2,1.1-3.1,3.5-4,5.5-.9,2,.3,2.3-2.7,8.2Z"/>
  <path class="cls-8" d="M668.7,322.3c.2-.4.1-.8-.2-1.1-.4-.2-.9-.1-1.1.2l1.4.9ZM666.3,326h-.8c0,0,.8,0,.8,0ZM665.8,336.3l.8-.3-.8.3ZM667.4,321.4c-.3.4-.7,1.1-1.1,1.9-.4.8-.7,1.7-.8,2.5l1.6.2c0-.6.4-1.4.7-2.1.3-.7.7-1.3,1-1.7l-1.4-.9ZM665.5,325.9c-.1.9-.2,2-.4,3-.2,1-.4,1.9-.7,2.5l1.5.6c.4-.8.6-1.8.8-2.9.2-1,.3-2.1.4-3l-1.6-.2ZM664.4,331.4c-.4.8-.5,1.5-.3,2.4.1.8.5,1.7,1,2.8l1.5-.6c-.5-1.2-.8-1.9-.9-2.5,0-.5,0-.9.2-1.5l-1.5-.6ZM665,336.6c.4.9,1,2.9,1.6,5.2.6,2.3,1.2,4.7,1.6,6.2l1.6-.4c-.4-1.5-1-3.9-1.6-6.2-.6-2.2-1.3-4.4-1.7-5.4l-1.5.6Z"/>
  <path class="cls-6" d="M659.9,334.1c.5,3.1,2.5,11.9,4.8,16l3.4-1.5c-.7-1.6-2.6-3.1-4.1-6.2s2.4-5.9.4-12c-1.6-4.9-5.5-9.8-7.2-11.6.3,1.2,1.1,4.2,1.8,7.2.8,3.7.3,4.3.9,8.1Z"/>
  <path class="cls-43" d="M659.9,334.1c.5,3.1,2.5,11.9,4.8,16l3.4-1.5c-.7-1.6-2.6-3.1-4.1-6.2s2.4-5.9.4-12c-1.6-4.9-5.5-9.8-7.2-11.6.3,1.2,1.1,4.2,1.8,7.2.8,3.7.3,4.3.9,8.1Z"/>
  <path class="cls-8" d="M662.6,342.8l.8-.2-.8.2ZM662.3,333.3h.8c0,.1-.8,0-.8,0ZM659.4,321.2c-.2-.4-.7-.6-1.1-.4-.4.2-.6.7-.4,1l1.5-.7ZM666.9,349.1c-.5-.7-1.3-1.9-2-3.2-.7-1.3-1.3-2.5-1.5-3.2l-1.6.4c.2,1,.9,2.4,1.7,3.6.7,1.3,1.5,2.5,2.1,3.3l1.4-.9ZM663.4,342.6c-.5-2.1-.9-6.1-.3-9.2l-1.6-.3c-.6,3.4-.2,7.5.3,9.8l1.6-.4ZM663.1,333.4c.1-.8,0-1.8-.2-2.8-.2-1-.6-2.2-1-3.3-.8-2.3-1.8-4.6-2.6-6.1l-1.5.7c.7,1.4,1.7,3.7,2.5,5.9.4,1.1.7,2.2.9,3.2.2,1,.3,1.7.2,2.2l1.6.3Z"/>
  <path class="cls-6" d="M654,339.9c-.2-2-3.3-6.4-4.8-8.3,1.4,1,4.2,3,4.9,3.6.8.7,2.9,2,3.7,4.4.7,2.5,2.2,5.3,2.9,6.7l-2.5,1.1s-2.3-2.1-3.1-3.3c-.8-1.2-.8-2.2-1-4.3Z"/>
  <path class="cls-40" d="M654,339.9c-.2-2-3.3-6.4-4.8-8.3,1.4,1,4.2,3,4.9,3.6.8.7,2.9,2,3.7,4.4.7,2.5,2.2,5.3,2.9,6.7l-2.5,1.1s-2.3-2.1-3.1-3.3c-.8-1.2-.8-2.2-1-4.3Z"/>
  <path class="cls-8" d="M656.3,342.9l-.8.2.8-.2ZM653.4,334.7c-.3-.4-.8-.4-1.1-.2-.4.2-.5.7-.2,1.1l1.3-.9ZM659.9,346.2c-.4-.4-1-1-1.6-1.6-.6-.7-1.1-1.4-1.2-1.9l-1.6.4c.2.9.9,1.8,1.6,2.5.7.7,1.4,1.4,1.7,1.7l1.1-1.1ZM657.1,342.7c-.2-.7-.1-1,0-1.5,0-.3,0-.6,0-.9,0-.4-.2-.8-.4-1.3l-1.5.7c.2.4.3.6.3.8,0,.2,0,.3,0,.5,0,.5-.2,1.1,0,2.1l1.6-.4ZM656.6,339c-.5-.9-1.1-1.7-1.7-2.4-.6-.7-1.1-1.3-1.6-1.9l-1.3.9c.5.7,1.1,1.3,1.6,2,.6.7,1.1,1.4,1.5,2.1l1.5-.7Z"/>
  <path class="cls-6" d="M658,343.3c-.2,2.4,2.6,6.4,4,8.1l3.4-1.5c-.9-1.3-2.6-4.1-2.8-5.6-.2-1.5,0-3.8,0-4.7,0-1-.6-3.5-2.2-5-1.9-1.9-2.4-3.7-3.5-5.5-1.1-1.9-4.5-3.7-6.1-4.7-1.3-.8-2.3-2.3-2.7-3,0,.6-.2,2.3,0,4.3.2,2.5,2.8,4.8,4.2,6.3,1.4,1.6,3.7,3.5,5.1,5.6,1.4,2.1.8,2.9.6,5.8Z"/>
  <path class="cls-39" d="M658,343.3c-.2,2.4,2.6,6.4,4,8.1l3.4-1.5c-.9-1.3-2.6-4.1-2.8-5.6-.2-1.5,0-3.8,0-4.7,0-1-.6-3.5-2.2-5-1.9-1.9-2.4-3.7-3.5-5.5-1.1-1.9-4.5-3.7-6.1-4.7-1.3-.8-2.3-2.3-2.7-3,0,.6-.2,2.3,0,4.3.2,2.5,2.8,4.8,4.2,6.3,1.4,1.6,3.7,3.5,5.1,5.6,1.4,2.1.8,2.9.6,5.8Z"/>
  <path class="cls-8" d="M660.2,344.1h.8s-.8,0-.8,0ZM649.5,322.6c-.1-.4-.6-.7-1-.6-.4.1-.7.5-.6,1l1.6-.4ZM664.3,350.2c-.6-.8-1.4-2.1-2.1-3.4-.4-.6-.7-1.2-.9-1.7-.2-.5-.3-.9-.3-1h-1.6c0,.5.2,1.1.5,1.6.3.6.6,1.2,1,1.9.7,1.3,1.6,2.6,2.2,3.5l1.4-.9ZM661,344.1c0-.7,0-1.4.2-2.2,0-.4.1-.7.2-1.1,0-.3,0-.7,0-1h-1.6c0,.3,0,.5,0,.8,0,.3-.1.6-.2,1-.1.7-.3,1.7-.3,2.5h1.6ZM661.4,339.8c0-.5-.3-1.4-.6-2.3-.3-.9-.8-1.9-1.4-2.5l-1.2,1c.4.4.8,1.2,1.1,2,.3.8.5,1.6.5,1.9h1.6ZM659.4,335c-.5-.5-1.4-1.6-2.2-2.6-.8-1-1.7-2.1-2.1-2.5l-1.2,1.1c.4.4,1.2,1.3,2,2.4.9,1,1.8,2.1,2.3,2.7l1.2-1ZM655.1,329.9c-.4-.4-1.3-1.2-2.1-1.9-.9-.8-1.6-1.6-1.9-2.1l-1.4.8c.5.8,1.4,1.7,2.2,2.5.9.8,1.7,1.5,2.1,1.9l1.2-1.1ZM651,325.8c-.8-1.4-1.1-1.7-1.5-3.2l-1.6.4c.5,1.7.8,2.2,1.6,3.6l1.4-.8Z"/>
  <path class="cls-6" d="M658.1,344.8c1.6,1,3.5,4.6,4.3,6.4l-4,1.8-2.2-4.3c-1.3-2.7-3.2-3.4-4.9-4.9-1.7-1.5-2.4-2.6-3.2-5.5-.7-2.3-4.1-5.1-5.8-6.6,1.3.7,4,1.2,5.7,1.9,2,.9,2.8,2.3,3.9,3.8,1.1,1.5,1,1.9,2,4,1,2.1,2.6,2.5,4.2,3.5Z"/>
  <path class="cls-38" d="M658.1,344.8c1.6,1,3.5,4.6,4.3,6.4l-4,1.8-2.2-4.3c-1.3-2.7-3.2-3.4-4.9-4.9-1.7-1.5-2.4-2.6-3.2-5.5-.7-2.3-4.1-5.1-5.8-6.6,1.3.7,4,1.2,5.7,1.9,2,.9,2.8,2.3,3.9,3.8,1.1,1.5,1,1.9,2,4,1,2.1,2.6,2.5,4.2,3.5Z"/>
  <path class="cls-8" d="M657.5,346.5l.5-.6-.5.6ZM653.1,342.8l.6-.5-.6.5ZM650,337.2l-.7.5.7-.5ZM646.1,332.8c-.4-.2-.9,0-1.1.4-.2.4,0,.9.4,1l.7-1.4ZM661.3,351.8c-.2-.7-.6-1.9-1.2-3-.5-1.1-1.2-2.3-2.1-2.9l-1,1.2c.5.4,1.1,1.2,1.6,2.3.5,1,.9,2.1,1.1,2.8l1.6-.4ZM658,345.8c-1.7-1.3-3.1-2.1-4.3-3.6l-1.3,1c1.4,1.6,3,2.6,4.6,3.8l1-1.2ZM653.7,342.3c-.5-.6-.9-1.5-1.4-2.5-.4-1-1-2.2-1.7-3.1l-1.3.9c.6.7,1,1.7,1.5,2.8.4,1,.9,2.1,1.6,2.9l1.3-1ZM650.7,336.7c-1.4-1.7-2.9-3.2-4.5-3.9l-.7,1.4c1.3.5,2.6,1.7,3.9,3.4l1.3-.9Z"/>
  <path class="cls-6" d="M666.1,341c-.3,1.9,1,6,1.6,7.8l4.5-2c-.3-.2-1.1-1-2-2.2-1-1.5,0-3.6,0-5.5.1-1.9-.9-2.8-1.6-4.8-.6-1.6.2-5.1.7-6.6-.5.5-1.7,1.9-2.3,2.8-.7,1.2-.6,3-.2,4.7.4,1.7-.4,3.6-.8,5.9Z"/>
  <path class="cls-41" d="M666.1,341c-.3,1.9,1,6,1.6,7.8l4.5-2c-.3-.2-1.1-1-2-2.2-1-1.5,0-3.6,0-5.5.1-1.9-.9-2.8-1.6-4.8-.6-1.6.2-5.1.7-6.6-.5.5-1.7,1.9-2.3,2.8-.7,1.2-.6,3-.2,4.7.4,1.7-.4,3.6-.8,5.9Z"/>
  <path class="cls-8" d="M668.2,344.5h.8s-.8,0-.8,0ZM668.6,331.1c.2-.4,0-.9-.3-1.1-.4-.2-.9,0-1.1.3l1.4.8ZM670.3,347.1c-.1-.1-.4-.5-.8-1-.3-.5-.5-1.1-.6-1.6h-1.6c0,.9.4,1.7.8,2.4.4.6.8,1.2,1.1,1.5l1.1-1.2ZM669,344.5c0-1.6,0-2.7.3-4.4l-1.6-.3c-.4,1.9-.4,3.1-.3,4.8h1.6ZM669.3,340.1c.4-2,0-3.3-.6-4.7l-1.5.6c.5,1.2.8,2.2.5,3.8l1.6.3ZM668.7,335.4c-.2-.5-.4-1.4-.4-2.2,0-.9,0-1.6.3-2l-1.4-.8c-.5.8-.6,1.9-.5,2.8,0,1,.3,2,.6,2.7l1.5-.6Z"/>
  <g class="cls-50">
    <path class="cls-29" d="M313.7,371.6l-20,1.4L289.1.1l24.6,371.5Z"/>
    <path class="cls-29" d="M499.5,416.2L467.1,4.5l45.8,410.7-13.5,1Z"/>
    <path class="cls-29" d="M206.7,420.4L.2,299.2l231.9,122-25.4-.9Z"/>
    <path class="cls-29" d="M318.7,397.6c-4.6,5.5-1.1,17.1,1.2,22.1l5.5-1.2c.6-3.8,1.6-12.6,1.4-14.6-.2-2.5-1.7-3.1-2.2-5.4s3-6,4.3-8.3c1.3-2.3,2.5-7.6,2.8-8.8-.6,1.4-5.1,3.8-6.9,6.2-1.7,2.4-.4,3.1-6.1,10Z"/>
    <path class="cls-29" d="M315.2,398.5c-.4,4.1-.6,16.3,1,22.3l4.8-1.1c-.3-2.3-2.3-4.8-3.2-9.3-1-4.5,4.9-7,4.4-15.6-.4-6.9-3.8-14.3-5.5-17.1,0,1.6,0,5.9,0,9.9-.1,5.1-1,5.7-1.5,10.9Z"/>
    <path class="cls-29" d="M305.7,404.5c.3-2.7-2.1-9.3-3.4-12.2,1.4,1.6,4.5,5.1,5.1,6.1.8,1.2,3.1,3.4,3.3,6.8.2,3.4,1.1,7.5,1.5,9.6l-3.5.8s-2.3-3.3-2.9-5.2c-.7-1.8-.3-3.1,0-5.9Z"/>
    <path class="cls-29" d="M309.8,410.1c-1,3,1.3,9,2.5,11.7l4.8-1.1c-.7-1.9-2-6.1-1.7-8.1.2-2,1.1-4.9,1.5-6.2.4-1.2.3-4.8-1.2-7.2-1.8-3-1.9-5.5-2.7-8.2-.8-2.7-4.5-6.1-6.3-7.8-1.4-1.4-2.2-3.7-2.5-4.7-.3.8-1,3-1.4,5.6-.6,3.3,2,7,3.3,9.5,1.3,2.4,3.6,5.5,4.7,8.7,1.1,3.2.1,4-1.1,7.8Z"/>
    <path class="cls-29" d="M309.4,412.1c1.7,1.8,3,7,3.5,9.5l-5.7,1.3-1.4-6.3c-.8-3.8-3-5.3-4.6-7.7-1.7-2.4-2.2-4.1-2.4-8.1-.1-3.2-3.6-7.8-5.3-10.3,1.4,1.2,4.8,2.7,6.6,4.1,2.3,1.7,2.9,3.7,3.8,6,.9,2.3.6,2.8,1.3,5.8.7,3,2.5,3.9,4.3,5.7Z"/>
    <path class="cls-29" d="M320.9,409.3c-.9,2.4-.6,8.1-.4,10.6l6.4-1.4c-.3-.4-1.1-1.6-1.8-3.4-.8-2.2,1.1-4.7,1.8-7.2.8-2.4-.2-3.9-.6-6.7-.3-2.2,1.9-6.6,3-8.5-.9.6-2.8,2-3.9,3-1.3,1.4-1.7,3.7-1.7,6.1,0,2.4-1.7,4.5-2.9,7.5Z"/>
    <path class="cls-29" d="M331.1,381.3l-103.6,15.6,2.3-6.6,103.5-17-2.2,8Z"/>
    <path class="cls-29" d="M324.4,418.8l-87.3-25.2-9.7,1.6-.3,23.3,97.2.3Z"/>
    <path class="cls-29" d="M331.8,420.1l3.8-20.9,92.4.6,15.2,18.6-111.4,1.7Z"/>
    <polygon class="cls-29" points="240.1 393.4 242 393.2 242.9 420 240.9 420.2 240.1 393.4"/>
    <polygon class="cls-29" points="255.3 392.3 257.2 392.2 256.9 419.1 255 419.1 255.3 392.3"/>
    <path class="cls-29" d="M266,389.6h2.3c0,0-.4,29.9-.4,29.9h-2.3c0,0,.4-29.9.4-29.9Z"/>
    <path class="cls-29" d="M275.4,388.8h2.3c0,0-.4,29.9-.4,29.9h-2.3c0,0,.4-29.9.4-29.9Z"/>
    <path class="cls-29" d="M309.3,381.9h4.2s-3.1,38.5-3.1,38.5l-4.4.3,3.2-38.8Z"/>
    <path class="cls-29" d="M321.8,381.2l4.4-.3-4.3,40.1-4.7.3,4.6-40.1Z"/>
    <polygon class="cls-29" points="370.4 381.9 373.9 381.2 373.2 398.7 369.8 399.4 370.4 381.9"/>
    <polygon class="cls-29" points="381.9 380.3 386 379.5 385.3 397 381.2 397.8 381.9 380.3"/>
    <path class="cls-17" d="M612.3,198.6s-24.6,43-18.1,78.3c6.5,35.4,23,79.5,23,79.5l-209.4,36.3s-23.9-27.9-24.8-57.4c-.9-29.5,10.7-50.5,10.7-50.5l218.7-86.3ZM520.8,301.8c.8,6.3,1.2,18.4-3.7,16.7-4.9-1.8-10.7-15.8-13-22.6,1,10.6,1.7,31.2-3.2,28.7-4.5-2.4-6.9-8-7.7-11.1,0-.3-.1-.5-.2-.8,0,.2.1.5.2.8,1.5,7.1.1,23.9-3.2,19.3.4,1.9,2.8,4.7,5.6,8.1,4.9,5.8,11,13.2,10.4,19.5,1-.8,1.8-3.9,2.8-7.4,1.3-4.7,2.8-10.1,4.9-11.1,4.7-2.3,5.7,3.3,6.2,12.5.3-.7.8-1.6,1.3-2.8,3.4-7,10.6-21.6,9-26.9-2.7,4.5-6.3-9.7-8.4-18.3-.5-1.8-.9-3.4-1.2-4.5Z"/>
    <g class="cls-49">
      <rect class="cls-5" x="334.1" y="191.2" width="432.9" height="271.6" transform="translate(-66 154.1) rotate(-15)"/>
    </g>
    <path class="cls-17" d="M550.5,396.9l-92.9,21.9c-.9,0-1.9,0-2.7,0l-32.8-36.6-90.2-9.3-7.9,45.8-36.2-.6-59.6-.3,2.7-24.8-5.3,1.7-5.9,24.6-193.3-4.7,3.5,3.8s154.2,42.4,165.3,51.5c3.9,3.2,8.2,12.1,13.4,22.7h0c9.3,19.2,21.4,44.1,39.3,52.4,27.8,12.8,441.8-30.8,462-55.5,20.3-24.7,23.8-35.7,22.6-45.1-1.1-8.3-13.1-37.8-15.6-43.9l11-10-15-60.3-40.8,9.2-121.7,45.4.4,12.1ZM338.4,381.5l-1.6,12.7,88,1.4-5.7-10.3-80.7-3.7ZM168.4,445.9l-21.1-2.5,1.7-7.3s3.3-3.8,11.1-3.5c7.8.3,9.5,6,9.5,6l-1.2,7.3ZM173.8,446.6l21.1,2.5,1.2-7.3s-1.6-5.7-9.5-6.1c-7.8-.3-11.1,3.5-11.1,3.5l-1.7,7.3Z"/>
    <g class="cls-57">
      <rect class="cls-5" x="96.4" y="309.4" width="752.3" height="459.1" transform="translate(-123.7 141.1) rotate(-15)"/>
    </g>
    <path class="cls-29" d="M228,450.1l-23.7-.8,1.1-8.1s3.2-4.5,12-4.9c8.7-.4,11.2,5.7,11.2,5.7l-.6,8.1Z"/>
    <path class="cls-29" d="M261.1,450.4l-26,.7.8-8.6s3.3-4.9,12.9-5.8c9.6-.9,12.6,5.3,12.6,5.3l-.2,8.5Z"/>
    <path class="cls-17" d="M102.2,389.2c-1.3-27.2,26.6-56.1,26.6-56.1l-91.1,41.8s-21.8,24.4-22,48.1c-.2,23.8,12.2,47.1,12.2,47.1l31.3-7.7c-4.1-4-8.5-9.9-9.5-16.1,4.1,5.2,7.4,5.4,10.4,5.6,2.3.1,4.3.3,6.3,2.8-.6-1.5-1.5-3.5-2.5-5.9-3.6-8-8.7-19.4-6.7-24.1,4.5,6.9,10.1,9.5,15.6,12,4.3,2,8.6,3.9,12.2,7.9-.4-2.3-1.5-4.9-2.7-7.9-2.9-7.4-6.8-17.2-5.2-29.6,3.2,3.7,5.5,6.6,7.5,9,4.9,6.1,7.3,9.1,13.9,12.9-2.4-8.7,0-15.2,2-21.3,1.3-3.7,2.6-7.3,2.6-11.1-.5-2.5-.8-5-.9-7.4ZM87,398.8c-3.6-2.6-9.9-17.3-6.7-19.2,0,0,2.9,3.6,4.2,3.3,1.2-.3,2.5-3.9,2.5-3.9,1.8,3.3,5.4,10.1,6.8,13-.8-.7-1.5-1.4-2.2-2.2-1.4-1.5-2.8-2.9-4-3.1-1.1-.2.5,3.7,1.2,5.6h0c.1.4.3.7.3.8-1.1-1-3.1.6-2,5.7Z"/>
    <g class="cls-54">
      <rect class="cls-5" x="-6.3" y="328.4" width="195.2" height="172.1" transform="translate(-104.4 37.9) rotate(-15)"/>
    </g>
    <path class="cls-17" d="M332.7,51.7s-8.1,39.5,2.3,76.4c10.4,36.9,44.5,63.2,44.5,63.2l-170.3,86.9s-26.4-31.3-18.3-69.9c8.1-38.7,59.1-96,59.1-96l82.7-60.5ZM304,95.4c-1.8,20.5-6.2,58.8-9.9,47.5-3.7-11.3-6.7-29.2-7.7-36.8-.1,17.7-2,52.1-8.5,47.7-6.1-4.2-10.3-15.1-11.8-20.8,0-.3-.2-.6-.2-.9,0,.3.1.6.2.9,3.4,13.3,8.1,36.9,1.4,31.7-3.4-2.7-3,.2-2.5,3.3.5,3,1,6.2-2.3,4.1,5.6,7.8,17,21.6,20.6,11.3,3.6-10.3,2.1-19.3.6-22.3,3.9,6,12.7,17.5,17.3,15.3,5.8-2.8,4.3-24.1,3.4-28.4,2.1,3.3,14.6,14.1,14.8,8.3.1-4.7-10.1-42.5-15.3-60.8Z"/>
    <g class="cls-53">
      <rect class="cls-5" x="151.3" y="72.1" width="233.9" height="201.4" transform="translate(-35.6 75.5) rotate(-15)"/>
    </g>
    <path class="cls-29" d="M212.6,294.1l3.2-5.6,170.2-91.3-3.2,6.5-170.2,90.4Z"/>
    <path class="cls-29" d="M33.4,379.8l1.4-3.6,94-43.5-3.4,4.7-92,42.4Z"/>
    <path class="cls-29" d="M391.7,288.1l4.9-6.3,217.1-84.2-5,7.4-217,83.1Z"/>
    <path class="cls-17" d="M387.5,197.9s-18.9,52.9-12.4,88.2c6.5,35.4,41.1,67,41.1,67l-192.2,43.6s-28.3-32.9-28.1-56.7c.2-23.8,20.4-52.1,20.4-52.1l171.1-90.1ZM235.6,301.8l-5.4,14c-1.9-2-2.5-1.5-3-1.1-.5.4-1,.8-2.8-1.2-1.2,10.1,12,35.9,9.1,22.2-1.8-8.7-1-9.6-.6-9.9,0,0,.1-.1.1-.3,3.5,7.2,8.1,16.8,10.6,20.3,3.1,4.3.9-7.5-.6-14.7-.8-4,1.6-1.4,4.5,1.5,2.3,2.4,5,5.1,6.2,4.7,2.9-.9.2-29.2-.2-32.7-.1-1.1-.4,0-.8,2.3-.8,4.3-2.3,12.3-5.3,12.4-2.3.1-5.9-6.6-8.6-11.8-1.4-2.7-2.6-5-3.4-5.7Z"/>
    <g class="cls-56">
      <rect class="cls-5" x="174.2" y="210.2" width="326.2" height="230.7" transform="translate(-72.9 98.7) rotate(-15)"/>
    </g>
    <path class="cls-29" d="M423.7,119.6l2.5-4.5,106.8-62.3-2.6,5.3-106.7,61.6Z"/>
    <path class="cls-17" d="M531.2,54.2s-8.3,31.9,12.5,72.6c20.8,40.6,63.1,65.9,63.1,65.9l-218.7,87.6s-17.7-36.8-9.6-75.5c8.1-38.7,48.1-89.4,48.1-89.4l104.6-61.2ZM518.5,133.7c-1.2,14.5-4.2,42.6-6.5,38.7-2.4-3.9-18-31.4-25.5-44.7,2.2,15.2,5.2,44.1,0,37.8-5.3-6.3-9.1-18.6-10.3-23.9.9,11.2,2,33.4-.7,32.4s-7.4-11-9.4-15.8c-1.5,10.6-5.5,30.9-10.2,26.7-4.6-4.2-10.3-8.3-12.6-9.8,5,13.2,13.4,38.5,7.1,33.7-6.3-4.8-9.2-7.6-9.8-8.4,3.7,11.7,11.2,33.9,12,29.3,1-5.8,9.8-20.3,13.4-20.6,1.5-.1,5,2.8,8.6,5.9,4.8,4,9.8,8.2,10.7,5.7,1.6-4.4,8.1-20.7,13.5-22.6,2.2-.8,7,.9,12.1,2.7,7.2,2.6,15.3,5.5,18.5,2.1,4.3-4.6-5.5-48-10.9-69.1Z"/>
    <g class="cls-55">
      <rect class="cls-5" x="336.1" y="57.5" width="262.4" height="209.5" transform="translate(-26.1 126.8) rotate(-15)"/>
    </g>
    <path class="cls-29" d="M248.5,525.4l-4.8-13.1s236-17.1,276.4-20.5c40.5-3.3,208.3-26.4,208.3-26.4l-12.8,12.6s-130.2,24-195.1,28.6c-64.8,4.6-272.1,18.8-272.1,18.8Z"/>
    <polygon class="cls-29" points="461.8 436.8 479.3 435.6 479.9 454.3 462.4 455.6 461.8 436.8"/>
    <polygon class="cls-29" points="498.8 434.2 516.3 432.1 518.1 450.7 500.6 452.9 498.8 434.2"/>
    <polygon class="cls-29" points="536.8 430.2 554.3 427.6 556.6 446.2 539.1 448.7 536.8 430.2"/>
    <polygon class="cls-29" points="700.4 427.4 756.9 415.9 760.8 436.7 704.4 448.2 700.4 427.4"/>
    <polygon class="cls-29" points="282.5 62.6 300 62.8 299.7 68.2 282.1 68 282.5 62.6"/>
    <polygon class="cls-29" points="284.5 52.5 297.4 52.6 297.2 56.1 284.2 56 284.5 52.5"/>
    <polygon class="cls-29" points="463.5 63 481.1 63.2 480.7 68.6 463.2 68.4 463.5 63"/>
    <polygon class="cls-29" points="466 53 478.9 53.1 478.7 56.6 465.7 56.5 466 53"/>
    <path class="cls-29" d="M545.6,412.5l-90.2,6.4,94.6-21.5-.4-11.6,120.3-46.1,42.7-8.8s-124,50.9-127.4,52.5c-3.4,1.6,2,18.2-3.7,21.3-5.8,3.1-35.9,7.9-35.9,7.9Z"/>
    <polygon class="cls-29" points="710.4 426.7 713.6 426.1 716.6 444.6 713.5 445.1 710.4 426.7"/>
    <polygon class="cls-29" points="721.4 424.2 724.5 423.6 727.6 442.1 724.4 442.6 721.4 424.2"/>
    <polygon class="cls-29" points="734 421.5 737.1 420.9 740.2 439.4 737 440 734 421.5"/>
    <polygon class="cls-29" points="745.6 418.9 748.8 418.3 751.8 436.8 748.7 437.3 745.6 418.9"/>
    <g class="cls-52">
      <g class="cls-51">
        <path class="cls-29" d="M236.2,519.8c2-1,5.3.5,7.2,3.3s1.8,6-.2,7-5.3-.5-7.2-3.3-1.8-6,.2-7Z"/>
      </g>
      <g class="cls-51">
        <path class="cls-29" d="M248.8,522.1c1.5-.8,3.4-.4,4.3.9s.3,2.9-1.2,3.6-3.4.4-4.3-.9-.3-2.9,1.2-3.6Z"/>
      </g>
      <g class="cls-51">
        <ellipse class="cls-29" cx="249.9" cy="533.2" rx="5.5" ry="4.2" transform="translate(-135.5 88) rotate(-15.8)"/>
      </g>
      <g class="cls-51">
        <path class="cls-29" d="M273.9,487.9c1.4,1.3-.3,4.3-3.8,6.7-3.5,2.4-7.4,3.3-8.7,2s.3-4.3,3.8-6.7c3.5-2.4,7.4-3.3,8.7-2Z"/>
      </g>
      <g class="cls-51">
        <path class="cls-29" d="M271.5,498.6c1,1,.6,2.6-.9,3.7s-3.6,1.1-4.6.2-.6-2.6.9-3.7,3.6-1.1,4.6-.2Z"/>
      </g>
      <g class="cls-51">
        <path class="cls-29" d="M262.4,500.9c1.1,2,0,4.6-2.6,5.7s-5.5.3-6.6-1.7,0-4.6,2.6-5.7,5.5-.3,6.6,1.7Z"/>
      </g>
      <g class="cls-51">
        <ellipse class="cls-29" cx="237.5" cy="507.7" rx="1.8" ry="4.2" transform="translate(-320.1 450.7) rotate(-59.1)"/>
      </g>
      <g class="cls-51">
        <ellipse class="cls-29" cx="242" cy="505.8" rx="1.4" ry="1.8" transform="translate(-316.2 453.4) rotate(-59.1)"/>
      </g>
      <g class="cls-51">
        <path class="cls-29" d="M243.4,508.6c1-.9,2.7-.8,3.7.2s1.1,2.5.1,3.4-2.7.8-3.7-.2-1.1-2.5-.1-3.4Z"/>
      </g>
      <g class="cls-51">
        <ellipse class="cls-29" cx="252.8" cy="541.7" rx="2.3" ry="2.2" transform="translate(-154.4 104) rotate(-17.9)"/>
      </g>
      <g class="cls-51">
        <ellipse class="cls-29" cx="269.3" cy="513" rx="3.4" ry="2.8" transform="translate(-132.3 95.4) rotate(-16.2)"/>
      </g>
      <g class="cls-51">
        <ellipse class="cls-29" cx="256.9" cy="527" rx="2.9" ry="2.6" transform="translate(-145.2 100.3) rotate(-17.3)"/>
      </g>
      <g class="cls-51">
        <ellipse class="cls-29" cx="247.7" cy="519.8" rx="2.1" ry="1.1" transform="translate(-129 84.3) rotate(-15.4)"/>
      </g>
      <g class="cls-51">
        <ellipse class="cls-29" cx="261.1" cy="519.6" rx="1.6" ry="1.3" transform="translate(-134.4 93.3) rotate(-16.2)"/>
      </g>
      <g class="cls-51">
        <path class="cls-29" d="M258.9,521.7c.6-.3,1.4,0,1.8.6s.2,1.3-.4,1.6-1.4,0-1.8-.6-.2-1.3.4-1.6Z"/>
      </g>
      <g class="cls-51">
        <path class="cls-29" d="M264.6,507.5c.7,0,1.2.5,1.2,1.2s-.6,1.3-1.3,1.4-1.2-.5-1.2-1.2.6-1.3,1.3-1.4Z"/>
      </g>
      <g class="cls-51">
        <path class="cls-29" d="M256.1,519.1c.6,0,1.1.4,1.1.9s-.6,1-1.2,1.1-1.1-.4-1.1-.9.6-1,1.2-1.1Z"/>
      </g>
      <g class="cls-51">
        <path class="cls-29" d="M259,494.1c0,1.4-1.5,2.8-3.6,3.1s-3.8-.6-3.8-2.1,1.5-2.8,3.6-3.1,3.8.6,3.8,2.1Z"/>
      </g>
      <g class="cls-51">
        <ellipse class="cls-29" cx="253.2" cy="477.3" rx="1.7" ry="1.3" transform="translate(-115.2 82.1) rotate(-15)"/>
      </g>
      <g class="cls-51">
        <ellipse class="cls-29" cx="249.6" cy="487.9" rx="1.7" ry="1" transform="translate(-83.4 52.7) rotate(-10.3)"/>
      </g>
      <g class="cls-51">
        <path class="cls-29" d="M251.6,484.1c-.1.5-.8.9-1.5.8s-1.1-.5-1-1,.8-.9,1.5-.8,1.1.5,1,1Z"/>
      </g>
      <g class="cls-51">
        <path class="cls-29" d="M233.5,512.8c-.4,1.4-2.4,2.5-4.4,2.3-2-.2-3.3-1.5-2.9-2.9s2.4-2.5,4.4-2.3,3.3,1.5,2.9,2.9Z"/>
      </g>
      <g class="cls-51">
        <path class="cls-29" d="M235.4,494.9c-.2.7-1.1,1.2-2,1.2s-1.4-.7-1.2-1.4,1.1-1.2,2-1.2,1.4.7,1.2,1.4Z"/>
      </g>
      <g class="cls-51">
        <path class="cls-29" d="M228.4,504.7c-.2.5-1,.9-1.9.9s-1.5-.6-1.3-1.1,1-.9,1.9-.9,1.5.6,1.3,1.1Z"/>
      </g>
      <g class="cls-51">
        <path class="cls-29" d="M230,501.2c-.3.5-1,.7-1.6.5s-.9-.7-.6-1.2,1-.7,1.6-.5.9.7.6,1.2Z"/>
      </g>
      <g class="cls-51">
        <path class="cls-29" d="M253.8,510.4c.6,0,1.1.4,1.1.9s-.6,1-1.2,1.1-1.1-.4-1.1-.9.6-1,1.2-1.1Z"/>
      </g>
      <g class="cls-51">
        <path class="cls-29" d="M234,478.5c.6,0,1.1.4,1.1.9s-.6,1-1.2,1.1-1.1-.4-1.1-.9.6-1,1.2-1.1Z"/>
      </g>
      <g class="cls-51">
        <path class="cls-29" d="M216.5,498.1c.7-.5,1.8-.5,2.3,0s.3,1.4-.4,1.9-1.8.5-2.3,0-.3-1.4.4-1.9Z"/>
      </g>
      <g class="cls-51">
        <ellipse class="cls-29" cx="225.8" cy="496.7" rx="1.1" ry="1" transform="translate(-78.3 43.7) rotate(-9.4)"/>
      </g>
      <g class="cls-51">
        <ellipse class="cls-29" cx="240.8" cy="476.4" rx="5.2" ry="2.7" transform="translate(-262.9 653.1) rotate(-82.5)"/>
      </g>
      <g class="cls-51">
        <ellipse class="cls-29" cx="246.2" cy="480.8" rx="2.3" ry="2" transform="translate(-259.4 670.9) rotate(-83.5)"/>
      </g>
      <g class="cls-51">
        <ellipse class="cls-29" cx="241.9" cy="486.7" rx="3.3" ry="3.5" transform="translate(-301.6 485.5) rotate(-63.4)"/>
      </g>
      <g class="cls-51">
        <path class="cls-29" d="M256.8,468.1c-1.1,0-2.4-.7-2.8-1.8s0-2,1.2-2.1,2.4.7,2.8,1.8,0,2-1.2,2.1Z"/>
      </g>
      <g class="cls-51">
        <path class="cls-29" d="M239.2,464.5c-.8,0-1.9-.7-2.3-1.8s-.1-2,.7-2,1.9.7,2.3,1.8.1,2-.7,2Z"/>
      </g>
      <g class="cls-51">
        <path class="cls-29" d="M245,464.7c-.8-.1-1.6-.9-1.7-1.7s.4-1.3,1.2-1.2,1.6.9,1.7,1.7-.4,1.3-1.2,1.2Z"/>
      </g>
      <g class="cls-51">
        <path class="cls-29" d="M249.4,456.9c.7.6.8,1.4.3,1.9s-1.5.5-2.1-.1-.8-1.4-.3-1.9,1.5-.5,2.1.1Z"/>
      </g>
      <g class="cls-51">
        <ellipse class="cls-29" cx="305.3" cy="452" rx="1.7" ry="1.3" transform="translate(-106.9 94.7) rotate(-15)"/>
      </g>
      <g class="cls-51">
        <path class="cls-29" d="M303.7,458.8c-.1.5-.8.9-1.5.8s-1.1-.5-1-1,.8-.9,1.5-.8,1.1.5,1,1Z"/>
      </g>
      <g class="cls-51">
        <path class="cls-29" d="M308.9,442.8c-1.1,0-2.4-.7-2.8-1.8s0-2,1.2-2.1,2.4.7,2.8,1.8,0,2-1.2,2.1Z"/>
      </g>
      <g class="cls-51">
        <path class="cls-29" d="M291.3,439.2c-.8,0-1.9-.7-2.3-1.8s-.1-2,.7-2,1.9.7,2.3,1.8.1,2-.7,2Z"/>
      </g>
      <g class="cls-51">
        <path class="cls-29" d="M297,439.4c-.8-.1-1.6-.9-1.7-1.7s.4-1.3,1.2-1.2,1.6.9,1.7,1.7-.4,1.3-1.2,1.2Z"/>
      </g>
      <g class="cls-51">
        <path class="cls-29" d="M301.5,431.6c.7.6.8,1.4.3,1.9s-1.5.5-2.1-.1-.8-1.4-.3-1.9,1.5-.5,2.1.1Z"/>
      </g>
      <g class="cls-51">
        <path class="cls-29" d="M300.5,474.8c-.8-.2-1.1-1-.7-1.7s1.4-1.1,2.2-.8,1.1,1,.7,1.7-1.4,1.1-2.2.8Z"/>
      </g>
      <g class="cls-51">
        <path class="cls-29" d="M294.7,469.9c-.5-.3-.5-.9,0-1.3s1.2-.6,1.7-.4.5.9,0,1.3-1.2.6-1.7.4Z"/>
      </g>
      <g class="cls-51">
        <path class="cls-29" d="M309.4,479.4c.6-.8,2.2-1.4,3.6-1.4s2.2.8,1.6,1.6-2.2,1.4-3.6,1.4-2.2-.8-1.6-1.6Z"/>
      </g>
      <g class="cls-51">
        <path class="cls-29" d="M323.9,468.3c.4-.6,1.9-1.1,3.4-1s2.3.6,1.9,1.2-1.9,1.1-3.4,1-2.3-.6-1.9-1.2Z"/>
      </g>
      <g class="cls-51">
        <path class="cls-29" d="M320.2,472.2c.6-.5,1.9-.8,2.9-.6s1.2.8.6,1.3-1.9.8-2.9.6-1.2-.8-.6-1.3Z"/>
      </g>
      <g class="cls-51">
        <path class="cls-29" d="M326.2,478.2c-1,.3-2.1,0-2.3-.5s.4-1.2,1.4-1.5,2.1,0,2.3.5-.4,1.2-1.4,1.5Z"/>
      </g>
      <g class="cls-51">
        <path class="cls-29" d="M281.5,516.3c1.6,1.3.1,4.8-3.4,7.9s-7.7,4.6-9.3,3.3-.1-4.8,3.4-7.9c3.5-3.1,7.7-4.6,9.3-3.3Z"/>
      </g>
      <g class="cls-51">
        <path class="cls-29" d="M280.1,528.4c1.2,1,1,2.8-.6,4.2s-3.8,1.7-5,.7-1-2.8.6-4.2,3.8-1.7,5-.7Z"/>
      </g>
      <g class="cls-51">
        <path class="cls-29" d="M270.4,532.2c1.4,2.1.4,5.1-2.2,6.6s-5.9,1-7.4-1.2-.4-5.1,2.2-6.6,5.9-1,7.4,1.2Z"/>
      </g>
      <g class="cls-51">
        <path class="cls-29" d="M304,523.2c-1.5-.7-2.2-2.5-1.6-4s2.2-2.3,3.7-1.6,2.2,2.5,1.6,4-2.2,2.3-3.7,1.6Z"/>
      </g>
      <g class="cls-51">
        <path class="cls-29" d="M285.9,506.8c-1.1-.5-1.5-2.2-1-3.7s1.9-2.4,3-1.9,1.5,2.2,1,3.7-1.9,2.4-3,1.9Z"/>
      </g>
      <g class="cls-51">
        <path class="cls-29" d="M292.8,511c-.9-.7-1-2.1-.4-3.1s2-1.3,2.8-.6,1,2.1.4,3.1-2,1.3-2.8.6Z"/>
      </g>
      <g class="cls-51">
        <ellipse class="cls-29" cx="304.6" cy="505.4" rx="2.2" ry="2.1" transform="translate(-58.7 40.4) rotate(-6.9)"/>
      </g>
      <g class="cls-51">
        <ellipse class="cls-29" cx="279.2" cy="475.5" rx="8.9" ry="3.8" transform="translate(-214.8 720.6) rotate(-86)"/>
      </g>
      <g class="cls-51">
        <path class="cls-29" d="M293.9,479.6c2.4.3,4.2,2.3,4,4.4s-2.2,3.6-4.6,3.3-4.2-2.3-4-4.4,2.2-3.6,4.6-3.3Z"/>
      </g>
      <g class="cls-51">
        <path class="cls-29" d="M288.1,488.6c2.2.8,3,3.7,1.8,6.6s-4,4.6-6.2,3.8-3-3.7-1.8-6.6,4-4.6,6.2-3.8Z"/>
      </g>
      <g class="cls-51">
        <path class="cls-29" d="M314.3,462c-2.3.1-5.2-1.3-6.3-3.1s-.1-3.4,2.2-3.5,5.2,1.3,6.3,3.1.1,3.4-2.2,3.5Z"/>
      </g>
      <g class="cls-51">
        <path class="cls-29" d="M276.2,455.4c-1.8,0-4.1-1.3-5.2-3.2s-.6-3.4,1.2-3.5,4.1,1.3,5.2,3.2.6,3.4-1.2,3.5Z"/>
      </g>
      <g class="cls-51">
        <path class="cls-29" d="M288.5,455.9c-1.7-.2-3.5-1.5-3.9-2.9s.7-2.3,2.4-2.1,3.5,1.5,3.9,2.9-.7,2.3-2.4,2.1Z"/>
      </g>
      <g class="cls-51">
        <path class="cls-29" d="M296.9,442.7c1.5,1,2,2.5,1,3.3s-3.1.7-4.6-.3-2-2.5-1-3.3,3.1-.7,4.6.3Z"/>
      </g>
      <g class="cls-51">
        <path class="cls-29" d="M350.1,501c-.7.4-1.7.1-2.1-.5s-.2-1.5.6-1.9,1.7-.1,2.1.5.2,1.5-.6,1.9Z"/>
      </g>
      <g class="cls-51">
        <path class="cls-29" d="M341.6,501.8c-.6.1-1.2-.2-1.3-.8s.1-1.1.7-1.3,1.2.2,1.3.8-.1,1.1-.7,1.3Z"/>
      </g>
      <g class="cls-51">
        <path class="cls-29" d="M358.4,482.5c-.3-.6.2-1.8,1.2-2.7s2.1-1.1,2.4-.4-.2,1.8-1.2,2.7-2.1,1.1-2.4.4Z"/>
      </g>
      <g class="cls-51">
        <path class="cls-29" d="M369.8,487c-.4.8-1.3,1.3-2,1.2s-1-.9-.6-1.8,1.3-1.3,2-1.2,1,.9.6,1.8Z"/>
      </g>
      <g class="cls-51">
        <ellipse class="cls-29" cx="325.1" cy="507" rx="1.4" ry="1.6" transform="translate(-187.8 822.6) rotate(-88.9)"/>
      </g>
      <g class="cls-51">
        <ellipse class="cls-29" cx="327.9" cy="500.3" rx=".9" ry="1.2" transform="translate(-206 769.9) rotate(-83.5)"/>
      </g>
      <g class="cls-51">
        <path class="cls-29" d="M321.5,516.3c1,0,2.2,1.1,2.6,2.2s-.1,2.1-1.2,2-2.2-1.1-2.6-2.2.1-2.1,1.2-2Z"/>
      </g>
      <g class="cls-51">
        <path class="cls-29" d="M338,522.4c.8,0,1.8,1,2.2,2.2s0,2.1-.7,2.1-1.8-1-2.2-2.2,0-2.1.7-2.1Z"/>
      </g>
      <g class="cls-51">
        <path class="cls-29" d="M332.6,521.4c.8.2,1.5,1.1,1.6,2s-.4,1.4-1.2,1.1-1.5-1.1-1.6-2,.4-1.4,1.2-1.1Z"/>
      </g>
      <g class="cls-51">
        <ellipse class="cls-29" cx="329.1" cy="528.2" rx="1.2" ry="1.7" transform="translate(-266.6 348) rotate(-41.2)"/>
      </g>
      <g class="cls-51">
        <path class="cls-29" d="M326.2,489.9c.4,2-2,4.6-5.6,6-3.5,1.3-6.7.9-7.2-1.1s2-4.6,5.6-6,6.7-.9,7.2,1.1Z"/>
      </g>
      <g class="cls-51">
        <path class="cls-29" d="M341.6,511.7c-.9-1.8-.3-4.7,1.3-6.5s3.6-1.7,4.5,0,.3,4.7-1.3,6.5-3.6,1.7-4.5,0Z"/>
      </g>
      <g class="cls-51">
        <path class="cls-29" d="M336.4,478.4c-.7-1.4,0-3.9,1.7-5.7s3.4-2.1,4.1-.8,0,3.9-1.7,5.7-3.4,2.1-4.1.8Z"/>
      </g>
      <g class="cls-51">
        <path class="cls-29" d="M339.8,488.3c-.3-1.5.5-3.5,1.8-4.5s2.7-.5,3,.9-.5,3.5-1.8,4.5-2.7.5-3-.9Z"/>
      </g>
      <g class="cls-51">
        <ellipse class="cls-29" cx="354.3" cy="488" rx="3.2" ry="2.3" transform="translate(-223.6 660.3) rotate(-70.6)"/>
      </g>
      <g class="cls-51">
        <path class="cls-29" d="M217.6,475.3c-.4-.3-.4-.9,0-1.3s1.2-.6,1.7-.3.4.9,0,1.3-1.2.6-1.7.3Z"/>
      </g>
      <g class="cls-51">
        <path class="cls-29" d="M242.9,518c.6,0,1.1.4,1.1.9s-.6,1-1.2,1.1-1.1-.4-1.1-.9.6-1,1.2-1.1Z"/>
      </g>
      <g class="cls-51">
        <path class="cls-29" d="M230.7,520.7c.6-.3,1.3,0,1.7.6s.2,1.3-.4,1.6-1.3,0-1.7-.6-.2-1.3.4-1.6Z"/>
      </g>
    </g>
    <path class="cls-29" d="M89.5,359.1c-.7-2.4-.4-6.6-.1-8.2l3.2-1.5c0,2.7-1.3,7.7-.4,9.2.9,1.5,2.4,12.8,1.8,10.4-.7-2.4-3.7-6.8-4.5-9.9Z"/>
    <path class="cls-29" d="M95.2,348.3l-2.9,1.4c1,1,3.1,3.5,3.6,4.8.7,1.7-.2,2.2,0,4.5.1,2.3,3.3,5.5,4.6,7.6,1.3,2,.5,5.6,2,7.3-.3-3,.6-4.7,0-7.8-.6-3.2-2.3-3.7-3.6-5.7-1.3-2,.3-2.7-.3-6.1-.5-2.7-2.5-5.1-3.2-6Z"/>
    <path class="cls-29" d="M308.9,239.3l-5.2,2.4c1.5,1.4,4.7,4.7,5.6,6.7,1.1,2.4-.4,3.2-.3,6.6,0,3.4,5,7.9,7.1,10.7,2,2.9.5,8,2.8,10.5-.3-4.3,1.1-6.8.3-11.3-.8-4.6-3.5-5.2-5.5-8.1-2-2.9.6-3.9-.3-8.8-.7-3.9-3.2-7.4-4.4-8.7Z"/>
    <path class="cls-29" d="M46.8,322.7l14,8.4c-.6.6-1.8,2.3-1.5,3.6.4,1.7.2,4.6,0,6.4-.2,1.5,2,6.2,1.8,9.2-.8-1.6-2.7-4.6-3.7-7.2-1.2-3.2.8-3.4-.3-6.3-.9-2.3-3.2-4.7-4.3-5.6-.6-.4-1.8-1-1.9.5-.2,1.8,1.7,3.8,2.5,5.4.7,1.4,1.3,8.6,1.7,11.3-1.1-1.5-3-6.7-3.2-9.5-.1-1.8-1.5-3.2-2.4-5.1-.6-1.3.2-4.3-.5-5.6-.7-1.2-2,.2-1.8,1.2.3,1-1.5,3.6-.4,6.2.9,2.3,1.5,6.8,1.3,8.6-.1-1.8-1.7-4.9-3.1-7.7-1.5-2.8-.5-3.1-1.1-6.8-.5-3-3.4-6.1-4.7-7.3l7.7.4Z"/>
    <path class="cls-29" d="M316.8,246.8c-1.4-3.4-1-9.3-.6-11.8l12.2-6.6c1.2.7,3.6,2.6,4,4.5.5,2.3-.3,3.5-.4,5.2,0,1.7,2.2,4.4,2.5,5.8.3,1.4.9,4.2.6,6.7-.3,2,.9,5.3,1.4,6.8-.8-.6-2.6-2.5-3.5-5.1-1.1-3.2,0-4.9-.4-6.8-.4-1.9-1.8-2.5-2.7-3.8-.9-1.3-.5-6.5-1.8-6.2-1.2.3-.6,2.1-.8,3.3-.2,1.3-.6,4.3.4,6.8,1.2,3.2,2,8.6,1.7,10.9-.7-3.3-3.7-6-4.1-8.3-.5-2.3.6-2.1,0-6.8-.3-2.3-1.8-4.2-3.3-3.2-1.5,1.1-.7,7.7,1.6,10.4,2.3,2.7,3.7,12.3,3.5,16.5-.2,4.2,3.4,9,3.6,13.8-2.2-4.2-4.5-4.9-6.3-8.1-1.8-3.3-.5-6.2-1-12.9-.6-6.7-4.9-6.7-6.6-11Z"/>
    <path class="cls-29" d="M578.6,234.3c-.4-3.7-6.2-12.7-7.9-14.7l-13.9,5.3c-.8,1.3-2.3,4.2-1.7,6,.7,2.3,2.2,2.8,3.2,4.2,1,1.4,0,5,.5,6.3s1.3,4.1,3,6c1.3,1.6,2,5,2.1,6.6.5-1,1.3-3.6.8-6.3-.6-3.3-2.7-4.2-3.2-6-.6-1.8.5-3.2.8-4.7.3-1.6-2.9-5.8-1.5-6.3,1.4-.4,1.8,1.4,2.6,2.4.8,1,2.9,3.3,3.2,6,.4,3.4,2.5,8.5,4.1,10.2-1-3.2.5-7.2-.2-9.4-.7-2.3-1.8-1.4-3.7-5.8-.9-2.1-.5-4.6,1.7-4.5,2.1,0,4.9,6.2,4,9.7-.9,3.5,2.8,12.6,5.2,16.1,2.4,3.5,1.3,9.6,3.7,13.8,0-4.8,2-6.6,2.1-10.4,0-3.8-2.9-5.6-5.9-11.6-3-6,1.4-8.4,1-13Z"/>
    <path class="cls-29" d="M432.8,117c-1.1-2.1-.4-4.5.5-5.5l12-7c1,1.7,2.9,3.6,3.5,5.5.5,1.9-.2,3.3.3,5.3.5,2,4,4.3,3.7,6.2-.4,1.9,1.5,4.8,2.2,6.4s-2.6,8.3-3.7,9.2c.5-.7,1.5-5.2.9-7.4-.6-2.2-1.8-2.5-2.3-3.8-.6-1.2.4-2.5-.2-4.7-.6-2.2-2-2.5-3-4-1.1-1.5-.8-3-1.6-3.4-.8-.4-2.9.8-2.8,2.6,0,1.8,2,2.5,2.7,4.3.7,1.8-.3,4.7-.8,6.2-.4,1.2,1.1,5.1,1.9,6.9-.8-.8-2.7-2.7-3.8-4.2-1.4-1.8.3-5.3-.2-7.1-.5-1.9-2.4-3.2-2.9-4.4-.6-1.2,0-2.6-.2-4.1-.2-1.5-3-.6-3.5.9-.5,1.5,2.5,3.5,2.8,5.4.3,1.9-.8,5.9-1.8,8.1,0-.5,0-2.4,0-5.4,0-3.8-2.2-3.2-3.6-5.8Z"/>
    <path class="cls-29" d="M295.1,90.9c-.3-2.9-2.5-8.3-3.6-9l-10.9,7.9c.2,2.4-.1,5.5.5,7.9.6,2.3,1.8,3.5,2.5,6.1.7,2.6-.5,6.9.7,8.8,1.2,1.9,1.5,6.1,1.9,8.2.4,2.1,6.1,7.9,7.3,8.3-.7-.6-3.7-5-4.5-7.8-.8-2.8,0-3.7-.4-5.4-.3-1.7-1.6-2.6-2.3-5.4-.8-2.8,0-3.8,0-6,0-2.2-2-6.7-1.2-7.1,1-.5,2.5.7,3.4,2.7.9,2,.3,5,.8,7.4.5,2.4,2.6,5,3.7,6.5.9,1.2,1.9,6.2,2.3,8.6.1-1.3.4-4.4.4-6.6,0-2.7-3-5.7-3.6-8-.6-2.3,0-4.7-.3-6.4-.3-1.7-2-5.2-2.6-7-.7-1.8,1.4-1.1,2.5.3,1.1,1.4,1.7,5.3,2.5,7.6.8,2.3,2,3.1,3.7,5-.3-.6-.4-4.2-2-7.5-2-4.2-.4-5.3-.8-9Z"/>
    <path class="cls-29" d="M565.7,396.4c-3.7,3.2-1.7,9.5-.2,12.2l4.1-.9c.7-2.1,1.8-7,1.8-8.1,0-1.3-1.1-1.6-1.4-2.9-.3-1.3,2.5-3.4,3.6-4.7,1.1-1.3,2.3-4.3,2.5-5-.5.8-4,2.3-5.4,3.7-1.4,1.4-.4,1.7-5,5.8Z"/>
    <path class="cls-29" d="M563,397c-.5,2.3-1.2,9-.4,12.3l3.6-.8c-.1-1.3-1.4-2.6-1.9-5-.5-2.5,4-4.1,4-8.8,0-3.8-2.1-7.7-3.2-9.2,0,.9-.2,3.2-.5,5.5-.4,2.8-1,3.2-1.6,6Z"/>
    <path class="cls-29" d="M555.7,400.7c.4-1.5-1.1-5-1.9-6.6,1,.8,3.1,2.7,3.5,3.2.5.6,2.2,1.7,2.1,3.6,0,1.9.5,4.1.6,5.2l-2.7.6s-1.5-1.8-1.9-2.8c-.4-1,0-1.7.3-3.2Z"/>
    <path class="cls-29" d="M558.5,403.6c-.9,1.7.5,4.9,1.3,6.4l3.6-.8c-.4-1-1.2-3.3-.9-4.4.3-1.1,1.1-2.8,1.5-3.5.4-.7.5-2.7-.5-3.9-1.2-1.6-1.1-2.9-1.6-4.4-.4-1.5-3.1-3.2-4.3-4.1-1-.7-1.5-2-1.6-2.5-.2.4-.9,1.7-1.3,3.1-.6,1.8,1.2,3.8,2,5.1.9,1.3,2.4,2.9,3.1,4.6.6,1.7,0,2.2-1.2,4.3Z"/>
    <path class="cls-29" d="M558.1,404.7c1.2.9,1.9,3.8,2.1,5.1l-4.3.9-.7-3.4c-.4-2.1-2-2.8-3.1-4.1s-1.5-2.2-1.4-4.4c0-1.8-2.3-4.2-3.4-5.5,1,.6,3.4,1.3,4.7,2,1.7.8,2,2,2.5,3.2.5,1.2.3,1.5.6,3.2.3,1.6,1.7,2.1,2.9,3Z"/>
    <path class="cls-29" d="M566.7,402.7c-.8,1.3-.9,4.5-.8,5.9l4.8-1c-.2-.2-.8-.8-1.2-1.8-.5-1.2,1-2.6,1.7-4,.7-1.4,0-2.2,0-3.7-.1-1.2,1.7-3.7,2.6-4.8-.7.3-2.2,1.2-3,1.8-1.1.8-1.5,2.1-1.6,3.4-.1,1.3-1.5,2.6-2.5,4.2Z"/>
    <path class="cls-29" d="M662.4,332.9c-2.4,4.7,2.3,12.5,5,15.9l3.8-1.7c-.2-2.9-1.1-9.4-1.6-10.8-.6-1.8-1.8-2-2.6-3.6-.8-1.6,1.1-4.8,1.7-6.7.6-1.9.5-5.9.4-6.8-.2,1.1-3.1,3.5-4,5.5-.9,2,.3,2.3-2.7,8.2Z"/>
    <path class="cls-29" d="M659.9,334.1c.5,3.1,2.5,11.9,4.8,16l3.4-1.5c-.7-1.6-2.6-3.1-4.1-6.2-1.5-3.1,2.4-5.9.4-12-1.6-4.9-5.5-9.8-7.2-11.6.3,1.2,1.1,4.2,1.8,7.2.8,3.7.3,4.3.9,8.1Z"/>
    <path class="cls-29" d="M654,339.9c-.2-2-3.3-6.4-4.8-8.3,1.4,1,4.2,3,4.9,3.6.8.7,2.9,2,3.7,4.4s2.2,5.3,2.9,6.7l-2.5,1.1s-2.3-2.1-3.1-3.3c-.8-1.2-.8-2.2-1-4.3Z"/>
    <path class="cls-29" d="M658,343.3c-.2,2.4,2.6,6.4,4,8.1l3.4-1.5c-.9-1.3-2.6-4.1-2.8-5.6-.2-1.5,0-3.8,0-4.7,0-1-.6-3.5-2.2-5-1.9-1.9-2.4-3.7-3.5-5.5-1.1-1.9-4.5-3.7-6.1-4.7-1.3-.8-2.3-2.3-2.7-3,0,.6-.2,2.3,0,4.3.2,2.5,2.8,4.8,4.2,6.3,1.4,1.6,3.7,3.5,5.1,5.6,1.4,2.1.8,2.9.6,5.8Z"/>
    <path class="cls-29" d="M658.1,344.8c1.6,1,3.5,4.6,4.3,6.4l-4,1.8-2.2-4.3c-1.3-2.7-3.2-3.4-4.9-4.9-1.7-1.5-2.4-2.6-3.2-5.5-.7-2.3-4.1-5.1-5.8-6.6,1.3.7,4,1.2,5.7,1.9,2,.9,2.8,2.3,3.9,3.8,1.1,1.5,1,1.9,2,4,1,2.1,2.6,2.5,4.2,3.5Z"/>
    <path class="cls-29" d="M666.1,341c-.3,1.9,1,6,1.6,7.8l4.5-2c-.3-.2-1.1-1-2-2.2-1-1.5,0-3.6,0-5.5.1-1.9-.8-2.8-1.6-4.8-.6-1.6.2-5.1.7-6.6-.5.5-1.7,1.9-2.3,2.8-.7,1.2-.6,3-.2,4.7.4,1.7-.4,3.6-.8,5.9Z"/>
  </g>
  <path class="cls-29" d="M500.2,458c-1.1-2.1-.4-4.5.5-5.5l17.2-1.8c1,1.7,1.3,1.5,1.8,3.3s-1.1,2.9-.5,4.9c.6,2,1.2,4.1.8,6-.4,1.9,1.6,2.4,2.3,4,.7,1.6.2,5.1,1.7,7.9-1.3-.8-4-3.3-4.6-5.6-.6-2.2-1.9-3.3-2.4-4.5-.6-1.2.6-2.4,0-4.6-.6-2.2-2-2.5-3-4-1.1-1.5-.8-3-1.6-3.4-.8-.4-2.9.8-2.8,2.6,0,1.8,2,2.5,2.7,4.3.7,1.8-.3,4.7-.8,6.2-.4,1.2,1.4,7.4,1.1,9.3-.2-1.7-1.9-5.1-3-6.6-1.4-1.8.3-5.3-.2-7.1-.5-1.9-2.4-3.2-2.9-4.4-.6-1.2,0-2.6-.2-4.1-.2-1.5-3-.6-3.5.9-.5,1.5,2.5,3.5,2.8,5.4.3,1.9-.8,5.9-1.8,8.1,0-.5,0-2.4,0-5.4,0-3.8-2.2-3.2-3.6-5.8Z"/>
</svg>