<svg width="1920" height="775" viewBox="0 0 1920 775" fill="none" xmlns="http://www.w3.org/2000/svg">
<path d="M-43.034 175.179C-58.7474 170.452 -90.2252 184.632 -104 192.313V200.037L-72.8521 1088H1920.15V0H1861.99C1853.49 1.37859 1832.55 4.60842 1816.84 6.49905C1797.2 8.86234 1789.54 8.86234 1769.9 20.9742C1750.26 33.0861 1745.92 40.7668 1722.71 59.3777C1699.5 77.9886 1687.51 92.1684 1664.3 119.937C1641.08 147.706 1633.18 175.77 1618.64 197.926C1604.1 220.081 1596.51 171.634 1595.49 197.926C1594.67 218.959 1600.59 252.971 1603.65 267.347C1603.48 278.967 1599.72 304.628 1586.05 314.318C1568.96 326.43 1545.74 314.318 1525.08 314.318C1504.42 314.318 1493.45 323.475 1478.66 337.655C1463.86 351.835 1468.71 358.925 1458.5 378.717C1448.3 398.51 1439.37 392.602 1426.62 407.077C1413.86 421.552 1392.44 421.552 1369.48 437.209C1346.52 452.866 1305.39 395.911 1285.49 402.114C1265.6 408.318 1246.2 426.75 1223.49 423.5C1200.79 420.25 1172.63 418.146 1154.5 423.5C1133.49 429.704 1070.26 471.164 1054.5 485.5C1037.89 500.614 1035.68 503.274 1005.18 503.274C985.965 503.274 962.931 507.049 950.177 518.274C937.423 529.5 933.999 533.931 921.5 529.5C909.001 525.069 896.896 543.975 875.213 535.704C853.531 527.432 835.93 534.522 810.166 529.5C784.402 524.478 798.958 513.182 776 512C753.042 510.818 747.703 525.069 725 518.274C702.297 511.48 705.305 501.953 690 492.5C674.695 483.047 615.805 472.839 600.5 466.044C585.195 459.25 582 466.044 534 466.044C521.257 466.044 483.081 445.407 466.5 433C449.919 420.593 400.02 441.862 386.5 433C372.98 424.138 368.376 410.326 349.5 409.736C330.624 409.145 340.315 417.416 324.5 409.736C308.685 402.055 304.683 391.42 295.5 378.717C286.317 366.015 258.313 368.499 253.466 360.819C248.62 353.138 232.804 319.165 228.213 312.371C223.621 305.577 210.867 295.828 199.388 295.237C187.909 294.646 176.94 267.469 169.798 258.606C162.655 249.744 145.309 241.472 134.341 236.45C123.372 231.428 117.505 220.794 112.148 207.5C106.791 194.206 68.6944 189.359 55.94 181.678C43.1857 173.997 37.0635 181.087 22.7786 181.678C8.49372 182.269 6.19793 175.179 -3.75049 175.179C-13.6989 175.179 -23.3922 181.087 -43.034 175.179Z" fill="#345995"/>
<path d="M-43.034 175.179C-58.7474 170.452 -90.2252 184.632 -104 192.313V200.037L-72.8521 1088H1920.15V0H1861.99C1853.49 1.37859 1832.55 4.60842 1816.84 6.49905C1797.2 8.86234 1789.54 8.86234 1769.9 20.9742C1750.26 33.0861 1745.92 40.7668 1722.71 59.3777C1699.5 77.9886 1687.51 92.1684 1664.3 119.937C1641.08 147.706 1633.18 175.77 1618.64 197.926C1604.1 220.081 1596.51 171.634 1595.49 197.926C1594.67 218.959 1600.59 252.971 1603.65 267.347C1603.48 278.967 1599.72 304.628 1586.05 314.318C1568.96 326.43 1545.74 314.318 1525.08 314.318C1504.42 314.318 1493.45 323.475 1478.66 337.655C1463.86 351.835 1468.71 358.925 1458.5 378.717C1448.3 398.51 1439.37 392.602 1426.62 407.077C1413.86 421.552 1392.44 421.552 1369.48 437.209C1346.52 452.866 1305.39 395.911 1285.49 402.114C1265.6 408.318 1246.2 426.75 1223.49 423.5C1200.79 420.25 1172.63 418.146 1154.5 423.5C1133.49 429.704 1070.26 471.164 1054.5 485.5C1037.89 500.614 1035.68 503.274 1005.18 503.274C985.965 503.274 962.931 507.049 950.177 518.274C937.423 529.5 933.999 533.931 921.5 529.5C909.001 525.069 896.896 543.975 875.213 535.704C853.531 527.432 835.93 534.522 810.166 529.5C784.402 524.478 798.958 513.182 776 512C753.042 510.818 747.703 525.069 725 518.274C702.297 511.48 705.305 501.953 690 492.5C674.695 483.047 615.805 472.839 600.5 466.044C585.195 459.25 582 466.044 534 466.044C521.257 466.044 483.081 445.407 466.5 433C449.919 420.593 400.02 441.862 386.5 433C372.98 424.138 368.376 410.326 349.5 409.736C330.624 409.145 340.315 417.416 324.5 409.736C308.685 402.055 304.683 391.42 295.5 378.717C286.317 366.015 258.313 368.499 253.466 360.819C248.62 353.138 232.804 319.165 228.213 312.371C223.621 305.577 210.867 295.828 199.388 295.237C187.909 294.646 176.94 267.469 169.798 258.606C162.655 249.744 145.309 241.472 134.341 236.45C123.372 231.428 117.505 220.794 112.148 207.5C106.791 194.206 68.6944 189.359 55.94 181.678C43.1857 173.997 37.0635 181.087 22.7786 181.678C8.49372 182.269 6.19793 175.179 -3.75049 175.179C-13.6989 175.179 -23.3922 181.087 -43.034 175.179Z" fill="url(#paint0_linear_464_4330)" fill-opacity="0.4"/>
<defs>
<linearGradient id="paint0_linear_464_4330" x1="923.648" y1="0" x2="923.648" y2="1088" gradientUnits="userSpaceOnUse">
<stop offset="0.571351" stop-color="#A8D5E2"/>
<stop offset="1" stop-color="#A8D5E2" stop-opacity="0"/>
</linearGradient>
</defs>
</svg>
