<svg width="1920" height="679" viewBox="0 0 1920 679" fill="none" xmlns="http://www.w3.org/2000/svg">
<path d="M1892.99 6.76614C1906.54 5.14721 1965.31 25.3164 1993 35.6033V711H-94V20.9317C-72.7454 20.2572 -24.7333 19.3128 -2.72034 20.9317C24.7959 22.9554 20.5626 45.2157 50.4601 45.2157C80.3575 45.2157 75.8596 69.4996 94.9093 83.9182C113.959 98.3368 113.959 100.107 135.39 114.273C156.821 128.439 139.623 140.581 148.09 152.723C156.556 164.865 167.139 166.888 184.073 187.378C197.619 203.769 215.293 231.983 222.437 244.04C228.081 254.243 242.756 276.672 256.303 284.766C269.849 292.861 280.061 336.96 285 347.753C314.016 386.371 391.238 440.69 455.795 430.976C536.492 418.834 581.206 426.929 619.305 430.976C657.405 435.023 689.419 443.118 753.182 457.284C816.946 471.449 852.929 467.402 891.028 467.402C929.127 467.402 1007.71 457.284 1041.84 443.118C1063.62 434.079 1077.71 410.173 1104.5 393.5C1124 386.5 1168.72 375.824 1189.5 368.5C1246.91 348.263 1241.33 357.871 1315.68 347.753C1352.18 342.784 1393.5 340.5 1428 334.5C1467 334.5 1498.21 331.09 1514.5 328C1546.51 321.929 1615.92 273.308 1631 247C1656.5 227 1650.02 197.9 1658.5 177.5C1680 155.5 1676.8 150.166 1689.5 136C1699.66 124.668 1696.32 112.249 1699.85 110.226C1711 95.5 1720.59 87.1054 1735.83 59.3813C1754.88 24.7261 1784.78 22.9554 1816.53 6.76614C1848.28 -9.42313 1876.06 8.7898 1892.99 6.76614Z" fill="#1B4965"/>
<path d="M1892.99 6.76614C1906.54 5.14721 1965.31 25.3164 1993 35.6033V711H-94V20.9317C-72.7454 20.2572 -24.7333 19.3128 -2.72034 20.9317C24.7959 22.9554 20.5626 45.2157 50.4601 45.2157C80.3575 45.2157 75.8596 69.4996 94.9093 83.9182C113.959 98.3368 113.959 100.107 135.39 114.273C156.821 128.439 139.623 140.581 148.09 152.723C156.556 164.865 167.139 166.888 184.073 187.378C197.619 203.769 215.293 231.983 222.437 244.04C228.081 254.243 242.756 276.672 256.303 284.766C269.849 292.861 280.061 336.96 285 347.753C314.016 386.371 391.238 440.69 455.795 430.976C536.492 418.834 581.206 426.929 619.305 430.976C657.405 435.023 689.419 443.118 753.182 457.284C816.946 471.449 852.929 467.402 891.028 467.402C929.127 467.402 1007.71 457.284 1041.84 443.118C1063.62 434.079 1077.71 410.173 1104.5 393.5C1124 386.5 1168.72 375.824 1189.5 368.5C1246.91 348.263 1241.33 357.871 1315.68 347.753C1352.18 342.784 1393.5 340.5 1428 334.5C1467 334.5 1498.21 331.09 1514.5 328C1546.51 321.929 1615.92 273.308 1631 247C1656.5 227 1650.02 197.9 1658.5 177.5C1680 155.5 1676.8 150.166 1689.5 136C1699.66 124.668 1696.32 112.249 1699.85 110.226C1711 95.5 1720.59 87.1054 1735.83 59.3813C1754.88 24.7261 1784.78 22.9554 1816.53 6.76614C1848.28 -9.42313 1876.06 8.7898 1892.99 6.76614Z" fill="url(#paint0_linear_464_4795)" fill-opacity="0.25"/>
<defs>
<linearGradient id="paint0_linear_464_4795" x1="949.5" y1="430.723" x2="949.5" y2="711" gradientUnits="userSpaceOnUse">
<stop stop-color="#A8D5E2"/>
<stop offset="0.65404" stop-color="#A8D5E2" stop-opacity="0"/>
</linearGradient>
</defs>
</svg>
